<svg width="19" height="19" viewBox="0 0 19 19" fill="none" xmlns="http://www.w3.org/2000/svg">
<path opacity="0.2" d="M6.83594 13.055C7.09752 13.8008 7.52149 14.4791 8.07722 15.0411C8.63295 15.603 9.30656 16.0345 10.0494 16.3044C10.7922 16.5743 11.5857 16.6758 12.3726 16.6015C13.1594 16.5273 13.9199 16.2793 14.5992 15.8753V15.8753L16.4473 16.4022C16.5234 16.4237 16.6039 16.4244 16.6804 16.4044C16.7569 16.3844 16.8267 16.3444 16.8827 16.2884C16.9386 16.2325 16.9786 16.1627 16.9986 16.0862C17.0186 16.0096 17.0179 15.9292 16.9965 15.853L16.4695 14.005C16.94 13.2153 17.1985 12.3175 17.22 11.3986C17.2414 10.4796 17.0252 9.5707 16.5922 8.7599C16.1591 7.9491 15.524 7.2639 14.7484 6.77069C13.9727 6.27749 13.0828 5.99301 12.1648 5.94482V5.94482C12.3684 6.51397 12.4714 7.1142 12.4691 7.71865C12.4691 9.1359 11.9061 10.4951 10.904 11.4973C9.90184 12.4994 8.54264 13.0624 7.12539 13.0624L6.83594 13.055Z" fill="white"/>
<path d="M2.53081 10.4426C1.86533 9.32143 1.63208 7.99586 1.87485 6.71487C2.11763 5.43387 2.81973 4.28558 3.84929 3.48565C4.87886 2.68572 6.16505 2.28919 7.46631 2.37054C8.76757 2.45189 9.99436 3.00551 10.9163 3.92744C11.8382 4.84936 12.3918 6.07615 12.4732 7.37741C12.5545 8.67867 12.158 9.96486 11.3581 10.9944C10.5581 12.024 9.40985 12.7261 8.12885 12.9689C6.84786 13.2116 5.52229 12.9784 4.40112 12.3129L2.55307 12.8399C2.47693 12.8613 2.39646 12.862 2.31993 12.842C2.24341 12.822 2.17359 12.782 2.11766 12.7261C2.06173 12.6701 2.02171 12.6003 2.00171 12.5238C1.98171 12.4473 1.98245 12.3668 2.00386 12.2906L2.53081 10.4426Z" stroke="white" stroke-width="1.1875" stroke-linecap="round" stroke-linejoin="round"/>
<path d="M6.83594 13.055C7.09752 13.8008 7.52149 14.4791 8.07722 15.0411C8.63295 15.603 9.30656 16.0345 10.0494 16.3044C10.7922 16.5743 11.5857 16.6758 12.3726 16.6015C13.1594 16.5273 13.9199 16.2793 14.5992 15.8753V15.8753L16.4473 16.4022C16.5234 16.4237 16.6039 16.4244 16.6804 16.4044C16.7569 16.3844 16.8267 16.3444 16.8827 16.2884C16.9386 16.2325 16.9786 16.1627 16.9986 16.0862C17.0186 16.0096 17.0179 15.9292 16.9965 15.853L16.4695 14.005C16.94 13.2153 17.1985 12.3175 17.22 11.3986C17.2414 10.4796 17.0252 9.5707 16.5922 8.7599C16.1591 7.9491 15.524 7.2639 14.7484 6.77069C13.9727 6.27749 13.0828 5.99301 12.1648 5.94482" stroke="white" stroke-width="1.1875" stroke-linecap="round" stroke-linejoin="round"/>
</svg>
