<svg width="346" height="244" viewBox="0 0 346 244" fill="none" xmlns="http://www.w3.org/2000/svg">
<g clip-path="url(#clip0_943_15160)">
<path d="M346 243C298.068 243 250.604 233.559 206.321 215.216C162.037 196.873 121.799 169.987 87.906 136.094C54.0126 102.201 27.1269 61.9633 8.78395 17.6794C-9.55901 -26.6044 -19 -74.0676 -19 -122L346 -122L346 243Z" fill="#026B57"/>
<mask id="path-2-inside-1_943_15160" fill="white">
<path d="M242 -425C194.137 -425 147.349 -410.807 107.552 -384.216C67.7553 -357.624 36.7376 -319.829 18.4211 -275.609C0.104742 -231.39 -4.68766 -182.732 4.64997 -135.788C13.9876 -88.8447 37.0359 -45.7244 70.8802 -11.8801C104.724 21.9642 147.845 45.0124 194.788 54.35C241.732 63.6877 290.39 58.8952 334.609 40.5788C378.829 22.2624 416.624 -8.75533 443.216 -48.552C469.807 -88.3487 484 -135.137 484 -183L242 -183L242 -425Z"/>
</mask>
<path d="M242 -425C194.137 -425 147.349 -410.807 107.552 -384.216C67.7553 -357.624 36.7376 -319.829 18.4211 -275.609C0.104742 -231.39 -4.68766 -182.732 4.64997 -135.788C13.9876 -88.8447 37.0359 -45.7244 70.8802 -11.8801C104.724 21.9642 147.845 45.0124 194.788 54.35C241.732 63.6877 290.39 58.8952 334.609 40.5788C378.829 22.2624 416.624 -8.75533 443.216 -48.552C469.807 -88.3487 484 -135.137 484 -183L242 -183L242 -425Z" stroke="#00CFA8" stroke-width="6" mask="url(#path-2-inside-1_943_15160)"/>
</g>
<defs>
<clipPath id="clip0_943_15160">
<rect width="346" height="244" fill="white"/>
</clipPath>
</defs>
</svg>
