<svg width="352" height="92" viewBox="0 0 352 92" fill="none" xmlns="http://www.w3.org/2000/svg">
<g clip-path="url(#clip0_942_12593)">
<mask id="mask0_942_12593" style="mask-type:luminance" maskUnits="userSpaceOnUse" x="7" y="14" width="339" height="64">
<path d="M345.531 14.4012H7.5V77.599H345.531V14.4012Z" fill="white"/>
</mask>
<g mask="url(#mask0_942_12593)">
<path d="M95.9873 35.023C92.3191 34.9948 88.6854 35.729 85.3158 37.1791L84.727 37.4365L84.9985 38.0042C85.0302 38.0888 85.1747 38.5084 85.8024 40.245C86.3208 41.7046 86.5958 42.4768 86.6169 42.5369L86.8178 43.1503L87.4083 42.9211C89.944 41.828 92.6548 41.1973 95.4125 41.0595C95.96 41.0125 96.5113 41.0745 97.0349 41.2419C97.5585 41.409 98.0437 41.6786 98.4624 42.0345C99.1912 42.9531 99.5361 44.1179 99.4251 45.2854V46.1987C99.0726 46.2356 98.6758 46.2742 98.2155 46.3149C97.4716 46.3818 96.7912 46.4507 96.1899 46.5194C95.5888 46.5883 95.0317 46.655 94.5345 46.7203C91.4408 46.853 88.4382 47.809 85.8376 49.49C84.8102 50.3146 83.9976 51.376 83.4701 52.5834C82.9426 53.7908 82.7159 55.108 82.8089 56.4222C82.7336 57.6493 82.9232 58.8781 83.3645 60.0254C83.8059 61.1727 84.4889 62.2117 85.367 63.072C87.176 64.6501 89.5216 65.4742 91.9201 65.3746C93.6395 65.4203 95.3468 65.0742 96.9128 64.3626C98.1618 63.7266 99.3143 62.917 100.337 61.9579C100.404 62.1659 100.485 62.4163 100.581 62.7178C101.044 64.1283 101.11 64.3486 101.11 64.3732L101.227 64.8421H107.128V46.0222C107.128 42.2088 106.22 39.3918 104.43 37.6446C102.064 35.7065 99.0354 34.7662 95.9873 35.023ZM99.4022 51.535V56.1029C98.9155 57.0432 98.1847 57.8349 97.2865 58.3949C96.2103 59.0797 94.9547 59.4294 93.6793 59.3999C92.7772 59.4649 91.8844 59.183 91.1831 58.6117C90.8934 58.3131 90.6704 57.9567 90.5291 57.5656C90.3878 57.1742 90.3312 56.7574 90.3632 56.3427C90.3075 55.715 90.4222 55.0836 90.6952 54.5155C90.9682 53.9474 91.3896 53.4634 91.9147 53.1149C93.6185 52.2356 95.4972 51.7472 97.4135 51.685C97.4893 51.685 97.7202 51.6672 98.7587 51.5828L99.4022 51.535Z" fill="#707780"/>
<path d="M124.321 46.9899C124.118 46.9035 123.838 46.7942 123.464 46.6551C123.037 46.4964 122.877 46.4434 122.796 46.4188C121.398 45.9472 120.051 45.3389 118.772 44.6029C118.519 44.4464 118.311 44.2251 118.171 43.9617C118.032 43.6983 117.965 43.4024 117.977 43.1044C117.957 42.8023 118.021 42.5008 118.164 42.2337C118.307 41.9669 118.522 41.7456 118.785 41.5952C119.635 41.1583 120.586 40.9562 121.54 41.0101C124.032 41.0677 126.48 41.6784 128.707 42.7976L129.31 43.0852L131.332 37.3324L130.847 37.0855C127.909 35.6602 124.676 34.951 121.412 35.0158C118.623 34.8605 115.86 35.6154 113.538 37.1667C112.57 37.9043 111.796 38.8668 111.283 39.9708C110.77 41.0748 110.534 42.2871 110.596 43.5029C110.498 45.4711 111.15 47.4032 112.42 48.9099C114.027 50.4801 115.962 51.6735 118.087 52.404C118.304 52.4904 118.78 52.6687 119.497 52.933C120.958 53.4416 122.356 54.1133 123.667 54.9357C123.948 55.1334 124.176 55.398 124.33 55.706C124.484 56.0136 124.559 56.3548 124.548 56.6989C124.565 57.0736 124.486 57.4465 124.318 57.782C124.15 58.1175 123.899 58.4043 123.589 58.6152C122.673 59.1487 121.62 59.399 120.562 59.3345C119.052 59.305 117.552 59.0677 116.107 58.6293C114.703 58.2536 113.347 57.7215 112.062 57.0426L111.289 56.6106L110.442 62.9168L110.795 63.125C113.868 64.7105 117.303 65.4647 120.757 65.3128C123.692 65.4896 126.596 64.6325 128.964 62.8904C129.961 62.0363 130.749 60.9663 131.271 59.7618C131.792 58.5574 132.032 57.2501 131.972 55.9388C132.053 53.9322 131.364 51.9703 130.047 50.4543C128.433 48.87 126.473 47.6838 124.321 46.9899Z" fill="#707780"/>
<path d="M156.564 37.025C154.758 35.6797 152.558 34.9688 150.307 35.0028C148.481 34.9815 146.679 35.4212 145.068 36.281C143.941 36.8889 142.944 37.7105 142.132 38.6998L141.603 35.7133H134.904V76.4667L142.627 76.0751V64.9543C142.627 64.7938 142.615 64.3478 142.518 62.5019C143.281 63.2061 144.139 63.7996 145.068 64.2649C146.607 65.0201 148.303 65.4023 150.018 65.3809C151.724 65.4324 153.416 65.0663 154.948 64.3146C156.48 63.5626 157.805 62.4477 158.808 61.0668C161.043 57.8754 162.165 54.0377 162.001 50.1452C162.039 47.5296 161.577 44.9307 160.64 42.4884C159.817 40.3229 158.405 38.4304 156.564 37.025ZM154.272 50.0852C154.417 52.4401 153.871 54.786 152.703 56.8357C152.278 57.5316 151.676 58.1029 150.96 58.4923C150.243 58.8817 149.437 59.0752 148.622 59.0535C147.751 59.1114 146.881 58.9425 146.095 58.5637C145.309 58.1851 144.635 57.6091 144.138 56.8921C142.93 54.6841 142.386 52.1738 142.573 49.6637C142.619 44.0347 144.558 41.2985 148.496 41.2985C149.318 41.263 150.135 41.4378 150.871 41.8063C151.606 42.1745 152.235 42.7242 152.699 43.4033C153.884 45.4196 154.431 47.7469 154.268 50.0797L154.272 50.0852Z" fill="#707780"/>
<path d="M177.254 35.0229C175.403 34.9476 173.558 35.2818 171.852 36.0016C170.145 36.7215 168.618 37.8092 167.381 39.1871C164.861 42.28 163.576 46.1966 163.774 50.1811C163.55 54.2483 164.926 58.2416 167.608 61.3072C169.006 62.6931 170.679 63.77 172.519 64.4683C174.359 65.1669 176.325 65.4714 178.29 65.3621C181.838 65.4497 185.336 64.5193 188.371 62.6805L188.724 62.4531L187.576 56.475L186.844 56.8979C184.336 58.3888 181.476 59.1841 178.558 59.2021C177.624 59.2592 176.688 59.1142 175.815 58.7775C174.942 58.4408 174.151 57.9199 173.496 57.2506C172.304 55.8532 171.632 54.0858 171.596 52.249H189.721V51.6285C189.721 51.3252 189.725 50.855 189.734 50.218C189.742 49.5809 189.746 49.1108 189.746 48.8075C189.914 45.1937 188.75 41.644 186.476 38.8309C185.319 37.5488 183.892 36.5415 182.296 35.8826C180.7 35.2238 178.977 34.93 177.254 35.0229ZM182.366 46.8208H171.737C171.837 45.2619 172.448 43.7796 173.474 42.602C173.96 42.0851 174.551 41.6767 175.206 41.4032C175.861 41.13 176.567 40.9978 177.276 41.0153C177.981 40.9752 178.685 41.0995 179.333 41.3786C179.981 41.6575 180.555 42.0836 181.011 42.6232C181.906 43.8382 182.38 45.3114 182.366 46.8208Z" fill="#707780"/>
<path d="M216.228 38.0372C215.268 36.9963 214.086 36.1847 212.77 35.6622C211.454 35.1398 210.038 34.92 208.625 35.019C205.31 35.0574 202.133 36.3536 199.737 38.6455L199.135 35.703H192.789V64.8346H200.512V50.6391C200.457 48.6699 200.604 46.7002 200.951 44.7612C201.467 43.7392 202.262 42.8836 203.243 42.293C204.303 41.623 205.533 41.2717 206.787 41.2811C207.401 41.2036 208.025 41.2912 208.594 41.5351C209.163 41.7791 209.656 42.1702 210.024 42.6687C210.756 44.1281 211.091 45.7545 210.997 47.3845V64.8346H218.754V46.5788C218.95 43.5223 218.055 40.4954 216.228 38.0372Z" fill="#707780"/>
<path d="M228.032 77.5994L227.66 73.7683H232.727C233.959 73.7833 235.19 73.6811 236.402 73.4635C237.329 73.3052 238.216 72.9641 239.01 72.4602C239.655 72.0412 240.225 71.5182 240.699 70.9124C241.173 70.2507 241.507 69.5 241.681 68.7051C241.901 67.8217 242.05 66.922 242.128 66.0149C242.202 65.1275 242.24 64.0408 242.24 62.7551V60.2869C241.347 61.6447 240.169 62.7918 238.788 63.6489C237.262 64.4895 235.535 64.8971 233.795 64.8282C232.318 64.8437 230.853 64.5631 229.486 64.0031C228.241 63.5012 227.109 62.7548 226.157 61.8081C225.236 60.8696 224.457 59.8003 223.846 58.635C223.218 57.4596 222.75 56.2057 222.455 54.9062C222.167 53.6334 222.021 52.3327 222.02 51.0276C222.003 49.1251 222.25 47.2294 222.753 45.3948C223.207 43.7419 223.942 42.1793 224.925 40.7758C225.899 39.4118 227.203 38.3165 228.714 37.5919C230.393 36.7971 232.234 36.4018 234.091 36.4371C235.715 36.4007 237.323 36.764 238.774 37.4949C240.203 38.2831 241.431 39.3902 242.363 40.73V37.0277H246.418V62.8572C246.418 64.0408 246.389 65.0768 246.331 65.9654C246.258 66.9594 246.117 67.9472 245.908 68.922C245.724 69.8864 245.42 70.824 245.002 71.7129C244.573 72.5616 244.035 73.3505 243.401 74.0592C242.713 74.8467 241.877 75.4928 240.942 75.9615C239.816 76.5023 238.627 76.8986 237.402 77.1411C235.836 77.4608 234.24 77.6137 232.642 77.5977L228.032 77.5994ZM234.415 61.2336C235.691 61.2614 236.957 61.001 238.118 60.472C239.123 60.0112 239.982 59.2831 240.602 58.3669C241.208 57.4485 241.657 56.4356 241.931 55.3697C242.231 54.1924 242.377 52.9813 242.366 51.7663V49.7107C242.377 48.4491 242.227 47.1913 241.919 45.9679C241.642 44.8723 241.175 43.8335 240.54 42.8986C239.911 41.9886 239.054 41.259 238.056 40.7829C236.926 40.2544 235.689 39.9937 234.442 40.0213C233.367 40.0065 232.302 40.2318 231.325 40.6805C230.437 41.0842 229.648 41.6777 229.014 42.4188C228.384 43.1792 227.866 44.025 227.475 44.9311C227.06 45.8611 226.756 46.8361 226.568 47.8367C226.386 48.8156 226.295 49.8096 226.295 50.8056C226.295 51.7857 226.395 52.7632 226.593 53.7232C226.794 54.6977 227.111 55.6447 227.536 56.5441C227.938 57.4148 228.465 58.2227 229.1 58.9417C229.741 59.6484 230.521 60.2145 231.392 60.6042C232.342 61.0325 233.374 61.2472 234.415 61.2336Z" fill="#707780"/>
<path d="M263.041 36.7746C263.723 36.77 264.403 36.8212 265.077 36.9279L264.927 40.8347C264.272 40.7102 263.608 40.6422 262.94 40.6319C261.875 40.5969 260.814 40.8005 259.836 41.2276C258.859 41.6544 257.988 42.2942 257.289 43.1001C255.822 44.798 255.046 46.9854 255.115 49.2283V64.8571H250.967C250.951 47.7738 250.942 38.4964 250.942 37.0249H254.394L254.79 42.0229C255.689 40.4982 256.92 39.1968 258.394 38.2167C259.763 37.2809 261.382 36.7785 263.041 36.7746Z" fill="#707780"/>
<path d="M290.834 50.9322C291.009 54.722 289.808 58.447 287.457 61.424C286.31 62.7636 284.873 63.8225 283.253 64.5196C281.633 65.2167 279.876 65.5335 278.113 65.4454C276.383 65.5153 274.66 65.186 273.077 64.4827C271.494 63.7794 270.096 62.7215 268.986 61.3903C266.78 58.3461 265.594 54.6821 265.596 50.9223C265.599 47.1628 266.79 43.5001 268.998 40.4583C270.15 39.1244 271.59 38.0701 273.207 37.3754C274.827 36.6808 276.582 36.3641 278.342 36.4494C280.077 36.3669 281.808 36.687 283.398 37.3847C284.988 38.0823 286.396 39.1387 287.511 40.4709C289.828 43.4521 291.007 47.1609 290.834 50.9322ZM269.899 51.0082C269.756 53.8134 270.509 56.591 272.048 58.9415C272.759 59.9239 273.707 60.7116 274.802 61.2325C275.898 61.7534 277.106 61.9907 278.317 61.9227C279.511 61.9926 280.703 61.7566 281.778 61.2369C282.854 60.7173 283.78 59.9316 284.466 58.9541C285.823 56.5024 286.534 53.7477 286.539 50.946C286.544 48.1445 285.84 45.3876 284.491 42.9319C283.733 42.0103 282.78 41.2694 281.7 40.7626C280.619 40.2558 279.44 39.9958 278.249 40.0017C277.055 40.0079 275.878 40.2799 274.802 40.7975C273.729 41.3154 272.784 42.0662 272.036 42.9954C270.502 45.377 269.756 48.1792 269.899 51.0082Z" fill="#707780"/>
<path d="M301.173 64.8594L290.615 37.027H295.061L301.072 53.569L303.556 60.6211C304.117 58.8111 304.895 56.4769 305.889 53.6185C307.147 50.0161 309.101 44.485 311.75 37.0251H316.171L305.69 64.8577L301.173 64.8594Z" fill="#707780"/>
<path d="M328.84 65.4446C327.095 65.5307 325.352 65.2297 323.738 64.5631C322.123 63.8965 320.673 62.8809 319.496 61.5888C317.084 58.6189 315.866 54.8548 316.082 51.0337C315.907 47.256 317.079 43.5388 319.386 40.5421C320.427 39.2412 321.751 38.1957 323.258 37.4855C324.764 36.7753 326.413 36.4194 328.08 36.445C329.601 36.38 331.115 36.6653 332.508 37.2788C333.901 37.8923 335.137 38.8176 336.114 39.9834C338.204 42.6768 339.258 46.0306 339.083 49.4347C339.083 49.638 339.078 50.01 339.071 50.5505C339.061 51.0913 339.058 51.4805 339.058 51.7178H320.355C320.237 54.394 321.089 57.0226 322.751 59.1223C323.531 60.0001 324.496 60.6933 325.576 61.1509C326.657 61.6082 327.826 61.8187 328.998 61.7668C332.038 61.7254 335.016 60.923 337.667 59.4325L338.312 62.858C335.467 64.6057 332.181 65.5031 328.84 65.4446ZM333.025 42.1729C332.422 41.4404 331.654 40.8587 330.785 40.4735C329.916 40.0882 328.971 39.9103 328.021 39.9533C327.039 39.9238 326.064 40.1143 325.165 40.5109C324.267 40.9077 323.469 41.5002 322.829 42.245C321.389 44.0306 320.562 46.2327 320.471 48.5249H334.851C334.999 46.2556 334.354 44.0055 333.02 42.1623L333.025 42.1729Z" fill="#707780"/>
<path d="M345.542 36.5174C345.545 37.1217 345.37 37.7134 345.035 38.2175C344.703 38.7215 344.228 39.1154 343.669 39.3485C343.113 39.5818 342.497 39.6441 341.904 39.5279C341.311 39.4115 340.767 39.1215 340.338 38.6947C339.91 38.268 339.62 37.7237 339.502 37.131C339.383 36.5383 339.442 35.924 339.676 35.3658C339.908 34.8076 340.299 34.3308 340.801 33.996C341.306 33.6611 341.897 33.4832 342.502 33.485C342.901 33.4817 343.297 33.5579 343.666 33.709C344.036 33.8601 344.373 34.0832 344.656 34.3653C344.939 34.6474 345.163 34.9829 345.316 35.3523C345.466 35.7218 345.545 36.1178 345.542 36.5174ZM340.203 36.5174C340.188 36.8301 340.24 37.1423 340.351 37.4352C340.459 37.7282 340.629 37.9958 340.846 38.2221C341.062 38.4485 341.321 38.6287 341.609 38.7525C341.897 38.8761 342.207 38.9403 342.519 38.9416C342.827 38.9381 343.132 38.8724 343.413 38.7486C343.696 38.6248 343.95 38.4452 344.161 38.2206C344.373 37.9961 344.538 37.7312 344.644 37.4419C344.75 37.1526 344.799 36.8447 344.782 36.5367C344.784 36.2358 344.725 35.9374 344.612 35.6589C344.498 35.3803 344.329 35.127 344.117 34.9133C343.905 34.6996 343.654 34.5296 343.376 34.4133C343.098 34.2969 342.8 34.2364 342.5 34.2352C342.199 34.2339 341.902 34.292 341.623 34.4059C341.343 34.52 341.092 34.6876 340.878 34.8995C340.663 35.1115 340.494 35.3635 340.378 35.641C340.26 35.9186 340.201 36.2164 340.198 36.5174H340.203ZM342.03 38.104H341.343V35.0717C341.719 35.0034 342.101 34.9721 342.482 34.9783C342.842 34.9489 343.201 35.0261 343.514 35.2004C343.61 35.2829 343.684 35.3854 343.733 35.5003C343.785 35.6152 343.807 35.7398 343.804 35.8651C343.792 36.0338 343.726 36.194 343.615 36.3214C343.504 36.4488 343.354 36.5362 343.189 36.5702V36.6072C343.337 36.6697 343.467 36.7714 343.563 36.9015C343.657 37.0316 343.716 37.1852 343.73 37.3459C343.76 37.609 343.834 37.8652 343.95 38.104H343.206C343.093 37.8707 343.014 37.6218 342.972 37.3653C342.918 37.0321 342.736 36.8841 342.357 36.8841H342.03V38.104ZM342.047 36.3834H342.374C342.753 36.3834 343.061 36.2547 343.061 35.9391C343.061 35.6623 342.862 35.4772 342.428 35.4772C342.3 35.4741 342.172 35.4865 342.047 35.5142V36.3834Z" fill="#707780"/>
<path d="M46.5127 21.3941C44.3241 18.9377 42.0024 16.6035 39.5576 14.4021L40.4745 58.7941L60.5725 48.6764L61.2777 50.0869L40.5344 61.4808L40.783 73.5027C40.8199 75.2923 40.8128 76.7219 40.8128 76.7219H53.1537C55.6002 76.7195 58.0214 76.2267 60.2742 75.2728C62.527 74.319 64.5659 72.9235 66.2705 71.1684C78.763 58.4027 57.0801 32.709 46.5127 21.3941Z" fill="#707780"/>
<path d="M36.8357 68.19L16.2316 56.8716L16.9367 55.4611L36.8903 65.5104L37.3541 43.0232L27.3508 37.5281L28.0559 36.1176L37.3999 40.8214L37.9463 14.3923C35.5015 16.5938 33.1798 18.928 30.9913 21.3844C20.424 32.6992 -1.16736 58.4866 11.2317 71.1537C12.9363 72.9085 14.9751 74.304 17.228 75.2578C19.4808 76.2117 21.902 76.7044 24.3484 76.7069H36.6892C36.6892 76.7069 36.6892 75.2753 36.7193 73.4877L36.8357 68.19Z" fill="#A6A9AE"/>
</g>
</g>
<defs>
<clipPath id="clip0_942_12593">
<rect width="339.692" height="64" fill="white" transform="translate(6 14)"/>
</clipPath>
</defs>
</svg>
