<svg width="352" height="92" viewBox="0 0 352 92" fill="none" xmlns="http://www.w3.org/2000/svg">
<rect width="168" height="64" transform="translate(92 14)" fill="#707780"/>
<path d="M113.465 39.4387C114.059 39.4387 114.578 39.6517 115.004 40.0742C115.427 40.5 115.639 41.0049 115.639 41.6025C115.639 42.1968 115.427 42.7085 115.004 43.1344C114.578 43.5501 114.035 43.7698 113.438 43.7698C112.84 43.7698 112.349 43.5501 111.927 43.1344C111.501 42.7085 111.288 42.1968 111.288 41.6025C111.288 41.0049 111.501 40.5 111.927 40.0742C112.349 39.6517 112.868 39.4387 113.465 39.4387ZM109.608 37.7798C108.557 38.8411 108.025 40.1085 108.025 41.6094C108.025 43.1069 108.557 44.3744 109.608 45.4357C110.67 46.4901 111.937 47.019 113.438 47.019C114.935 47.019 116.203 46.4901 117.264 45.4357C118.26 44.4395 118.782 43.265 118.844 41.8946C118.851 41.7949 118.851 41.7022 118.851 41.6094V41.4686C118.817 40.0363 118.291 38.8102 117.264 37.7798C116.203 36.7185 114.949 36.1998 113.452 36.1998C111.951 36.1998 110.67 36.7185 109.608 37.7798Z" fill="#A6A9AE" fill-opacity="0.7"/>
<path d="M124.278 39.4387C124.872 39.4387 125.391 39.6517 125.817 40.0742C126.239 40.5 126.452 41.0049 126.452 41.6025C126.452 42.1968 126.239 42.7085 125.817 43.1344C125.391 43.5501 124.848 43.7698 124.25 43.7698C123.653 43.7698 123.162 43.5501 122.739 43.1344C122.313 42.7085 122.1 42.1968 122.1 41.6025C122.1 41.0049 122.313 40.5 122.739 40.0742C123.162 39.6517 123.68 39.4387 124.278 39.4387ZM120.421 37.7798C119.37 38.8411 118.837 40.1085 118.837 41.6094C118.837 43.1069 119.37 44.3744 120.421 45.4357C121.482 46.4901 122.749 47.019 124.25 47.019C125.748 47.019 127.015 46.4901 128.077 45.4357C129.073 44.4395 129.595 43.265 129.656 41.8946C129.663 41.7949 129.663 41.7022 129.663 41.6094V41.4686C129.629 40.0363 129.103 38.8102 128.077 37.7798C127.015 36.7185 125.762 36.1998 124.264 36.1998C122.763 36.1998 121.482 36.7185 120.421 37.7798Z" fill="#A6A9AE" fill-opacity="0.7"/>
<path d="M135.211 39.4593C135.815 39.4593 136.341 39.6517 136.767 40.0774C137.193 40.5 137.402 41.0048 137.402 41.6025C137.402 42.2001 137.193 42.7085 136.767 43.1344C136.341 43.5499 135.815 43.7697 135.211 43.7697C134.606 43.7697 134.112 43.5499 133.689 43.1344C133.264 42.7085 133.051 42.2001 133.051 41.6025C133.051 41.0048 133.264 40.5 133.689 40.0774C134.112 39.6517 134.606 39.4593 135.211 39.4593ZM131.374 37.7797C130.313 38.8411 129.788 40.1085 129.788 41.6094C129.788 43.1069 130.313 44.3742 131.374 45.4355C132.436 46.4899 133.72 47.0224 135.211 47.0224C136.702 47.0224 137.972 46.4899 139.027 45.4355C140.023 44.4395 140.542 43.2648 140.607 41.8944C140.607 41.7949 140.614 41.7021 140.614 41.6094V41.4685C140.579 40.0363 140.057 38.8101 139.027 37.7797C137.972 36.7184 136.702 36.1998 135.211 36.1998C133.72 36.1998 132.436 36.7184 131.374 37.7797Z" fill="#A6A9AE" fill-opacity="0.7"/>
<path d="M113.438 31.8837C114.035 31.8837 114.578 32.0933 115.001 32.5192C115.427 32.9451 115.639 33.4466 115.639 34.0442C115.639 34.6418 115.427 35.1603 115.001 35.576C114.578 35.9951 114.035 36.2045 113.438 36.2045C112.84 36.2045 112.349 35.9951 111.923 35.576C111.501 35.1603 111.288 34.6418 111.288 34.0442C111.288 33.4466 111.501 32.9451 111.923 32.5192C112.349 32.0933 112.84 31.8837 113.438 31.8837ZM118.844 34.3362C118.851 34.2365 118.851 34.1437 118.851 34.0511V33.9103C118.817 32.4779 118.291 31.2519 117.264 30.2248C116.203 29.1635 114.935 28.6381 113.438 28.6381C111.937 28.6381 110.67 29.1635 109.608 30.2248C108.554 31.2861 108.025 32.5535 108.025 34.0511C108.025 35.5452 108.554 36.8227 109.608 37.8771C110.67 38.9317 111.937 39.4434 113.438 39.4434C114.935 39.4434 116.203 38.9317 117.264 37.8771C118.26 36.8915 118.782 35.7031 118.844 34.3362Z" fill="#A6A9AE" fill-opacity="0.7"/>
<path d="M124.25 31.885C124.848 31.885 125.391 32.0945 125.813 32.5204C126.239 32.9463 126.452 33.4478 126.452 34.0454C126.452 34.643 126.239 35.1617 125.813 35.5772C125.391 35.9962 124.848 36.2058 124.25 36.2058C123.653 36.2058 123.162 35.9962 122.736 35.5772C122.313 35.1617 122.1 34.643 122.1 34.0454C122.1 33.4478 122.313 32.9463 122.736 32.5204C123.162 32.0945 123.653 31.885 124.25 31.885ZM129.656 34.3374C129.663 34.2377 129.663 34.145 129.663 34.0522V33.9114C129.629 32.4791 129.103 31.253 128.077 30.226C127.015 29.1648 125.748 28.6393 124.25 28.6393C122.749 28.6393 121.482 29.1648 120.421 30.226C119.366 31.2874 118.837 32.5548 118.837 34.0522C118.837 35.5463 119.366 36.8241 120.421 37.8785C121.482 38.9329 122.749 39.4446 124.25 39.4446C125.748 39.4446 127.015 38.9329 128.077 37.8785C129.073 36.8927 129.595 35.7044 129.656 34.3374Z" fill="#A6A9AE" fill-opacity="0.7"/>
<path d="M136.754 32.5192C137.18 32.9451 137.39 33.4466 137.39 34.0442C137.39 34.6418 137.18 35.157 136.754 35.576C136.328 35.9951 135.803 36.2045 135.198 36.2045C134.594 36.2045 134.099 35.9951 133.677 35.576C133.251 35.157 133.041 34.6418 133.041 34.0442C133.041 33.4466 133.251 32.9451 133.677 32.5192C134.099 32.0933 134.594 31.8837 135.198 31.8837C135.803 31.8837 136.328 32.0933 136.754 32.5192ZM140.601 34.0511V33.9103C140.567 32.4779 140.045 31.2519 139.014 30.2248C137.96 29.1635 136.689 28.6381 135.198 28.6381C133.708 28.6381 132.423 29.1635 131.362 30.2248C130.301 31.2861 129.775 32.5535 129.775 34.0511C129.775 35.5451 130.301 36.8227 131.362 37.8771C132.423 38.9317 133.708 39.464 135.198 39.464C136.689 39.464 137.96 38.9317 139.014 37.8771C140.01 36.8915 140.529 35.7031 140.594 34.3362C140.594 34.2365 140.601 34.1437 140.601 34.0511Z" fill="#A6A9AE" fill-opacity="0.7"/>
<path d="M189.18 44.5105C189.892 44.5105 190.653 44.1132 191.828 42.8387C191.514 43.8649 191.878 44.5105 192.739 44.5105C193.699 44.5105 194.493 43.5008 195.338 42.4745L198.913 38.1044C199.691 37.1609 200.254 36.5816 200.883 36.5816C201.462 36.5816 201.363 37.2768 200.568 38.2699C199.89 39.1307 195.685 44.3947 195.685 44.3947H197.456L201.793 38.7665C203.084 37.0782 203.978 36.5816 204.458 36.5816C204.707 36.5816 204.773 36.7636 204.773 36.9622C204.773 37.492 204.376 37.9388 203.184 39.4452L199.244 44.378H200.982L205.286 38.7832C206.908 36.6809 207.455 36.5649 207.819 36.5649C208.067 36.5649 208.133 36.7636 208.133 36.9291C208.133 38.2038 204.525 40.8356 204.525 43.2028C204.525 43.898 205.054 44.5105 206.047 44.5105C208.828 44.5105 211.709 38.4686 211.709 35.2241C211.709 32.5094 210.12 31.1852 208.299 31.1852C205.683 31.1852 204.723 32.6419 204.723 33.7012C204.723 34.6283 205.203 35.1083 206.097 35.1083C207.355 35.1083 208.216 33.6848 208.216 33.2708C208.216 33.2048 208.183 33.1881 208.15 33.1716C207.67 34.2972 206.892 34.6779 206.279 34.6779C205.601 34.6779 205.236 34.2972 205.236 33.635C205.236 32.8902 206.047 31.5494 208.133 31.5494C210.07 31.5494 211.212 32.7908 211.212 35.2408C211.212 39.5115 208.365 43.9808 206.263 43.9808C205.766 43.9808 205.634 43.716 205.634 43.4512C205.634 42.7393 206.743 41.68 207.67 40.2729C208.398 39.1638 209.143 38.0713 209.143 37.1112C209.143 36.2836 208.779 35.936 208.183 35.936C207.554 35.936 206.842 36.3828 205.617 37.7072C205.832 36.9126 205.899 35.936 204.889 35.936C204.359 35.936 203.432 36.3168 202.091 37.8396C202.489 36.6147 202.124 35.936 201.297 35.936C200.469 35.936 199.89 36.5318 199.261 37.3264L196.066 41.1833C194.907 42.6068 193.831 44.1132 193.153 44.1132C192.706 44.1132 192.507 43.418 193.252 42.491L198.367 36.0684H196.48L196.066 36.6312C195.983 36.2008 195.652 35.9856 195.238 35.9856C193.881 35.9856 192.193 36.9622 190.935 38.2038C189.892 39.2465 188.965 40.786 188.518 41.9448C187.856 42.8056 186.747 44.1132 185.919 44.1132C185.373 44.1132 185.24 43.418 185.985 42.491L191.1 36.0684H189.213C189.213 36.0684 187.078 38.9984 185.671 40.9185C185.29 41.415 184.131 42.8883 183.767 43.2524C183.171 43.8483 182.658 44.1297 182.31 44.1297C181.764 44.1297 181.632 43.4345 182.376 42.5075C183.039 41.68 190.388 32.4102 190.388 32.4102H188.534C188.534 32.4102 183.8 38.6507 182.062 40.9185C181.681 41.415 180.523 42.8883 180.158 43.2524C179.563 43.8483 179.049 44.1297 178.702 44.1297C178.155 44.1297 178.023 43.4345 178.768 42.5075C179.43 41.68 186.78 32.4102 186.78 32.4102H184.926C184.926 32.4102 179.612 39.4121 178.189 41.2827V41.2992L178.155 41.3323C178.139 41.3488 178.122 41.3819 178.106 41.3985C177.642 42.0441 176.119 44.1297 175.093 44.1297C174.547 44.1297 174.415 43.4345 175.159 42.5075L180.274 36.0849H178.387C178.387 36.0849 175.954 39.4286 174.563 41.2992C173.19 43.1862 173.769 44.5436 174.994 44.5436C176.07 44.5436 176.782 43.716 177.361 43.0372C177.245 43.9643 177.758 44.5436 178.553 44.5436C179.629 44.5436 180.374 43.716 180.953 43.0372C180.837 43.9643 181.35 44.5436 182.145 44.5436C183.254 44.5436 184.015 43.6662 184.595 42.9876C184.446 43.9476 184.975 44.5436 185.803 44.5436C186.73 44.5436 187.624 43.6828 188.22 42.9876C188.187 43.6828 188.352 44.5105 189.18 44.5105ZM192.788 37.9057C193.964 36.7305 194.642 36.5816 194.891 36.5816C195.139 36.5816 195.255 36.7305 195.255 37.0284C195.255 37.972 192.06 42.011 191.266 42.8056C190.868 43.2028 190.09 43.898 189.445 43.898C188.187 43.898 190.521 40.19 192.788 37.9057ZM182.459 33.304C182.658 32.7577 182.393 32.3273 181.88 32.3273C181.367 32.3273 180.804 32.7744 180.605 33.304C180.407 33.8337 180.671 34.2806 181.185 34.2806C181.698 34.2972 182.277 33.8502 182.459 33.304ZM192.027 34.2972C192.54 34.2972 193.103 33.8502 193.302 33.3206C193.5 32.7744 193.235 32.344 192.722 32.344C192.209 32.344 191.646 32.7908 191.448 33.3206C191.266 33.8502 191.514 34.2972 192.027 34.2972ZM164.201 46.5465C160.841 46.5465 158.871 44.5105 158.391 41.7627C158.557 41.8123 158.739 41.8289 158.921 41.8289C159.335 41.8289 159.947 41.746 160.609 41.415C160.907 41.6468 161.271 41.7792 161.702 41.7792C165.194 41.7792 167.76 35.2408 165.559 33.4033C167.396 32.5592 169.349 32.2612 170.723 33.0556C170.375 33.3206 170.028 33.602 169.713 33.9C167.065 36.5484 165.84 41.9281 163.837 44.0966C163.622 44.0305 163.39 43.9643 163.092 43.9643C162.695 43.9643 162.331 44.1464 162.281 44.378C162.231 44.6097 162.513 44.792 162.91 44.792C163.208 44.792 163.523 44.7257 163.903 44.4774C164.118 44.4939 164.334 44.5105 164.549 44.5105C165.36 44.5105 166.121 44.1628 167.015 43.2689C169.333 40.9515 171.336 36.0684 172.693 35.1249C171.418 37.2768 170.044 42.1268 168.191 44.0966C167.975 44.0139 167.76 43.9312 167.479 43.9312C167.081 43.9312 166.717 44.1132 166.668 44.3449C166.618 44.5768 166.899 44.7588 167.297 44.7588C167.611 44.7588 167.926 44.676 168.339 44.4276C168.555 44.4939 168.819 44.5436 169.084 44.5436C169.763 44.5436 170.558 44.1628 171.236 43.4841C173.686 41.0344 176.782 35.9691 179.414 33.3537C180.374 32.3936 182.079 31.0859 184.346 31.0859C186.399 31.0859 187.756 32.344 187.756 32.344C187.806 32.2942 187.789 32.2115 187.674 32.0956C186.564 30.9865 185.224 30.5065 184.015 30.5065C182.807 30.5065 180.771 30.9204 178.288 33.4033C175.656 36.0353 172.66 41.3158 170.69 43.2856C169.862 44.1132 169.333 44.2953 168.902 44.2953C168.803 44.2953 168.687 44.2787 168.588 44.2456C168.919 44.0139 169.299 43.6662 169.78 43.1862C173.007 39.9584 173.736 34.0489 175.523 32.2612C175.391 32.1288 174.514 32.344 172.974 33.8833C170.491 36.3664 169.084 40.7033 166.635 43.1531C165.873 43.9145 165.062 44.2291 164.565 44.2291C164.466 44.2291 164.367 44.2126 164.267 44.196C164.582 43.9643 164.946 43.6332 165.393 43.1862C167.197 41.3819 169.134 35.936 171.236 33.2544C173.587 33.1385 173.554 32.0294 172.809 32.0294C172.378 32.0294 171.766 32.3108 171.17 32.7081C170.574 32.1784 169.564 31.7977 168.191 31.7977C166.717 31.7977 165.31 32.2115 164.085 32.8902C161.387 32.8902 157.663 35.7374 157.663 40.5544C157.663 40.6867 157.663 40.8192 157.679 40.9515C157.034 40.5212 156.454 39.7267 156.454 38.4024C156.454 34.5289 162.347 29.8278 169.299 29.8278C172.08 29.8278 174.911 30.7548 176.666 32.0294L176.765 31.9136C175.689 30.8376 173.057 29.1492 168.488 29.1492C162.48 29.1492 155.875 32.675 155.875 38.3859C155.875 39.9419 156.802 40.9681 157.729 41.4648C158.159 44.9078 160.99 46.9603 163.887 46.9603H242.68V46.5134H164.201V46.5465ZM165.128 33.6185C167.495 35.1083 164.847 41.3819 161.867 41.3819C161.536 41.3819 161.271 41.2992 161.056 41.1667C162.033 40.5212 163.059 39.2963 163.705 37.012L163.572 36.9622C163.076 38.4686 162.033 40.0742 160.758 40.8854C160.394 40.455 160.278 39.7928 160.278 39.1804C160.262 37.3099 162.529 34.9428 165.128 33.6185ZM158.275 40.4219C158.275 37.3926 160.891 33.7675 163.407 33.3371C161.205 34.7937 159.715 37.0616 159.715 39.0313C159.715 39.859 159.914 40.6204 160.328 41.1337C159.914 41.3323 159.5 41.4316 159.053 41.4316C158.855 41.4316 158.606 41.3985 158.325 41.2992C158.292 41.0177 158.275 40.7198 158.275 40.4219Z" fill="#A6A9AE"/>
<path d="M227.52 31.433H223.763V44.5762H227.52V31.433Z" fill="#A6A9AE"/>
<path d="M236.263 44.5762H242.669V40.5207H240.086V31.433H236.263V44.5762Z" fill="#A6A9AE"/>
<path d="M228.912 44.5762H235.335V40.5207H232.736V31.433H228.912V44.5762Z" fill="#A6A9AE"/>
<path d="M218.612 31.433V36.0514H216.758V31.433H213V44.5762H216.758V39.3619H218.612V44.5762H222.369V31.433H218.612Z" fill="#A6A9AE"/>
<path d="M148.333 28.7128V47.1036" stroke="#A6A9AE" stroke-width="0.367816"/>
<path d="M111.125 56.4983V56.5161C111.876 56.5954 112.396 57.1252 112.396 57.9284C112.396 58.8553 111.717 59.5173 110.596 59.5173H107.797V53.6029H110.428C111.558 53.6029 112.193 54.2209 112.193 55.1212C112.193 55.8628 111.717 56.4101 111.125 56.4983ZM108.247 53.9913V56.3482H110.525C111.266 56.3482 111.77 55.8628 111.77 55.1389C111.77 54.4503 111.266 53.9913 110.392 53.9913H108.247ZM108.247 59.129H110.56C111.408 59.129 111.946 58.6258 111.946 57.902C111.946 57.1692 111.372 56.7191 110.551 56.7191H108.247V59.129ZM113.949 53.55C114.143 53.55 114.284 53.7001 114.284 53.8853C114.284 54.0708 114.143 54.2121 113.949 54.2121C113.746 54.2121 113.604 54.0708 113.604 53.8853C113.604 53.7001 113.746 53.55 113.949 53.55ZM114.16 59.5173H113.737V55.2007H114.16V59.5173ZM119.773 55.2007V59.2084C119.764 60.4266 118.925 61.1946 117.672 61.1946C116.56 61.1946 115.862 60.7356 115.544 59.9852L115.924 59.7557C116.215 60.409 116.736 60.7973 117.672 60.7973C118.669 60.7973 119.34 60.153 119.349 59.1642V58.3433C118.996 58.926 118.369 59.2701 117.584 59.2701C116.427 59.2701 115.438 58.4316 115.438 57.1781C115.438 55.9333 116.427 55.1036 117.584 55.1036C118.369 55.1036 118.996 55.4391 119.349 56.0217V55.2007H119.773ZM117.636 58.8906C118.537 58.8906 119.349 58.2285 119.349 57.1781C119.349 56.1364 118.537 55.4831 117.636 55.4831C116.665 55.4831 115.853 56.1364 115.853 57.1781C115.853 58.2285 116.665 58.8906 117.636 58.8906ZM125.297 55.2007V59.2084C125.288 60.4266 124.449 61.1946 123.196 61.1946C122.083 61.1946 121.386 60.7356 121.068 59.9852L121.448 59.7557C121.739 60.409 122.26 60.7973 123.196 60.7973C124.193 60.7973 124.864 60.153 124.873 59.1642V58.3433C124.52 58.926 123.893 59.2701 123.107 59.2701C121.951 59.2701 120.962 58.4316 120.962 57.1781C120.962 55.9333 121.951 55.1036 123.107 55.1036C123.893 55.1036 124.52 55.4391 124.873 56.0217V55.2007H125.297ZM123.16 58.8906C124.061 58.8906 124.873 58.2285 124.873 57.1781C124.873 56.1364 124.061 55.4831 123.16 55.4831C122.189 55.4831 121.377 56.1364 121.377 57.1781C121.377 58.2285 122.189 58.8906 123.16 58.8906ZM130.82 57.2399V57.3988H126.91C126.927 58.5551 127.801 59.2349 128.666 59.2349C129.417 59.2349 130.035 58.8994 130.344 58.1314L130.723 58.2197C130.397 59.129 129.655 59.6145 128.666 59.6145C127.563 59.6145 126.486 58.7671 126.486 57.3722C126.486 55.9687 127.554 55.0948 128.719 55.0948C129.902 55.0948 130.776 55.9599 130.82 57.2399ZM128.719 55.4831C127.898 55.4831 127.051 56.0658 126.927 57.0633H130.388C130.282 56.057 129.593 55.4831 128.719 55.4831ZM134.28 55.1653C134.377 55.1653 134.456 55.1653 134.58 55.1919L134.536 55.598C134.447 55.5802 134.359 55.5802 134.28 55.5802C133.088 55.5802 132.444 56.569 132.444 57.7165V59.5173H132.011V55.2007H132.444V56.4101C132.788 55.6951 133.424 55.1653 134.28 55.1653ZM134.69 60.6826H134.346L134.955 58.3786H135.476V58.4052L134.69 60.6826ZM140.661 53.5058C141.843 53.5058 142.62 54.1591 142.815 55.086L142.373 55.1919C142.223 54.4061 141.579 53.8941 140.643 53.8941C139.76 53.8941 139.116 54.3709 139.116 55.1301C139.116 55.7745 139.557 56.0217 140.166 56.1629L141.464 56.4719C142.205 56.6308 142.912 56.9661 142.912 57.9284C142.912 58.9612 142.073 59.6145 140.802 59.6145C139.531 59.6145 138.56 58.9524 138.427 57.8578L138.904 57.7519C139.01 58.67 139.796 59.2172 140.837 59.2172C141.844 59.2172 142.47 58.7141 142.47 57.9461C142.47 57.2841 142.091 57.0457 141.367 56.878L139.999 56.5601C139.213 56.3748 138.639 55.9863 138.639 55.1389C138.639 54.1413 139.469 53.5058 140.661 53.5058ZM146.234 58.9172L146.402 59.2701C146.093 59.5085 145.811 59.6145 145.458 59.6145C144.69 59.6145 144.169 59.129 144.169 58.2991V55.5714H143.224V55.2007H144.169V53.7794H144.601V55.2007H146.217V55.5714H144.601V58.2727C144.601 58.8553 144.954 59.2084 145.484 59.2084C145.758 59.2084 146.014 59.1025 146.234 58.9172ZM149.554 55.1653C149.651 55.1653 149.731 55.1653 149.854 55.1919L149.81 55.598C149.722 55.5802 149.633 55.5802 149.554 55.5802C148.362 55.5802 147.718 56.569 147.718 57.7165V59.5173H147.285V55.2007H147.718V56.4101C148.062 55.6951 148.698 55.1653 149.554 55.1653ZM152.464 55.1036C153.744 55.1036 154.733 56.0481 154.733 57.3546C154.733 58.6612 153.744 59.6145 152.464 59.6145C151.184 59.6145 150.196 58.6612 150.196 57.3546C150.196 56.0481 151.184 55.1036 152.464 55.1036ZM152.464 59.2261C153.497 59.2261 154.309 58.4404 154.309 57.3546C154.309 56.2601 153.497 55.4831 152.464 55.4831C151.432 55.4831 150.619 56.2601 150.619 57.3546C150.619 58.4404 151.432 59.2261 152.464 59.2261ZM158.134 55.0948C159.176 55.0948 159.873 55.8452 159.873 56.9485V59.5173H159.441V57.0103C159.441 56.1012 158.894 55.5009 158.081 55.5009C157.049 55.5009 156.36 56.1981 156.36 57.3546V59.5173H155.927V55.2007H156.36V56.1188C156.696 55.4743 157.313 55.0948 158.134 55.0948ZM165.302 55.2007V59.2084C165.293 60.4266 164.454 61.1946 163.201 61.1946C162.088 61.1946 161.391 60.7356 161.073 59.9852L161.453 59.7557C161.744 60.409 162.265 60.7973 163.201 60.7973C164.198 60.7973 164.869 60.153 164.878 59.1642V58.3433C164.525 58.926 163.898 59.2701 163.112 59.2701C161.956 59.2701 160.967 58.4316 160.967 57.1781C160.967 55.9333 161.956 55.1036 163.112 55.1036C163.898 55.1036 164.525 55.4391 164.878 56.0217V55.2007H165.302ZM163.165 58.8906C164.066 58.8906 164.878 58.2285 164.878 57.1781C164.878 56.1364 164.066 55.4831 163.165 55.4831C162.194 55.4831 161.382 56.1364 161.382 57.1781C161.382 58.2285 162.194 58.8906 163.165 58.8906ZM170.826 57.2399V57.3988H166.915C166.933 58.5551 167.807 59.2349 168.672 59.2349C169.422 59.2349 170.04 58.8994 170.349 58.1314L170.728 58.2197C170.402 59.129 169.66 59.6145 168.672 59.6145C167.568 59.6145 166.491 58.7671 166.491 57.3722C166.491 55.9687 167.559 55.0948 168.725 55.0948C169.907 55.0948 170.781 55.9599 170.826 57.2399ZM168.725 55.4831C167.904 55.4831 167.056 56.0658 166.933 57.0633H170.393C170.287 56.057 169.599 55.4831 168.725 55.4831ZM174.285 55.1653C174.382 55.1653 174.462 55.1653 174.585 55.1919L174.541 55.598C174.453 55.5802 174.364 55.5802 174.285 55.5802C173.093 55.5802 172.449 56.569 172.449 57.7165V59.5173H172.016V55.2007H172.449V56.4101C172.793 55.6951 173.429 55.1653 174.285 55.1653ZM174.696 60.6826H174.351L174.96 58.3786H175.481V58.4052L174.696 60.6826ZM182.122 56.4983V56.5161C182.873 56.5954 183.394 57.1252 183.394 57.9284C183.394 58.8553 182.714 59.5173 181.593 59.5173H178.794V53.6029H181.425C182.555 53.6029 183.191 54.2209 183.191 55.1212C183.191 55.8628 182.714 56.4101 182.122 56.4983ZM179.245 53.9913V56.3482H181.522C182.264 56.3482 182.767 55.8628 182.767 55.1389C182.767 54.4503 182.264 53.9913 181.39 53.9913H179.245ZM179.245 59.129H181.557C182.405 59.129 182.943 58.6258 182.943 57.902C182.943 57.1692 182.37 56.7191 181.549 56.7191H179.245V59.129ZM188.565 57.2399V57.3988H184.655C184.672 58.5551 185.546 59.2349 186.411 59.2349C187.162 59.2349 187.779 58.8994 188.088 58.1314L188.468 58.2197C188.141 59.129 187.4 59.6145 186.411 59.6145C185.308 59.6145 184.231 58.7671 184.231 57.3722C184.231 55.9687 185.299 55.0948 186.464 55.0948C187.647 55.0948 188.521 55.9599 188.565 57.2399ZM186.464 55.4831C185.643 55.4831 184.796 56.0658 184.672 57.0633H188.133C188.027 56.057 187.338 55.4831 186.464 55.4831ZM191.91 58.9172L192.078 59.2701C191.769 59.5085 191.486 59.6145 191.133 59.6145C190.365 59.6145 189.844 59.129 189.844 58.2991V55.5714H188.9V55.2007H189.844V53.7794H190.277V55.2007H191.892V55.5714H190.277V58.2727C190.277 58.8553 190.63 59.2084 191.159 59.2084C191.433 59.2084 191.689 59.1025 191.91 58.9172ZM195.115 58.9172L195.282 59.2701C194.973 59.5085 194.691 59.6145 194.338 59.6145C193.57 59.6145 193.049 59.129 193.049 58.2991V55.5714H192.104V55.2007H193.049V53.7794H193.482V55.2007H195.097V55.5714H193.482V58.2727C193.482 58.8553 193.835 59.2084 194.364 59.2084C194.638 59.2084 194.894 59.1025 195.115 58.9172ZM199.921 57.2399V57.3988H196.01C196.028 58.5551 196.902 59.2349 197.767 59.2349C198.517 59.2349 199.135 58.8994 199.444 58.1314L199.824 58.2197C199.497 59.129 198.756 59.6145 197.767 59.6145C196.664 59.6145 195.587 58.7671 195.587 57.3722C195.587 55.9687 196.655 55.0948 197.82 55.0948C199.003 55.0948 199.877 55.9599 199.921 57.2399ZM197.82 55.4831C196.999 55.4831 196.152 56.0658 196.028 57.0633H199.488C199.383 56.057 198.694 55.4831 197.82 55.4831ZM203.38 55.1653C203.478 55.1653 203.557 55.1653 203.681 55.1919L203.636 55.598C203.548 55.5802 203.46 55.5802 203.38 55.5802C202.189 55.5802 201.544 56.569 201.544 57.7165V59.5173H201.112V55.2007H201.544V56.4101C201.889 55.6951 202.524 55.1653 203.38 55.1653ZM211.212 54.009H208.908V59.5173H208.449V54.009H206.145V53.6029H211.212V54.009ZM213.27 55.1036C214.55 55.1036 215.538 56.0481 215.538 57.3546C215.538 58.6612 214.55 59.6145 213.27 59.6145C211.99 59.6145 211.001 58.6612 211.001 57.3546C211.001 56.0481 211.99 55.1036 213.27 55.1036ZM213.27 59.2261C214.302 59.2261 215.115 58.4404 215.115 57.3546C215.115 56.2601 214.302 55.4831 213.27 55.4831C212.237 55.4831 211.425 56.2601 211.425 57.3546C211.425 58.4404 212.237 59.2261 213.27 59.2261ZM220.652 55.2007V59.2084C220.643 60.4266 219.805 61.1946 218.551 61.1946C217.439 61.1946 216.741 60.7356 216.424 59.9852L216.803 59.7557C217.095 60.409 217.615 60.7973 218.551 60.7973C219.549 60.7973 220.219 60.153 220.228 59.1642V58.3433C219.875 58.926 219.248 59.2701 218.463 59.2701C217.306 59.2701 216.318 58.4316 216.318 57.1781C216.318 55.9333 217.306 55.1036 218.463 55.1036C219.248 55.1036 219.875 55.4391 220.228 56.0217V55.2007H220.652ZM218.516 58.8906C219.416 58.8906 220.228 58.2285 220.228 57.1781C220.228 56.1364 219.416 55.4831 218.516 55.4831C217.545 55.4831 216.733 56.1364 216.733 57.1781C216.733 58.2285 217.545 58.8906 218.516 58.8906ZM226.176 57.2399V57.3988H222.265C222.283 58.5551 223.157 59.2349 224.022 59.2349C224.772 59.2349 225.39 58.8994 225.699 58.1314L226.079 58.2197C225.752 59.129 225.011 59.6145 224.022 59.6145C222.919 59.6145 221.842 58.7671 221.842 57.3722C221.842 55.9687 222.91 55.0948 224.075 55.0948C225.258 55.0948 226.132 55.9599 226.176 57.2399ZM224.075 55.4831C223.254 55.4831 222.407 56.0658 222.283 57.0633H225.743C225.637 56.057 224.949 55.4831 224.075 55.4831ZM229.521 58.9172L229.688 59.2701C229.379 59.5085 229.097 59.6145 228.744 59.6145C227.976 59.6145 227.455 59.129 227.455 58.2991V55.5714H226.51V55.2007H227.455V53.7794H227.887V55.2007H229.503V55.5714H227.887V58.2727C227.887 58.8553 228.241 59.2084 228.77 59.2084C229.044 59.2084 229.3 59.1025 229.521 58.9172ZM232.77 55.0948C233.811 55.0948 234.509 55.8452 234.509 56.9485V59.5173H234.076V57.0103C234.076 56.1012 233.529 55.5009 232.717 55.5009C231.684 55.5009 230.995 56.1981 230.995 57.3546V59.5173H230.563V53.1615H230.995V56.1188C231.331 55.4743 231.949 55.0948 232.77 55.0948ZM239.937 57.2399V57.3988H236.026C236.044 58.5551 236.918 59.2349 237.783 59.2349C238.533 59.2349 239.151 58.8994 239.46 58.1314L239.84 58.2197C239.513 59.129 238.772 59.6145 237.783 59.6145C236.679 59.6145 235.603 58.7671 235.603 57.3722C235.603 55.9687 236.671 55.0948 237.836 55.0948C239.019 55.0948 239.893 55.9599 239.937 57.2399ZM237.836 55.4831C237.015 55.4831 236.167 56.0658 236.044 57.0633H239.504C239.398 56.057 238.71 55.4831 237.836 55.4831ZM243.396 55.1653C243.493 55.1653 243.573 55.1653 243.696 55.1919L243.652 55.598C243.564 55.5802 243.476 55.5802 243.396 55.5802C242.205 55.5802 241.56 56.569 241.56 57.7165V59.5173H241.128V55.2007H241.56V56.4101C241.904 55.6951 242.54 55.1653 243.396 55.1653Z" fill="#A6A9AE"/>
</svg>
