<svg width="105" height="40" viewBox="0 0 105 40" fill="none" xmlns="http://www.w3.org/2000/svg">
<g opacity="0.55">
<path d="M44.4452 37.1765H43.4312V36.5509H46.2029V37.1765H45.1891V39.9337H44.4453L44.4452 37.1765Z" fill="#231F20"/>
<mask id="mask0_6078_13694" style="mask-type:luminance" maskUnits="userSpaceOnUse" x="38" y="0" width="28" height="40">
<path d="M38.2536 40H65.7502V-1.41262e-06H38.2536V40Z" fill="white"/>
</mask>
<g mask="url(#mask0_6078_13694)">
<path d="M46.4017 36.5509H47.0743V37.8255H47.0888C47.1738 37.6866 47.2831 37.5836 47.4158 37.5173C47.5485 37.4509 47.6777 37.4177 47.8042 37.4177C47.9839 37.4177 48.1319 37.4426 48.2473 37.4917C48.362 37.54 48.4533 37.6085 48.5196 37.6949C48.586 37.782 48.6323 37.8878 48.6593 38.0122C48.6862 38.1373 48.6994 38.2755 48.6994 38.4269V39.9337H48.0268V38.5499C48.0268 38.3481 47.9943 38.1974 47.9293 38.0979C47.8651 37.9983 47.7538 37.9486 47.5955 37.9486C47.4123 37.9486 47.2796 38.0032 47.1973 38.1117C47.1158 38.2209 47.0743 38.3999 47.0743 38.6495V39.9337H46.4017V36.5509ZM48.9979 37.4842H49.6373V37.939H49.6469C49.678 37.863 49.7209 37.7932 49.7748 37.7282C49.8287 37.6632 49.8903 37.6079 49.9594 37.5623C50.0292 37.5167 50.1038 37.4808 50.1847 37.4559C50.2649 37.4303 50.3464 37.4179 50.4287 37.4179C50.4792 37.4179 50.5282 37.4255 50.5752 37.4414V38.0669C50.5441 38.0607 50.5061 38.0551 50.4619 38.0503C50.4176 38.0455 50.3748 38.0434 50.334 38.0434C50.2103 38.0434 50.1066 38.0634 50.0209 38.1049C49.9359 38.1457 49.8674 38.2017 49.8149 38.2729C49.7631 38.3441 49.7257 38.4277 49.7036 38.5238C49.6815 38.6206 49.6704 38.7222 49.6704 38.8293V39.9332H48.9979V37.4842ZM52.3707 38.4459C52.3389 38.2752 52.283 38.1459 52.2028 38.0574C52.1219 37.969 51.9996 37.9247 51.8357 37.9247C51.7279 37.9247 51.6388 37.9427 51.5676 37.9793C51.4964 38.0153 51.4397 38.0609 51.3975 38.1141C51.3547 38.168 51.3242 38.2247 51.307 38.2848C51.2897 38.345 51.2793 38.3982 51.2765 38.4459H52.3707ZM51.2765 38.8724C51.2862 39.0866 51.3408 39.2442 51.4424 39.3438C51.5434 39.4433 51.6885 39.4931 51.8779 39.4931C52.0141 39.4931 52.1309 39.4592 52.2284 39.3908C52.3265 39.323 52.3866 39.2512 52.4088 39.1751H53.0011C52.9064 39.4661 52.7606 39.6763 52.565 39.8055C52.3694 39.9348 52.1323 39.9998 51.8544 39.9998C51.6616 39.9998 51.4881 39.9679 51.3332 39.905C51.1784 39.8415 51.0478 39.7537 50.9399 39.6396C50.8328 39.5256 50.7498 39.3901 50.6918 39.2325C50.633 39.0742 50.604 38.9007 50.604 38.7113C50.604 38.5281 50.6337 38.3574 50.6939 38.1998C50.754 38.0415 50.839 37.9047 50.9496 37.7899C51.0602 37.6745 51.1922 37.584 51.345 37.5176C51.4984 37.4512 51.6678 37.4181 51.8544 37.4181C52.0632 37.4181 52.2443 37.4581 52.3991 37.5383C52.5539 37.6192 52.6811 37.727 52.7806 37.8632C52.8802 37.9987 52.9521 38.1535 52.9963 38.3277C53.0405 38.5012 53.0557 38.683 53.0433 38.8724H51.2765ZM54.9717 38.4459C54.9399 38.2752 54.8839 38.1459 54.8037 38.0574C54.7228 37.969 54.6005 37.9247 54.436 37.9247C54.3288 37.9247 54.2397 37.9427 54.1685 37.9793C54.0973 38.0153 54.0406 38.0609 53.9977 38.1141C53.9556 38.168 53.9252 38.2247 53.9079 38.2848C53.8906 38.345 53.8802 38.3982 53.8775 38.4459H54.9717ZM53.8775 38.8724C53.8864 39.0866 53.9417 39.2442 54.0433 39.3438C54.1443 39.4433 54.2894 39.4931 54.4788 39.4931C54.615 39.4931 54.7318 39.4592 54.8293 39.3908C54.9274 39.323 54.9876 39.2512 55.0097 39.1751H55.6014C55.5067 39.4661 55.3615 39.6763 55.1659 39.8055C54.9696 39.9348 54.7332 39.9998 54.4553 39.9998C54.2625 39.9998 54.089 39.9679 53.9341 39.905C53.7793 39.8415 53.648 39.7537 53.5408 39.6396C53.4337 39.5256 53.3508 39.3901 53.292 39.2325C53.2339 39.0742 53.2049 38.9007 53.2049 38.7113C53.2049 38.5281 53.2346 38.3574 53.2948 38.1998C53.3542 38.0415 53.4399 37.9047 53.5505 37.7899C53.6611 37.6745 53.7924 37.584 53.9459 37.5176C54.0993 37.4512 54.2687 37.4181 54.4553 37.4181C54.6634 37.4181 54.8452 37.4581 55 37.5383C55.1548 37.6192 55.282 37.727 55.3815 37.8632C55.4811 37.9987 55.553 38.1535 55.5972 38.3277C55.6414 38.5012 55.6566 38.683 55.6442 38.8724H53.8775ZM55.8575 39.2036H56.6013V39.9335H55.8575V39.2036ZM56.9904 37.4846H57.663V39.9335H56.9904V37.4846ZM57.663 37.1051H56.9904V36.5507H57.663V37.1051ZM59.724 38.4459C59.6922 38.2752 59.6362 38.1459 59.556 38.0574C59.4751 37.969 59.3528 37.9247 59.1883 37.9247C59.0811 37.9247 58.992 37.9427 58.9208 37.9793C58.8496 38.0153 58.7929 38.0609 58.7507 38.1141C58.7079 38.168 58.6775 38.2247 58.6602 38.2848C58.6429 38.345 58.6325 38.3982 58.6298 38.4459H59.724ZM58.6298 38.8724C58.6388 39.0866 58.6941 39.2442 58.7957 39.3438C58.8966 39.4433 59.0417 39.4931 59.2311 39.4931C59.3673 39.4931 59.4841 39.4592 59.5816 39.3908C59.6797 39.323 59.7399 39.2512 59.762 39.1751H60.3544C60.259 39.4661 60.1138 39.6763 59.9182 39.8055C59.7226 39.9348 59.4855 39.9998 59.2076 39.9998C59.0148 39.9998 58.8413 39.9679 58.6865 39.905C58.5316 39.8415 58.4003 39.7537 58.2932 39.6396C58.186 39.5256 58.1031 39.3901 58.0443 39.2325C57.9863 39.0742 57.9572 38.9007 57.9572 38.7113C57.9572 38.5281 57.9869 38.3574 58.0471 38.1998C58.1072 38.0415 58.1922 37.9047 58.3028 37.7899C58.4134 37.6745 58.5455 37.584 58.6982 37.5176C58.8517 37.4512 59.021 37.4181 59.2076 37.4181C59.4164 37.4181 59.5975 37.4581 59.7523 37.5383C59.9071 37.6192 60.0343 37.727 60.1339 37.8632C60.2334 37.9987 60.3053 38.1535 60.3495 38.3277C60.3938 38.5012 60.409 38.683 60.3965 38.8724H58.6298ZM39.8718 8.45686C39.7115 8.36216 39.6092 8.26055 39.6092 8.10572C39.6092 7.68408 40.0101 7.00877 40.7511 6.27124C42.9712 4.04552 48.1153 1.17835 53.4432 1.18111C56.1361 1.18042 58.3294 1.84745 59.7865 3.09094C61.0493 4.16717 61.7426 5.69477 61.7433 7.38894C61.7433 9.99413 60.5157 11.7906 59.7692 12.8772C59.3876 13.4274 59.1602 13.7509 59.1568 14.1179C59.1561 14.4089 59.2957 14.6543 59.5224 14.8866C59.7498 15.1209 60.0692 15.3552 60.4625 15.6469C62.0136 16.7957 64.5635 18.6716 64.5648 22.5445C64.5635 26.9455 62.2382 29.6191 60.2807 31.0963C57.867 32.9169 54.6549 33.9627 51.4767 33.962C43.5387 33.9586 39.4357 29.5459 39.4357 25.2202C39.4357 23.936 39.9154 22.6254 40.7912 21.6397C41.6683 20.6527 42.9367 19.9884 44.5306 19.9877H44.5341C45.4244 19.9877 46.549 20.1958 47.4413 20.793C48.3344 21.3916 49.0021 22.3662 49.0042 23.9477C49.0042 23.994 49.0035 24.0403 49.0028 24.086C48.9233 23.9083 48.8113 23.7113 48.6572 23.5233C48.3351 23.1279 47.8215 22.7781 47.0681 22.7788C46.2158 22.7809 45.4907 23.4777 45.4887 24.314C45.4887 24.4716 45.47 24.567 45.4506 24.6147C45.4463 24.6266 45.4403 24.6378 45.4327 24.6479C45.2246 24.6438 44.9772 24.5 44.7802 24.2166C44.5804 23.929 44.4345 23.5039 44.4345 22.9606C44.4345 22.8521 44.4408 22.7388 44.4532 22.6219L44.4795 22.3683L44.3087 22.5584C43.5062 23.4514 43.2166 24.2594 43.2166 24.9541C43.2187 26.0932 43.9846 26.9047 44.438 27.3298C44.5223 27.4052 44.6239 27.4999 44.7041 27.5842C44.7442 27.6257 44.7795 27.6651 44.8023 27.6955C44.814 27.7121 44.823 27.7245 44.8279 27.7335C44.8299 27.737 44.8306 27.7397 44.8313 27.7411C44.8251 27.7826 44.7414 27.8918 44.5292 27.9761C44.3011 28.0722 43.9362 28.1475 43.415 28.1475C43.2339 28.1475 43.0341 28.1386 42.8143 28.1185L42.6153 28.0991L42.7438 28.254C44.2638 30.0663 45.9435 30.5613 47.3971 30.5599C48.4719 30.5599 49.4251 30.2924 50.1129 30.1002C50.4018 30.018 50.7295 29.8949 50.9099 29.8977C50.9859 29.8977 51.0177 29.915 51.0308 29.9364C51.0474 29.9585 51.0626 30.0041 51.0626 30.0739C51.064 30.2841 50.9396 30.667 50.7308 31.0596C50.5235 31.4536 50.2325 31.8649 49.9124 32.1566L49.7189 32.3335L49.9788 32.2997C54.4192 31.7287 55.9004 29.1553 56.6318 27.8282C56.7527 27.6063 56.8675 27.401 56.9698 27.2559C57.0693 27.1066 57.1695 27.0347 57.193 27.043C57.2338 27.0416 57.3022 27.081 57.3748 27.1909C57.5932 27.5137 57.7764 28.3245 57.7757 29.1685C57.7757 29.5348 57.7418 29.9094 57.6658 30.2571L57.6105 30.5143L57.8027 30.3345C59.4796 28.7828 59.9392 27.1508 59.9385 25.7926C59.9385 24.7516 59.6703 23.8703 59.4844 23.3C59.3814 22.9848 59.2957 22.7021 59.2971 22.5687C59.2971 22.4554 59.3164 22.398 59.3392 22.3683C59.36 22.3406 59.3973 22.3199 59.4685 22.3012C60.177 22.3033 61.0168 22.5556 62.0253 23.0353L62.223 23.1293L62.138 22.9281C60.7694 19.7271 57.7225 18.3523 54.7544 17.6024C53.2683 17.227 51.7988 17.0065 50.5622 16.7929C49.6622 16.6374 48.8832 16.4833 48.3171 16.28C48.2224 16.2393 48.1298 16.1964 48.0386 16.1549C49.7348 15.9421 51.7822 14.7462 53.5994 13.5795C54.2816 13.1419 54.8111 12.6982 55.2355 12.3443C55.4574 12.1611 55.6627 11.9903 55.8369 11.8687C56.0083 11.7443 56.1555 11.6745 56.2212 11.6786C56.2827 11.6793 56.3345 11.7042 56.3884 11.7636C56.5557 11.9427 56.6546 12.4403 56.6511 12.9829C56.6511 13.4191 56.5937 13.8877 56.4887 14.2624L56.4299 14.4725L56.6131 14.3543C58.0557 13.4253 58.7483 12.0208 58.7483 10.7019C58.7489 9.38031 58.0156 8.55568 57.5428 8.02759C57.4709 7.94602 57.3866 7.84997 57.3188 7.76564C57.2642 7.69928 57.2207 7.63015 57.2082 7.60596C57.2165 7.57278 57.258 7.50367 57.3382 7.44699C57.6409 7.22027 58.1566 7.07995 58.7545 7.07995C59.0593 7.07995 59.3849 7.1166 59.7167 7.19264L59.9427 7.24444L59.8003 7.0613C58.5589 5.46528 57.1329 5.00631 55.861 5.00769C54.8602 5.00838 53.9533 5.28762 53.2925 5.50328C52.9704 5.60904 52.5245 5.74662 52.3338 5.74523C52.3161 5.74602 52.2984 5.74438 52.2812 5.74038C52.2861 5.50813 52.4527 5.1155 52.772 4.70077C53.0976 4.27429 53.5786 3.81811 54.1945 3.449L54.4192 3.31421L54.1572 3.29623C54.0413 3.28764 53.9251 3.28327 53.8088 3.28311C51.2555 3.28657 47.9598 5.14111 45.5281 6.39704C44.0115 7.18019 40.8285 9.02642 39.8718 8.45686ZM50.0078 25.5264C51.5423 25.5271 52.8225 25.0592 53.813 24.1509C54.8698 23.1881 55.4719 21.7469 55.4719 20.1985C55.474 19.4583 55.241 18.8403 54.8145 18.3641C57.1018 18.9108 59.4768 20.0859 60.7977 21.854C60.2046 21.6619 59.7906 21.6093 59.3703 21.6093C58.9425 21.6155 58.6038 22.06 58.6024 22.5687C58.6031 22.8355 58.7033 23.1376 58.825 23.515C59.0158 24.1011 59.2611 24.858 59.2611 25.7622C59.2604 26.5944 59.0545 27.5524 58.3971 28.6217C58.3785 27.7591 58.1455 27.0706 57.8469 26.7001C57.6119 26.4153 57.3617 26.3428 57.193 26.3441C56.92 26.3428 56.7064 26.4789 56.5308 26.6856C56.3532 26.8923 56.1997 27.1722 56.0249 27.4902C55.3952 28.6196 54.4053 30.4202 51.3052 31.352C51.5852 30.8681 51.731 30.3739 51.731 29.9772C51.731 29.8203 51.7082 29.6779 51.6578 29.5569C51.5638 29.3205 51.3564 29.1774 51.1221 29.1788H51.1152C50.7771 29.1913 50.3811 29.2991 49.9242 29.4297C49.2109 29.6288 48.3454 29.8721 47.393 29.8721C46.4073 29.8707 45.3304 29.6143 44.2237 28.7758C44.6087 28.7171 44.9474 28.5837 45.1949 28.3708C45.3981 28.1959 45.526 27.9692 45.5267 27.7314C45.5218 27.3685 45.2364 27.1204 44.9115 26.8218C44.4373 26.3745 43.8719 25.8492 43.8726 24.9638C43.8726 24.7087 43.9189 24.4212 44.0323 24.0936C44.1339 24.3728 44.2797 24.6285 44.4691 24.8414C44.7587 25.1539 45.105 25.346 45.4437 25.346C45.7997 25.3509 46.0105 25.1801 46.1004 24.9652C46.193 24.7516 46.1895 24.5048 46.1902 24.314C46.1902 24.0949 46.2918 23.8855 46.4543 23.73C46.6167 23.5745 46.8379 23.4756 47.0681 23.4763C47.5893 23.4763 47.9839 23.7659 48.2597 24.2C48.5335 24.6341 48.6772 25.2105 48.6765 25.7504C48.6765 26.0863 48.6212 26.4077 48.512 26.6718L48.3931 26.9579L48.6385 26.7678C49.1051 26.4063 49.4707 25.8914 49.638 25.5175C49.7624 25.523 49.8862 25.5264 50.0078 25.5264ZM47.5105 15.0151C47.9895 14.5361 48.98 13.858 49.7189 13.3894C50.444 12.9235 51.0944 12.5081 51.5707 12.0919C52.0448 11.6765 52.3559 11.2507 52.3573 10.76C52.3586 10.375 52.208 10.0211 51.928 9.73977C51.4227 9.24278 50.5283 9.00913 49.4127 8.88541C48.2971 8.76237 46.9568 8.75821 45.5668 8.75821H45.1852C44.0392 8.75821 43.1261 8.74163 42.3975 8.7126C43.4095 8.3193 44.5811 7.69373 45.8571 7.0122C47.9273 5.90487 50.2207 4.67589 52.3815 4.12844C51.8824 4.69386 51.5589 5.33669 51.5568 5.89243C51.5568 6.02722 51.599 6.17307 51.7041 6.28643C51.8098 6.40048 51.9757 6.47443 52.199 6.47374C52.584 6.47236 53.0146 6.32584 53.513 6.16686C54.1876 5.94429 54.9687 5.68992 55.8286 5.68992C56.5771 5.69061 57.3859 5.88137 58.2485 6.45923C57.6762 6.49656 57.2068 6.66382 56.9131 6.89538C56.5944 7.14076 56.5163 7.4207 56.5184 7.61355C56.5212 7.93082 56.743 8.17068 57.0195 8.48795C57.4633 8.9877 58.0453 9.64505 58.0467 10.7019C58.0467 11.4747 57.7508 12.2952 57.3112 12.9187C57.3133 12.8744 57.314 12.8288 57.314 12.7818C57.3126 12.2454 57.1951 11.6392 56.9006 11.2957C56.723 11.0952 56.4873 10.9798 56.2212 10.9812C55.7677 10.9853 55.3772 11.3309 54.7945 11.81C54.3798 12.1514 53.8697 12.5855 53.222 12.9919C50.4958 14.7082 49.0353 15.3752 47.9985 15.4589C47.6162 15.49 47.0418 15.4837 47.5105 15.0151ZM61.1668 14.6992C60.8786 14.4898 60.5392 14.2361 60.3871 14.0861C60.4694 13.9451 60.6145 13.726 60.7452 13.5407C61.5048 12.441 62.9287 10.3598 62.9287 7.38894C62.9287 5.68302 62.3046 3.83122 60.8026 2.40939C59.3012 0.986175 56.9262 -0.00157305 53.4432 -0.00088183C50.1392 -0.000190614 46.4183 1.08502 43.2035 2.98518C41.7616 3.8409 40.5741 4.76163 39.7426 5.64639C38.9138 6.53114 38.4334 7.37718 38.4313 8.10572C38.4306 8.45893 38.5668 8.7838 38.8239 9.03817C39.294 9.50059 40.1262 9.71486 41.1886 9.82891C42.251 9.9402 43.5484 9.94366 44.9433 9.94366H45.1921C47.3432 9.94366 48.8625 10.0017 49.8336 10.1434C50.3196 10.2139 50.6686 10.3073 50.8843 10.4165C51.1041 10.5298 51.1732 10.6376 51.1746 10.76C51.1781 10.8104 51.1193 10.9238 50.9859 11.0551C50.5214 11.5203 49.3021 12.2115 48.2051 12.9705C47.6556 13.3513 47.1351 13.7509 46.748 14.1587C46.3623 14.5658 46.1011 14.9833 46.0969 15.4139V15.4347C46.1018 15.9807 46.3914 16.4197 46.8324 16.759C48.1657 17.7814 50.9292 18.0496 52.3739 18.3122C53.2655 18.4746 53.7383 18.7912 53.9941 19.1362C54.2491 19.4831 54.2961 19.8702 54.2961 20.1985C54.2961 21.4365 53.8365 22.53 53.0112 23.2779C52.2785 23.9519 51.3944 24.388 50.106 24.3901C50.0562 24.3901 50.0044 24.3887 49.9525 24.388C49.9829 24.1412 49.9975 23.8993 49.9975 23.6643C49.9981 22.2072 49.4244 20.9914 48.4512 20.1474C47.478 19.3034 46.1101 18.8286 44.523 18.8286C42.5648 18.8279 40.993 19.6414 39.9168 20.8469C38.8398 22.0531 38.2544 23.6484 38.2537 25.2202C38.253 27.6941 39.3949 30.1783 41.6185 32.0412C43.8436 33.9033 47.149 35.144 51.4767 35.144C54.9079 35.144 58.3688 34.0111 60.9878 32.0439C63.1575 30.4099 65.751 27.4307 65.7503 22.5445C65.751 18.0724 62.749 15.8626 61.1668 14.6992Z" fill="#231F20"/>
</g>
</g>
</svg>
