<svg width="139" height="35" viewBox="0 0 139 35" fill="none" xmlns="http://www.w3.org/2000/svg">
<g style="mix-blend-mode:luminosity" opacity="0.55" clip-path="url(#clip0_5959_9289)">
<path d="M127.569 26.0721C127.236 26.0721 126.904 26.0167 126.627 25.8506H126.572C126.516 25.8506 123.36 23.9679 121.201 22.6943C118.875 21.31 118.875 20.5348 118.875 20.2579C118.875 19.5381 119.65 18.7629 121.201 17.8215C123.36 16.5479 126.516 14.7206 126.572 14.6653H126.627C127.292 14.3884 128.067 14.3884 128.676 14.776C129.119 15.0529 129.34 15.4405 129.34 15.8835C129.34 16.2157 129.34 16.6587 129.34 16.6587V17.6L135.099 17.6554C135.819 17.6 136.484 17.8769 136.982 18.3199C137.48 18.8182 137.813 19.4273 137.868 20.1472C137.923 20.867 137.646 21.5315 137.203 22.0852C136.705 22.5836 136.096 22.9158 135.376 22.9712H129.34V23.9125C129.34 23.9125 129.34 24.3555 129.34 24.6878C129.34 25.1308 129.119 25.5184 128.676 25.7952C128.399 25.9613 128.012 26.0721 127.569 26.0721ZM127.07 25.1308C127.513 25.2969 127.956 25.2415 128.233 25.0754C128.344 25.02 128.455 24.9093 128.455 24.7431C128.455 24.3555 128.455 23.9679 128.455 23.9679V22.1406L135.321 22.196C135.764 22.196 136.207 21.9745 136.539 21.6423C136.871 21.31 137.037 20.8117 136.982 20.3687C136.982 19.8703 136.76 19.4827 136.428 19.1505C136.096 18.8182 135.598 18.6521 135.155 18.7075L128.455 18.6521V16.8248C128.455 16.8248 128.455 16.3818 128.455 16.0496C128.455 15.8835 128.344 15.7727 128.233 15.7174C127.956 15.5512 127.458 15.4405 127.07 15.662C126.793 15.8281 123.803 17.5447 121.754 18.7629C120.259 19.6488 119.872 20.2026 119.872 20.4241C119.872 20.6455 120.259 21.1993 121.754 22.0852C123.803 23.1927 126.793 24.9646 127.07 25.1308Z" fill="#D50032"/>
<path d="M6.80059 19.9816V3.48043H0.820312V0.988647H15.771V3.48043H9.51386V19.9816H6.80059Z" fill="black"/>
<path d="M28.1204 19.9813L23.0261 11.8969C21.8078 11.9522 21.531 11.8969 20.4789 11.8415V20.0367H17.7656V0.988398H17.821C17.9317 0.988398 18.6516 0.933026 19.8698 0.877653C21.088 0.82228 22.0293 0.766907 22.5831 0.766907C27.1236 0.766907 29.4493 2.59421 29.4493 6.24883C29.4493 7.46703 29.0617 8.51912 28.3419 9.51583C27.622 10.4572 26.7914 11.0109 25.7947 11.2878L31.2766 19.9813H28.1204ZM21.9186 3.36943C21.6971 3.36943 21.1987 3.42481 20.4235 3.48018L20.4789 9.51583C21.0326 9.51583 21.6417 9.5712 22.1955 9.5712C23.6905 9.5712 24.798 9.34971 25.5178 8.85135C26.1823 8.353 26.5145 7.5224 26.5145 6.24883C26.5145 5.25211 26.1269 4.47689 25.4071 4.03391C24.6872 3.59093 23.5244 3.36943 21.9186 3.36943Z" fill="black"/>
<path d="M39.2502 0.988647H40.1915L47.3346 19.9816H44.3445L42.9601 15.9947H36.0385L34.7096 19.9816H31.6641L39.2502 0.988647ZM42.1849 13.9459L39.6378 6.74743L36.8691 13.9459H42.1849Z" fill="black"/>
<path d="M60.6232 20.0369L51.376 7.0243V19.9816H48.7734V0.988647H50.047L59.2389 13.5029V0.988647H61.8414V20.0369H60.6232Z" fill="black"/>
<path d="M68.4285 20.3138C66.7673 20.3138 65.2722 19.9262 64.1094 19.0956L65.0507 16.5484L65.1061 16.6038C65.6044 16.9914 66.2135 17.2683 66.9334 17.4898C67.6532 17.7113 68.2623 17.822 68.8161 17.822C69.8128 17.822 70.588 17.5452 71.1971 17.0468C71.8062 16.4931 72.0831 15.8286 72.0831 14.998C72.0831 14.3889 71.917 13.7798 71.5847 13.2814C71.2525 12.7277 70.4219 12.174 69.0929 11.5095L67.5979 10.7897C66.3243 10.1806 65.3829 9.46071 64.8846 8.63012C64.3862 7.79953 64.1094 6.80281 64.1094 5.63998C64.1094 4.20029 64.6077 3.03745 65.6044 2.09612C66.6012 1.15478 67.9301 0.711792 69.4805 0.711792C71.5847 0.711792 73.0244 1.04403 73.855 1.76388L73.0798 4.20029L73.0244 4.14491C72.6368 3.86805 72.1384 3.64656 71.4186 3.42507C70.7541 3.20357 70.0896 3.09283 69.4805 3.09283C68.65 3.09283 67.9855 3.31432 67.4871 3.81268C66.9888 4.31103 66.7673 4.92013 66.7673 5.63998C66.7673 6.08297 66.878 6.52595 67.0441 6.91356C67.2103 7.30117 67.4871 7.63341 67.764 7.8549C68.0962 8.13176 68.7607 8.464 69.702 8.96236L71.2525 9.68221C72.5261 10.2913 73.4674 11.0112 73.9658 11.8971C74.4641 12.7277 74.741 13.8352 74.741 15.1641C74.741 16.6038 74.1319 17.822 73.0244 18.8187C71.917 19.8155 70.3665 20.3138 68.4285 20.3138Z" fill="black"/>
<path d="M82.883 0.988647H83.8243L90.912 19.9816H87.9219L86.5929 16.0501H79.6713L78.3424 20.0369H75.2969L82.883 0.988647ZM85.8177 13.9459L83.2706 6.74743L80.5019 13.9459H85.8177Z" fill="black"/>
<path d="M98.4978 20.3138C96.006 20.3138 94.068 19.4278 92.6283 17.6005C91.1886 15.8286 90.4688 13.4476 90.4688 10.5682C90.4688 7.74415 91.244 5.36312 92.739 3.53581C94.2341 1.65313 96.2275 0.711792 98.6639 0.711792C100.713 0.711792 102.319 1.04403 103.481 1.76388L102.595 4.14491L102.54 4.08954C101.709 3.48044 100.381 3.1482 98.6639 3.1482C97.0581 3.1482 95.7292 3.86805 94.7878 5.25237C93.7911 6.63669 93.2928 8.464 93.2928 10.6789C93.2928 12.7831 93.7911 14.4996 94.7878 15.8286C95.7846 17.1576 97.1135 17.7667 98.6639 17.7667C100.381 17.7667 101.709 17.1576 102.651 15.9393L102.706 15.884L102.762 15.8286L104.257 17.8774C102.817 19.5386 100.879 20.3138 98.4978 20.3138Z" fill="black"/>
<path d="M111.176 19.9816V3.48043H105.195V0.988647H120.201V3.48043H113.944V19.9816H111.176Z" fill="black"/>
<path d="M117.822 34.8765C117.434 34.8765 117.047 34.7658 116.715 34.5443C116.272 34.2674 116.05 33.8798 116.05 33.4368C116.05 33.1046 116.05 32.6616 116.05 32.6616V31.7203L110.291 31.6649C109.571 31.7203 108.907 31.4434 108.409 31.0004C107.91 30.5021 107.578 29.893 107.523 29.1731C107.467 28.4533 107.744 27.7888 108.187 27.2351C108.685 26.7367 109.295 26.4045 110.014 26.3491H116.05V25.4077C116.05 25.4077 116.05 24.9648 116.05 24.6325C116.05 24.1895 116.272 23.8019 116.715 23.5251C117.324 23.1375 118.099 23.0821 118.763 23.4143H118.819C118.874 23.4143 122.03 25.297 124.19 26.5706C126.516 27.9549 126.516 28.7301 126.516 29.007C126.516 29.7268 125.74 30.5021 124.19 31.4434C122.03 32.717 118.874 34.5443 118.819 34.5997H118.763C118.486 34.8211 118.154 34.8765 117.822 34.8765ZM110.291 30.8343L116.991 30.8897V32.717C116.991 32.717 116.991 33.16 116.991 33.4922C116.991 33.6583 117.102 33.7691 117.213 33.8244C117.49 33.9906 117.988 34.1013 118.376 33.8798C118.653 33.7137 121.643 31.9971 123.692 30.7789C125.187 29.893 125.574 29.3392 125.574 29.1177C125.574 28.8962 125.187 28.3425 123.692 27.4565C121.643 26.2383 118.653 24.4664 118.376 24.3557C117.933 24.1895 117.49 24.2449 117.213 24.411C117.102 24.4664 116.991 24.5772 116.991 24.7433C116.991 25.1309 116.991 25.5185 116.991 25.5185V27.3458L110.125 27.2904C109.682 27.2904 109.239 27.5119 108.907 27.8442C108.575 28.1764 108.409 28.6748 108.464 29.1177C108.464 29.6161 108.685 30.0037 109.018 30.3359C109.35 30.7235 109.793 30.8897 110.291 30.8343Z" fill="#D50032"/>
</g>
<defs>
<clipPath id="clip0_5959_9289">
<rect width="137.325" height="34.3312" fill="white" transform="translate(0.820312 0.656311)"/>
</clipPath>
</defs>
</svg>
