<svg width="105" height="40" viewBox="0 0 105 40" fill="none" xmlns="http://www.w3.org/2000/svg">
<g style="mix-blend-mode:luminosity" opacity="0.55">
<rect width="104.391" height="39.6438" transform="translate(0.148438)" fill="#040724"/>
<mask id="mask0_5959_9303" style="mask-type:luminance" maskUnits="userSpaceOnUse" x="10" y="13" width="7" height="9">
<path d="M10.0391 13.5914H16.9126V21.285H10.0391V13.5914Z" fill="white"/>
</mask>
<g mask="url(#mask0_5959_9303)">
<mask id="mask1_5959_9303" style="mask-type:luminance" maskUnits="userSpaceOnUse" x="-43" y="-303" width="328" height="463">
<path d="M-42.9922 -302.945H284.137V159.709H-42.9922V-302.945Z" fill="black" fill-opacity="0.880005"/>
</mask>
<g mask="url(#mask1_5959_9303)">
<mask id="mask2_5959_9303" style="mask-type:luminance" maskUnits="userSpaceOnUse" x="9" y="13" width="8" height="9">
<path d="M9.76562 13.5911H16.9097V21.2846H9.76562V13.5911Z" fill="white"/>
</mask>
<g mask="url(#mask2_5959_9303)">
<mask id="mask3_5959_9303" style="mask-type:luminance" maskUnits="userSpaceOnUse" x="10" y="14" width="7" height="7">
<path d="M10.0547 14.0707H16.8209V20.8348H10.0547V14.0707Z" fill="white"/>
</mask>
<g mask="url(#mask3_5959_9303)">
<path d="M13.455 16.095C13.8263 16.095 14.1505 16.2281 14.4167 16.4922C14.6807 16.7583 14.8138 17.0739 14.8138 17.4474C14.8138 17.8188 14.6807 18.1386 14.4167 18.4048C14.1505 18.6646 13.8113 18.8019 13.4378 18.8019C13.0643 18.8019 12.7573 18.6646 12.4933 18.4048C12.2271 18.1386 12.094 17.8188 12.094 17.4474C12.094 17.0739 12.2271 16.7583 12.4933 16.4922C12.7573 16.2281 13.0815 16.095 13.455 16.095ZM11.0443 15.0582C10.3874 15.7215 10.0547 16.5136 10.0547 17.4517C10.0547 18.3876 10.3874 19.1798 11.0443 19.8431C11.7076 20.5021 12.4997 20.8327 13.4378 20.8327C14.3737 20.8327 15.1659 20.5021 15.8292 19.8431C16.4517 19.2205 16.778 18.4864 16.8166 17.6299C16.8209 17.5676 16.8209 17.5097 16.8209 17.4517V17.3637C16.7995 16.4685 16.471 15.7022 15.8292 15.0582C15.1659 14.3949 14.3823 14.0707 13.4464 14.0707C12.5083 14.0707 11.7076 14.3949 11.0443 15.0582Z" fill="#F1F1F2"/>
</g>
</g>
</g>
</g>
<mask id="mask4_5959_9303" style="mask-type:luminance" maskUnits="userSpaceOnUse" x="16" y="13" width="8" height="9">
<path d="M16.7969 13.5914H23.6704V21.285H16.7969V13.5914Z" fill="white"/>
</mask>
<g mask="url(#mask4_5959_9303)">
<mask id="mask5_5959_9303" style="mask-type:luminance" maskUnits="userSpaceOnUse" x="-37" y="-303" width="328" height="463">
<path d="M-36.2344 -302.945H290.895V159.709H-36.2344V-302.945Z" fill="black" fill-opacity="0.880005"/>
</mask>
<g mask="url(#mask5_5959_9303)">
<mask id="mask6_5959_9303" style="mask-type:luminance" maskUnits="userSpaceOnUse" x="16" y="13" width="8" height="9">
<path d="M16.5234 13.5911H23.6675V21.2846H16.5234V13.5911Z" fill="white"/>
</mask>
<g mask="url(#mask6_5959_9303)">
<mask id="mask7_5959_9303" style="mask-type:luminance" maskUnits="userSpaceOnUse" x="16" y="14" width="8" height="7">
<path d="M16.8125 14.0707H23.5787V20.8348H16.8125V14.0707Z" fill="white"/>
</mask>
<g mask="url(#mask7_5959_9303)">
<path d="M20.2128 16.095C20.5842 16.095 20.9083 16.2281 21.1745 16.4922C21.4385 16.7583 21.5716 17.0739 21.5716 17.4474C21.5716 17.8188 21.4385 18.1386 21.1745 18.4048C20.9083 18.6646 20.5691 18.8019 20.1956 18.8019C19.8221 18.8019 19.5151 18.6646 19.2511 18.4048C18.9849 18.1386 18.8518 17.8188 18.8518 17.4474C18.8518 17.0739 18.9849 16.7583 19.2511 16.4922C19.5151 16.2281 19.8393 16.095 20.2128 16.095ZM17.8021 15.0582C17.1452 15.7215 16.8125 16.5136 16.8125 17.4517C16.8125 18.3876 17.1452 19.1798 17.8021 19.8431C18.4654 20.5021 19.2575 20.8327 20.1956 20.8327C21.1316 20.8327 21.9237 20.5021 22.587 19.8431C23.2095 19.2205 23.5358 18.4864 23.5744 17.6299C23.5787 17.5676 23.5787 17.5097 23.5787 17.4517V17.3637C23.5573 16.4685 23.2288 15.7022 22.587 15.0582C21.9237 14.3949 21.1401 14.0707 20.2042 14.0707C19.2661 14.0707 18.4654 14.3949 17.8021 15.0582Z" fill="#F1F1F2"/>
</g>
</g>
</g>
</g>
<mask id="mask8_5959_9303" style="mask-type:luminance" maskUnits="userSpaceOnUse" x="23" y="13" width="8" height="9">
<path d="M23.5078 13.5916H30.4994V21.2851H23.5078V13.5916Z" fill="white"/>
</mask>
<g mask="url(#mask8_5959_9303)">
<mask id="mask9_5959_9303" style="mask-type:luminance" maskUnits="userSpaceOnUse" x="-43" y="-303" width="328" height="463">
<path d="M-42.9922 -302.945H284.137V159.709H-42.9922V-302.945Z" fill="black" fill-opacity="0.880005"/>
</mask>
<g mask="url(#mask9_5959_9303)">
<mask id="mask10_5959_9303" style="mask-type:luminance" maskUnits="userSpaceOnUse" x="23" y="13" width="8" height="9">
<path d="M23.5078 13.5907H30.6519V21.2843H23.5078V13.5907Z" fill="white"/>
</mask>
<g mask="url(#mask10_5959_9303)">
<mask id="mask11_5959_9303" style="mask-type:luminance" maskUnits="userSpaceOnUse" x="23" y="14" width="8" height="7">
<path d="M23.6562 14.071H30.4225V20.8351H23.6562V14.071Z" fill="white"/>
</mask>
<g mask="url(#mask11_5959_9303)">
<path d="M27.0458 16.1082C27.4236 16.1082 27.7521 16.2284 28.0182 16.4945C28.2844 16.7586 28.4154 17.0741 28.4154 17.4477C28.4154 17.8212 28.2844 18.1389 28.0182 18.4051C27.7521 18.6648 27.4236 18.8022 27.0458 18.8022C26.668 18.8022 26.3589 18.6648 26.0948 18.4051C25.8287 18.1389 25.6956 17.8212 25.6956 17.4477C25.6956 17.0741 25.8287 16.7586 26.0948 16.4945C26.3589 16.2284 26.668 16.1082 27.0458 16.1082ZM24.648 15.0584C23.9847 15.7218 23.6562 16.5139 23.6562 17.452C23.6562 18.3879 23.9847 19.18 24.648 19.8433C25.3113 20.5023 26.1142 20.8351 27.0458 20.8351C27.9774 20.8351 28.7717 20.5023 29.4307 19.8433C30.0533 19.2208 30.3774 18.4866 30.4182 17.6301C30.4182 17.5679 30.4225 17.5099 30.4225 17.452V17.3639C30.401 16.4688 30.0747 15.7024 29.4307 15.0584C28.7717 14.3951 27.9774 14.071 27.0458 14.071C26.1142 14.071 25.3113 14.3951 24.648 15.0584Z" fill="#F1F1F2"/>
</g>
</g>
</g>
</g>
<mask id="mask12_5959_9303" style="mask-type:luminance" maskUnits="userSpaceOnUse" x="10" y="9" width="7" height="8">
<path d="M10.0391 9.19592H16.9126V16.34H10.0391V9.19592Z" fill="white"/>
</mask>
<g mask="url(#mask12_5959_9303)">
<mask id="mask13_5959_9303" style="mask-type:luminance" maskUnits="userSpaceOnUse" x="-43" y="-303" width="328" height="463">
<path d="M-42.9922 -302.944H284.137V159.71H-42.9922V-302.944Z" fill="black" fill-opacity="0.880005"/>
</mask>
<g mask="url(#mask13_5959_9303)">
<mask id="mask14_5959_9303" style="mask-type:luminance" maskUnits="userSpaceOnUse" x="9" y="9" width="8" height="8">
<path d="M9.76562 9.19629H16.9097V16.3403H9.76562V9.19629Z" fill="white"/>
</mask>
<g mask="url(#mask14_5959_9303)">
<mask id="mask15_5959_9303" style="mask-type:luminance" maskUnits="userSpaceOnUse" x="10" y="9" width="7" height="8">
<path d="M10.0547 9.34467H16.8209V16.098H10.0547V9.34467Z" fill="white"/>
</mask>
<g mask="url(#mask15_5959_9303)">
<path d="M13.4378 11.3732C13.8113 11.3732 14.1505 11.5042 14.4145 11.7704C14.6807 12.0366 14.8138 12.35 14.8138 12.7235C14.8138 13.097 14.6807 13.4211 14.4145 13.6809C14.1505 13.9428 13.8113 14.0737 13.4378 14.0737C13.0643 14.0737 12.7573 13.9428 12.4911 13.6809C12.2271 13.4211 12.094 13.097 12.094 12.7235C12.094 12.35 12.2271 12.0366 12.4911 11.7704C12.7573 11.5042 13.0643 11.3732 13.4378 11.3732ZM16.8166 12.906C16.8209 12.8437 16.8209 12.7857 16.8209 12.7278V12.6398C16.7995 11.7446 16.471 10.9783 15.8292 10.3364C15.1659 9.6731 14.3737 9.34467 13.4378 9.34467C12.4997 9.34467 11.7076 9.6731 11.0443 10.3364C10.3853 10.9997 10.0547 11.7918 10.0547 12.7278C10.0547 13.6616 10.3853 14.4601 11.0443 15.1191C11.7076 15.7782 12.4997 16.098 13.4378 16.098C14.3737 16.098 15.1659 15.7782 15.8292 15.1191C16.4517 14.5031 16.778 13.7603 16.8166 12.906Z" fill="#F1F1F2"/>
</g>
</g>
</g>
</g>
<mask id="mask16_5959_9303" style="mask-type:luminance" maskUnits="userSpaceOnUse" x="16" y="9" width="8" height="8">
<path d="M16.7969 9.19592H23.6704V16.34H16.7969V9.19592Z" fill="white"/>
</mask>
<g mask="url(#mask16_5959_9303)">
<mask id="mask17_5959_9303" style="mask-type:luminance" maskUnits="userSpaceOnUse" x="-37" y="-303" width="328" height="463">
<path d="M-36.2344 -302.944H290.895V159.71H-36.2344V-302.944Z" fill="black" fill-opacity="0.880005"/>
</mask>
<g mask="url(#mask17_5959_9303)">
<mask id="mask18_5959_9303" style="mask-type:luminance" maskUnits="userSpaceOnUse" x="16" y="9" width="8" height="8">
<path d="M16.5234 9.19629H23.6675V16.3403H16.5234V9.19629Z" fill="white"/>
</mask>
<g mask="url(#mask18_5959_9303)">
<mask id="mask19_5959_9303" style="mask-type:luminance" maskUnits="userSpaceOnUse" x="16" y="9" width="8" height="8">
<path d="M16.8125 9.3454H23.5787V16.0987H16.8125V9.3454Z" fill="white"/>
</mask>
<g mask="url(#mask19_5959_9303)">
<path d="M20.1956 11.374C20.5691 11.374 20.9083 11.5049 21.1723 11.7711C21.4385 12.0373 21.5716 12.3507 21.5716 12.7242C21.5716 13.0977 21.4385 13.4219 21.1723 13.6816C20.9083 13.9435 20.5691 14.0745 20.1956 14.0745C19.8221 14.0745 19.5151 13.9435 19.2489 13.6816C18.9849 13.4219 18.8518 13.0977 18.8518 12.7242C18.8518 12.3507 18.9849 12.0373 19.2489 11.7711C19.5151 11.5049 19.8221 11.374 20.1956 11.374ZM23.5744 12.9067C23.5787 12.8444 23.5787 12.7865 23.5787 12.7285V12.6405C23.5573 11.7453 23.2288 10.979 22.587 10.3371C21.9237 9.67384 21.1316 9.3454 20.1956 9.3454C19.2575 9.3454 18.4654 9.67384 17.8021 10.3371C17.1431 11.0005 16.8125 11.7926 16.8125 12.7285C16.8125 13.6623 17.1431 14.4609 17.8021 15.1199C18.4654 15.7789 19.2575 16.0987 20.1956 16.0987C21.1316 16.0987 21.9237 15.7789 22.587 15.1199C23.2095 14.5038 23.5358 13.7611 23.5744 12.9067Z" fill="#F1F1F2"/>
</g>
</g>
</g>
</g>
<mask id="mask20_5959_9303" style="mask-type:luminance" maskUnits="userSpaceOnUse" x="23" y="9" width="8" height="8">
<path d="M23.5078 9.19592H30.4994V16.34H23.5078V9.19592Z" fill="white"/>
</mask>
<g mask="url(#mask20_5959_9303)">
<mask id="mask21_5959_9303" style="mask-type:luminance" maskUnits="userSpaceOnUse" x="-43" y="-303" width="328" height="463">
<path d="M-42.9922 -302.944H284.137V159.71H-42.9922V-302.944Z" fill="black" fill-opacity="0.880005"/>
</mask>
<g mask="url(#mask21_5959_9303)">
<mask id="mask22_5959_9303" style="mask-type:luminance" maskUnits="userSpaceOnUse" x="23" y="9" width="8" height="8">
<path d="M23.5078 9.19629H30.6519V16.3403H23.5078V9.19629Z" fill="white"/>
</mask>
<g mask="url(#mask22_5959_9303)">
<mask id="mask23_5959_9303" style="mask-type:luminance" maskUnits="userSpaceOnUse" x="23" y="9" width="8" height="8">
<path d="M23.6484 9.34467H30.4147V16.1109H23.6484V9.34467Z" fill="white"/>
</mask>
<g mask="url(#mask23_5959_9303)">
<path d="M28.0104 11.7704C28.2766 12.0366 28.4076 12.35 28.4076 12.7235C28.4076 13.097 28.2766 13.419 28.0104 13.6809C27.7442 13.9428 27.4158 14.0737 27.038 14.0737C26.6602 14.0737 26.3511 13.9428 26.087 13.6809C25.8208 13.419 25.6899 13.097 25.6899 12.7235C25.6899 12.35 25.8208 12.0366 26.087 11.7704C26.3511 11.5042 26.6602 11.3732 27.038 11.3732C27.4158 11.3732 27.7442 11.5042 28.0104 11.7704ZM30.4147 12.7278V12.6398C30.3932 11.7446 30.0669 10.9783 29.4229 10.3364C28.7639 9.6731 27.9696 9.34467 27.038 9.34467C26.1063 9.34467 25.3035 9.6731 24.6402 10.3364C23.9769 10.9997 23.6484 11.7918 23.6484 12.7278C23.6484 13.6616 23.9769 14.4601 24.6402 15.1191C25.3035 15.7782 26.1063 16.1109 27.038 16.1109C27.9696 16.1109 28.7639 15.7782 29.4229 15.1191C30.0454 14.5031 30.3696 13.7603 30.4104 12.906C30.4104 12.8437 30.4147 12.7857 30.4147 12.7278Z" fill="#F1F1F2"/>
</g>
</g>
</g>
</g>
<path d="M60.7374 19.0691C61.1823 19.0691 61.6582 18.8208 62.3927 18.0242C62.1962 18.6656 62.4238 19.0691 62.9618 19.0691C63.5618 19.0691 64.0584 18.438 64.586 17.7966L66.8207 15.0653C67.307 14.4756 67.6587 14.1135 68.0518 14.1135C68.4139 14.1135 68.3519 14.548 67.8553 15.1687C67.4311 15.7067 64.8033 18.9967 64.8033 18.9967H65.9103L68.6209 15.4791C69.4278 14.4239 69.9865 14.1135 70.2865 14.1135C70.4417 14.1135 70.4831 14.2273 70.4831 14.3514C70.4831 14.6825 70.2348 14.9618 69.4899 15.9033L67.0276 18.9863H68.1139L70.8038 15.4895C71.8177 14.1756 72.1591 14.1031 72.3867 14.1031C72.5419 14.1031 72.5833 14.2273 72.5833 14.3307C72.5833 15.1274 70.3279 16.7723 70.3279 18.2518C70.3279 18.6863 70.659 19.0691 71.2797 19.0691C73.0178 19.0691 74.8179 15.2929 74.8179 13.2651C74.8179 11.5684 73.8248 10.7408 72.6867 10.7408C71.0521 10.7408 70.4521 11.6512 70.4521 12.3133C70.4521 12.8927 70.7521 13.1927 71.3107 13.1927C72.097 13.1927 72.635 12.303 72.635 12.0443C72.635 12.003 72.6143 11.9926 72.5936 11.9823C72.2936 12.6858 71.8073 12.9237 71.4245 12.9237C71.0004 12.9237 70.7728 12.6858 70.7728 12.2719C70.7728 11.8064 71.2797 10.9684 72.5833 10.9684C73.7937 10.9684 74.5076 11.7443 74.5076 13.2755C74.5076 15.9447 72.7281 18.738 71.4142 18.738C71.1038 18.738 71.0211 18.5725 71.0211 18.407C71.0211 17.9621 71.7142 17.3 72.2936 16.4206C72.7488 15.7274 73.2144 15.0446 73.2144 14.4445C73.2144 13.9273 72.9867 13.71 72.6143 13.71C72.2212 13.71 71.7763 13.9893 71.0107 14.817C71.1452 14.3204 71.1866 13.71 70.5555 13.71C70.2244 13.71 69.6451 13.948 68.8071 14.8998C69.0554 14.1342 68.8278 13.71 68.3105 13.71C67.7932 13.71 67.4311 14.0824 67.038 14.579L65.0412 16.9896C64.317 17.8793 63.6446 18.8208 63.2204 18.8208C62.9411 18.8208 62.8169 18.3863 63.2825 17.8069L66.4793 13.7928H65.2999L65.0412 14.1445C64.9895 13.8755 64.7826 13.741 64.524 13.741C63.6756 13.741 62.6204 14.3514 61.8341 15.1274C61.1823 15.7791 60.6029 16.7413 60.3236 17.4655C59.9098 18.0035 59.2166 18.8208 58.6993 18.8208C58.3579 18.8208 58.2752 18.3863 58.7407 17.8069L61.9375 13.7928H60.7581C60.7581 13.7928 59.4235 15.624 58.5441 16.8241C58.3062 17.1344 57.582 18.0552 57.3544 18.2828C56.9819 18.6552 56.6612 18.8311 56.444 18.8311C56.1026 18.8311 56.0198 18.3966 56.4853 17.8172C56.8992 17.3 61.4927 11.5064 61.4927 11.5064H60.334C60.334 11.5064 57.3751 15.4067 56.2888 16.8241C56.0508 17.1344 55.3266 18.0552 55.099 18.2828C54.7266 18.6552 54.4059 18.8311 54.1886 18.8311C53.8472 18.8311 53.7644 18.3966 54.23 17.8172C54.6438 17.3 59.2373 11.5064 59.2373 11.5064H58.0786C58.0786 11.5064 54.7576 15.8826 53.8679 17.0517V17.062L53.8472 17.0827C53.8368 17.093 53.8265 17.1137 53.8162 17.1241C53.5265 17.5276 52.5747 18.8311 51.9332 18.8311C51.5918 18.8311 51.5091 18.3966 51.9746 17.8172L55.1714 13.8031H53.992C53.992 13.8031 52.4712 15.8929 51.6022 17.062C50.7435 18.2414 51.1056 19.0898 51.8712 19.0898C52.5436 19.0898 52.9885 18.5725 53.3506 18.1483C53.2782 18.7277 53.5989 19.0898 54.0955 19.0898C54.768 19.0898 55.2335 18.5725 55.5956 18.1483C55.5232 18.7277 55.8439 19.0898 56.3405 19.0898C57.0337 19.0898 57.5096 18.5414 57.8717 18.1173C57.7786 18.7173 58.1096 19.0898 58.6269 19.0898C59.2063 19.0898 59.7649 18.5518 60.1374 18.1173C60.1167 18.5518 60.2201 19.0691 60.7374 19.0691ZM62.9928 14.9411C63.7273 14.2066 64.1515 14.1135 64.3067 14.1135C64.4619 14.1135 64.5343 14.2066 64.5343 14.3928C64.5343 14.9825 62.5376 17.5069 62.041 18.0035C61.7927 18.2518 61.3064 18.6863 60.903 18.6863C60.1167 18.6863 61.5754 16.3688 62.9928 14.9411ZM56.5371 12.065C56.6612 11.7236 56.4957 11.4546 56.175 11.4546C55.8543 11.4546 55.5025 11.734 55.3784 12.065C55.2542 12.3961 55.4197 12.6754 55.7405 12.6754C56.0612 12.6858 56.4233 12.4064 56.5371 12.065ZM62.5169 12.6858C62.8376 12.6858 63.1894 12.4064 63.3135 12.0754C63.4377 11.734 63.2721 11.465 62.9514 11.465C62.6307 11.465 62.2789 11.7443 62.1548 12.0754C62.041 12.4064 62.1962 12.6858 62.5169 12.6858ZM45.1258 20.3416C43.0256 20.3416 41.7944 19.0691 41.4944 17.3517C41.5979 17.3827 41.7117 17.3931 41.8255 17.3931C42.0841 17.3931 42.4669 17.3413 42.8807 17.1344C43.067 17.2793 43.2946 17.362 43.5636 17.362C45.7465 17.362 47.3501 13.2755 45.9741 12.1271C47.1225 11.5995 48.3433 11.4133 49.202 11.9098C48.9847 12.0754 48.7675 12.2513 48.5709 12.4375C46.9156 14.0928 46.15 17.4551 44.8982 18.8104C44.7637 18.7691 44.6188 18.7277 44.4326 18.7277C44.1843 18.7277 43.9567 18.8415 43.9257 18.9863C43.8946 19.1311 44.0705 19.245 44.3188 19.245C44.505 19.245 44.7016 19.2036 44.9395 19.0484C45.074 19.0587 45.2085 19.0691 45.343 19.0691C45.85 19.0691 46.3259 18.8518 46.8845 18.2931C48.3329 16.8447 49.5848 13.7928 50.4331 13.2031C49.6365 14.548 48.7778 17.5793 47.6191 18.8104C47.4846 18.7587 47.3501 18.707 47.1742 18.707C46.9259 18.707 46.6983 18.8208 46.6673 18.9656C46.6362 19.1105 46.8121 19.2243 47.0604 19.2243C47.257 19.2243 47.4535 19.1725 47.7122 19.0173C47.8467 19.0587 48.0122 19.0898 48.1777 19.0898C48.6019 19.0898 49.0985 18.8518 49.5227 18.4276C51.0539 16.8965 52.9885 13.7307 54.6335 12.0961C55.2335 11.496 56.2991 10.6787 57.7165 10.6787C58.9994 10.6787 59.8477 11.465 59.8477 11.465C59.8787 11.4339 59.8684 11.3822 59.796 11.3098C59.1028 10.6166 58.2648 10.3166 57.5096 10.3166C56.7543 10.3166 55.4818 10.5753 53.93 12.1271C52.285 13.7721 50.4124 17.0724 49.1813 18.3035C48.664 18.8208 48.3329 18.9346 48.0639 18.9346C48.0019 18.9346 47.9295 18.9242 47.8674 18.9035C48.0743 18.7587 48.3122 18.5414 48.6123 18.2414C50.6297 16.224 51.0849 12.5306 52.2022 11.4133C52.1195 11.3305 51.5711 11.465 50.609 12.4271C49.0571 13.979 48.1777 16.6896 46.6466 18.2207C46.1707 18.6966 45.6637 18.8932 45.3534 18.8932C45.2913 18.8932 45.2292 18.8829 45.1671 18.8725C45.3637 18.7277 45.5913 18.5208 45.8707 18.2414C46.9983 17.1137 48.2088 13.71 49.5227 12.034C50.9918 11.9616 50.9711 11.2684 50.5055 11.2684C50.2365 11.2684 49.8538 11.4443 49.4813 11.6926C49.1089 11.3615 48.4778 11.1236 47.6191 11.1236C46.6983 11.1236 45.8189 11.3822 45.0533 11.8064C43.367 11.8064 41.0392 13.5859 41.0392 16.5965C41.0392 16.6792 41.0392 16.762 41.0496 16.8447C40.6461 16.5758 40.284 16.0792 40.284 15.2515C40.284 12.8306 43.967 9.89243 48.3122 9.89243C50.0503 9.89243 51.8194 10.4718 52.9161 11.2684L52.9782 11.196C52.3057 10.5235 50.6607 9.46826 47.8053 9.46826C44.0498 9.46826 39.9219 11.6719 39.9219 15.2412C39.9219 16.2137 40.5012 16.8551 41.0806 17.1655C41.3496 19.3174 43.1187 20.6002 44.9292 20.6002H94.1748V20.3209H45.1258V20.3416ZM45.7051 12.2616C47.1846 13.1927 45.5292 17.1137 43.667 17.1137C43.4601 17.1137 43.2946 17.062 43.1601 16.9792C43.7705 16.5758 44.4119 15.8102 44.8154 14.3825L44.7326 14.3514C44.4223 15.2929 43.7705 16.2964 42.9739 16.8034C42.7463 16.5344 42.6738 16.1205 42.6738 15.7378C42.6635 14.5687 44.0808 13.0893 45.7051 12.2616ZM41.422 16.5137C41.422 14.6204 43.0566 12.3547 44.6292 12.0857C43.2532 12.9961 42.3221 14.4135 42.3221 15.6446C42.3221 16.1619 42.4462 16.6378 42.7049 16.9586C42.4462 17.0827 42.1876 17.1448 41.9083 17.1448C41.7841 17.1448 41.6289 17.1241 41.453 17.062C41.4323 16.8861 41.422 16.6999 41.422 16.5137Z" fill="#E5C989"/>
<path d="M84.7 10.8956H82.3516V19.1101H84.7V10.8956Z" fill="white"/>
<path d="M90.1641 19.1101H94.1679V16.5754H92.5539V10.8956H90.1641V19.1101Z" fill="white"/>
<path d="M85.5703 19.1101H89.5844V16.5754H87.9602V10.8956H85.5703V19.1101Z" fill="white"/>
<path d="M79.1322 10.8956V13.7821H77.9735V10.8956H75.625V19.1101H77.9735V15.8512H79.1322V19.1101H81.4807V10.8956H79.1322Z" fill="white"/>
<line x1="35.2087" y1="9.19543" x2="35.2087" y2="20.6897" stroke="#8B8C95" stroke-width="0.229885"/>
<path d="M11.9534 26.5615V26.5726C12.4224 26.6222 12.7479 26.9533 12.7479 27.4553C12.7479 28.0346 12.3231 28.4484 11.6224 28.4484H9.87341V24.7519H11.5175C12.2237 24.7519 12.621 25.1381 12.621 25.7008C12.621 26.1643 12.3231 26.5064 11.9534 26.5615ZM10.1548 24.9946V26.4677H11.5782C12.0417 26.4677 12.3562 26.1643 12.3562 25.7119C12.3562 25.2815 12.0417 24.9946 11.4955 24.9946H10.1548ZM10.1548 28.2057H11.6003C12.13 28.2057 12.4665 27.8912 12.4665 27.4388C12.4665 26.9808 12.1079 26.6995 11.5948 26.6995H10.1548V28.2057ZM13.7181 24.7188C13.8395 24.7188 13.9278 24.8126 13.9278 24.9284C13.9278 25.0443 13.8395 25.1326 13.7181 25.1326C13.5912 25.1326 13.5029 25.0443 13.5029 24.9284C13.5029 24.8126 13.5912 24.7188 13.7181 24.7188ZM13.8505 28.4484H13.5857V25.7505H13.8505V28.4484ZM17.3582 25.7505V28.2553C17.3527 29.0167 16.8285 29.4967 16.0451 29.4967C15.3499 29.4967 14.9141 29.2098 14.7154 28.7408L14.9527 28.5974C15.1347 29.0057 15.4603 29.2484 16.0451 29.2484C16.6685 29.2484 17.0878 28.8457 17.0934 28.2277V27.7146C16.8727 28.0788 16.4809 28.2939 15.9899 28.2939C15.2672 28.2939 14.6492 27.7698 14.6492 26.9864C14.6492 26.2084 15.2672 25.6898 15.9899 25.6898C16.4809 25.6898 16.8727 25.8995 17.0934 26.2636V25.7505H17.3582ZM16.023 28.0567C16.5858 28.0567 17.0934 27.6429 17.0934 26.9864C17.0934 26.3353 16.5858 25.927 16.023 25.927C15.4161 25.927 14.9085 26.3353 14.9085 26.9864C14.9085 27.6429 15.4161 28.0567 16.023 28.0567ZM20.8106 25.7505V28.2553C20.805 29.0167 20.2809 29.4967 19.4975 29.4967C18.8023 29.4967 18.3664 29.2098 18.1678 28.7408L18.405 28.5974C18.5871 29.0057 18.9126 29.2484 19.4975 29.2484C20.1209 29.2484 20.5402 28.8457 20.5457 28.2277V27.7146C20.325 28.0788 19.9333 28.2939 19.4423 28.2939C18.7195 28.2939 18.1016 27.7698 18.1016 26.9864C18.1016 26.2084 18.7195 25.6898 19.4423 25.6898C19.9333 25.6898 20.325 25.8995 20.5457 26.2636V25.7505H20.8106ZM19.4754 28.0567C20.0381 28.0567 20.5457 27.6429 20.5457 26.9864C20.5457 26.3353 20.0381 25.927 19.4754 25.927C18.8685 25.927 18.3609 26.3353 18.3609 26.9864C18.3609 27.6429 18.8685 28.0567 19.4754 28.0567ZM24.2629 27.025V27.1243H21.8188C21.8298 27.847 22.376 28.2719 22.9167 28.2719C23.3857 28.2719 23.7719 28.0622 23.965 27.5822L24.2022 27.6374C23.9981 28.2057 23.5347 28.5091 22.9167 28.5091C22.2271 28.5091 21.554 27.9795 21.554 27.1077C21.554 26.2305 22.2216 25.6843 22.9498 25.6843C23.6891 25.6843 24.2353 26.225 24.2629 27.025ZM22.9498 25.927C22.4367 25.927 21.9071 26.2912 21.8298 26.9146H23.9926C23.9264 26.2857 23.496 25.927 22.9498 25.927ZM26.4251 25.7284C26.4858 25.7284 26.5354 25.7284 26.6127 25.745L26.5851 25.9988C26.5299 25.9877 26.4747 25.9877 26.4251 25.9877C25.6803 25.9877 25.2775 26.6057 25.2775 27.3229V28.4484H25.0072V25.7505H25.2775V26.5064C25.4927 26.0595 25.8899 25.7284 26.4251 25.7284ZM26.6817 29.1767H26.4666L26.8472 27.7367H27.1728V27.7533L26.6817 29.1767ZM30.4131 24.6912C31.1524 24.6912 31.6379 25.0995 31.7593 25.6788L31.4834 25.745C31.3897 25.2539 30.9869 24.9339 30.4021 24.9339C29.8503 24.9339 29.4476 25.2319 29.4476 25.7064C29.4476 26.1091 29.7234 26.2636 30.1041 26.3519L30.9152 26.545C31.3786 26.6443 31.82 26.8539 31.82 27.4553C31.82 28.1008 31.2959 28.5091 30.5014 28.5091C29.7069 28.5091 29.1 28.0953 29.0172 27.4112L29.3152 27.345C29.3814 27.9188 29.8724 28.2608 30.5234 28.2608C31.1524 28.2608 31.5441 27.9464 31.5441 27.4664C31.5441 27.0526 31.3069 26.9036 30.8545 26.7988L29.9993 26.6001C29.5083 26.4843 29.1497 26.2415 29.1497 25.7119C29.1497 25.0884 29.6683 24.6912 30.4131 24.6912ZM33.8967 28.0733L34.0015 28.2939C33.8084 28.4429 33.6319 28.5091 33.4112 28.5091C32.9312 28.5091 32.6056 28.2057 32.6056 27.687V25.9822H32.0153V25.7505H32.6056V24.8622H32.876V25.7505H33.8856V25.9822H32.876V27.6705C32.876 28.0346 33.0967 28.2553 33.4277 28.2553C33.5987 28.2553 33.7587 28.1891 33.8967 28.0733ZM35.9714 25.7284C36.0321 25.7284 36.0818 25.7284 36.159 25.745L36.1314 25.9988C36.0762 25.9877 36.0211 25.9877 35.9714 25.9877C35.2266 25.9877 34.8238 26.6057 34.8238 27.3229V28.4484H34.5535V25.7505H34.8238V26.5064C35.039 26.0595 35.4362 25.7284 35.9714 25.7284ZM37.7904 25.6898C38.5904 25.6898 39.2084 26.2801 39.2084 27.0967C39.2084 27.9133 38.5904 28.5091 37.7904 28.5091C36.9904 28.5091 36.3725 27.9133 36.3725 27.0967C36.3725 26.2801 36.9904 25.6898 37.7904 25.6898ZM37.7904 28.2664C38.4359 28.2664 38.9435 27.7753 38.9435 27.0967C38.9435 26.4126 38.4359 25.927 37.7904 25.927C37.1449 25.927 36.6373 26.4126 36.6373 27.0967C36.6373 27.7753 37.1449 28.2664 37.7904 28.2664ZM41.3342 25.6843C41.9852 25.6843 42.4211 26.1533 42.4211 26.8429V28.4484H42.1507V26.8815C42.1507 26.3133 41.8087 25.9381 41.3011 25.9381C40.6556 25.9381 40.2252 26.3739 40.2252 27.0967V28.4484H39.9549V25.7505H40.2252V26.3243C40.4349 25.9215 40.8211 25.6843 41.3342 25.6843ZM45.8138 25.7505V28.2553C45.8083 29.0167 45.2841 29.4967 44.5007 29.4967C43.8055 29.4967 43.3697 29.2098 43.171 28.7408L43.4083 28.5974C43.5903 29.0057 43.9159 29.2484 44.5007 29.2484C45.1241 29.2484 45.5434 28.8457 45.549 28.2277V27.7146C45.3283 28.0788 44.9365 28.2939 44.4455 28.2939C43.7228 28.2939 43.1048 27.7698 43.1048 26.9864C43.1048 26.2084 43.7228 25.6898 44.4455 25.6898C44.9365 25.6898 45.3283 25.8995 45.549 26.2636V25.7505H45.8138ZM44.4786 28.0567C45.0414 28.0567 45.549 27.6429 45.549 26.9864C45.549 26.3353 45.0414 25.927 44.4786 25.927C43.8717 25.927 43.3641 26.3353 43.3641 26.9864C43.3641 27.6429 43.8717 28.0567 44.4786 28.0567ZM49.2662 27.025V27.1243H46.822C46.8331 27.847 47.3793 28.2719 47.92 28.2719C48.3889 28.2719 48.7751 28.0622 48.9682 27.5822L49.2055 27.6374C49.0013 28.2057 48.5379 28.5091 47.92 28.5091C47.2303 28.5091 46.5572 27.9795 46.5572 27.1077C46.5572 26.2305 47.2248 25.6843 47.9531 25.6843C48.6924 25.6843 49.2386 26.225 49.2662 27.025ZM47.9531 25.927C47.44 25.927 46.9103 26.2912 46.8331 26.9146H48.9958C48.9296 26.2857 48.4993 25.927 47.9531 25.927ZM51.4283 25.7284C51.489 25.7284 51.5387 25.7284 51.6159 25.745L51.5883 25.9988C51.5331 25.9877 51.478 25.9877 51.4283 25.9877C50.6835 25.9877 50.2807 26.6057 50.2807 27.3229V28.4484H50.0104V25.7505H50.2807V26.5064C50.4959 26.0595 50.8931 25.7284 51.4283 25.7284ZM51.685 29.1767H51.4698L51.8505 27.7367H52.176V27.7533L51.685 29.1767ZM56.3267 26.5615V26.5726C56.7956 26.6222 57.1212 26.9533 57.1212 27.4553C57.1212 28.0346 56.6963 28.4484 55.9956 28.4484H54.2467V24.7519H55.8908C56.597 24.7519 56.9943 25.1381 56.9943 25.7008C56.9943 26.1643 56.6963 26.5064 56.3267 26.5615ZM54.5281 24.9946V26.4677H55.9515C56.415 26.4677 56.7294 26.1643 56.7294 25.7119C56.7294 25.2815 56.415 24.9946 55.8687 24.9946H54.5281ZM54.5281 28.2057H55.9736C56.5032 28.2057 56.8398 27.8912 56.8398 27.4388C56.8398 26.9808 56.4812 26.6995 55.9681 26.6995H54.5281V28.2057ZM60.3534 27.025V27.1243H57.9093C57.9203 27.847 58.4665 28.2719 59.0072 28.2719C59.4762 28.2719 59.8624 28.0622 60.0555 27.5822L60.2928 27.6374C60.0886 28.2057 59.6252 28.5091 59.0072 28.5091C58.3176 28.5091 57.6445 27.9795 57.6445 27.1077C57.6445 26.2305 58.3121 25.6843 59.0403 25.6843C59.7797 25.6843 60.3259 26.225 60.3534 27.025ZM59.0403 25.927C58.5272 25.927 57.9976 26.2912 57.9203 26.9146H60.0831C60.0169 26.2857 59.5865 25.927 59.0403 25.927ZM62.4439 28.0733L62.5487 28.2939C62.3556 28.4429 62.179 28.5091 61.9584 28.5091C61.4784 28.5091 61.1528 28.2057 61.1528 27.687V25.9822H60.5625V25.7505H61.1528V24.8622H61.4232V25.7505H62.4328V25.9822H61.4232V27.6705C61.4232 28.0346 61.6439 28.2553 61.9749 28.2553C62.1459 28.2553 62.3059 28.1891 62.4439 28.0733ZM64.4469 28.0733L64.5517 28.2939C64.3586 28.4429 64.1821 28.5091 63.9614 28.5091C63.4814 28.5091 63.1559 28.2057 63.1559 27.687V25.9822H62.5655V25.7505H63.1559V24.8622H63.4262V25.7505H64.4359V25.9822H63.4262V27.6705C63.4262 28.0346 63.6469 28.2553 63.9779 28.2553C64.149 28.2553 64.309 28.1891 64.4469 28.0733ZM67.4509 27.025V27.1243H65.0067C65.0178 27.847 65.564 28.2719 66.1047 28.2719C66.5736 28.2719 66.9598 28.0622 67.1529 27.5822L67.3902 27.6374C67.186 28.2057 66.7226 28.5091 66.1047 28.5091C65.415 28.5091 64.7419 27.9795 64.7419 27.1077C64.7419 26.2305 65.4095 25.6843 66.1378 25.6843C66.8771 25.6843 67.4233 26.225 67.4509 27.025ZM66.1378 25.927C65.6247 25.927 65.095 26.2912 65.0178 26.9146H67.1805C67.1143 26.2857 66.684 25.927 66.1378 25.927ZM69.613 25.7284C69.6737 25.7284 69.7234 25.7284 69.8006 25.745L69.773 25.9988C69.7178 25.9877 69.6627 25.9877 69.613 25.9877C68.8682 25.9877 68.4654 26.6057 68.4654 27.3229V28.4484H68.1951V25.7505H68.4654V26.5064C68.6806 26.0595 69.0778 25.7284 69.613 25.7284ZM74.5078 25.0057H73.0678V28.4484H72.7809V25.0057H71.3409V24.7519H74.5078V25.0057ZM75.7937 25.6898C76.5937 25.6898 77.2116 26.2801 77.2116 27.0967C77.2116 27.9133 76.5937 28.5091 75.7937 28.5091C74.9937 28.5091 74.3757 27.9133 74.3757 27.0967C74.3757 26.2801 74.9937 25.6898 75.7937 25.6898ZM75.7937 28.2664C76.4392 28.2664 76.9468 27.7753 76.9468 27.0967C76.9468 26.4126 76.4392 25.927 75.7937 25.927C75.1481 25.927 74.6406 26.4126 74.6406 27.0967C74.6406 27.7753 75.1481 28.2664 75.7937 28.2664ZM80.4078 25.7505V28.2553C80.4022 29.0167 79.8781 29.4967 79.0947 29.4967C78.3995 29.4967 77.9636 29.2098 77.765 28.7408L78.0022 28.5974C78.1843 29.0057 78.5098 29.2484 79.0947 29.2484C79.7181 29.2484 80.1374 28.8457 80.1429 28.2277V27.7146C79.9222 28.0788 79.5305 28.2939 79.0395 28.2939C78.3167 28.2939 77.6988 27.7698 77.6988 26.9864C77.6988 26.2084 78.3167 25.6898 79.0395 25.6898C79.5305 25.6898 79.9222 25.8995 80.1429 26.2636V25.7505H80.4078ZM79.0726 28.0567C79.6353 28.0567 80.1429 27.6429 80.1429 26.9864C80.1429 26.3353 79.6353 25.927 79.0726 25.927C78.4657 25.927 77.9581 26.3353 77.9581 26.9864C77.9581 27.6429 78.4657 28.0567 79.0726 28.0567ZM83.8601 27.025V27.1243H81.416C81.427 27.847 81.9732 28.2719 82.5139 28.2719C82.9829 28.2719 83.3691 28.0622 83.5622 27.5822L83.7994 27.6374C83.5953 28.2057 83.1318 28.5091 82.5139 28.5091C81.8243 28.5091 81.1512 27.9795 81.1512 27.1077C81.1512 26.2305 81.8187 25.6843 82.547 25.6843C83.2863 25.6843 83.8325 26.225 83.8601 27.025ZM82.547 25.927C82.0339 25.927 81.5043 26.2912 81.427 26.9146H83.5898C83.5236 26.2857 83.0932 25.927 82.547 25.927ZM85.9506 28.0733L86.0554 28.2939C85.8623 28.4429 85.6857 28.5091 85.465 28.5091C84.985 28.5091 84.6595 28.2057 84.6595 27.687V25.9822H84.0692V25.7505H84.6595V24.8622H84.9299V25.7505H85.9395V25.9822H84.9299V27.6705C84.9299 28.0346 85.1506 28.2553 85.4816 28.2553C85.6526 28.2553 85.8126 28.1891 85.9506 28.0733ZM87.9812 25.6843C88.6322 25.6843 89.0681 26.1533 89.0681 26.8429V28.4484H88.7977V26.8815C88.7977 26.3133 88.4556 25.9381 87.9481 25.9381C87.3025 25.9381 86.8722 26.3739 86.8722 27.0967V28.4484H86.6019V24.476H86.8722V26.3243C87.0819 25.9215 87.4681 25.6843 87.9812 25.6843ZM92.4608 27.025V27.1243H90.0166C90.0277 27.847 90.5739 28.2719 91.1146 28.2719C91.5835 28.2719 91.9697 28.0622 92.1628 27.5822L92.4001 27.6374C92.1959 28.2057 91.7325 28.5091 91.1146 28.5091C90.4249 28.5091 89.7518 27.9795 89.7518 27.1077C89.7518 26.2305 90.4194 25.6843 91.1477 25.6843C91.887 25.6843 92.4332 26.225 92.4608 27.025ZM91.1477 25.927C90.6346 25.927 90.1049 26.2912 90.0277 26.9146H92.1904C92.1242 26.2857 91.6939 25.927 91.1477 25.927ZM94.6229 25.7284C94.6836 25.7284 94.7333 25.7284 94.8105 25.745L94.7829 25.9988C94.7278 25.9877 94.6726 25.9877 94.6229 25.9877C93.8781 25.9877 93.4753 26.6057 93.4753 27.3229V28.4484H93.205V25.7505H93.4753V26.5064C93.6905 26.0595 94.0878 25.7284 94.6229 25.7284Z" fill="#D8D9DD"/>
</g>
</svg>
