<svg width="24" height="24" viewBox="0 0 24 24" fill="none" xmlns="http://www.w3.org/2000/svg">
<path d="M3.75001 11.9998C3.74979 10.5515 4.13082 9.12869 4.85482 7.87435C5.57882 6.62001 6.62026 5.57837 7.87446 4.85412C9.12865 4.12988 10.5514 3.74857 11.9997 3.74851C13.448 3.74845 14.8708 4.12966 16.125 4.8538C16.2972 4.95169 16.5011 4.9775 16.6922 4.92561C16.8833 4.87372 17.0462 4.74834 17.1452 4.57682C17.2442 4.40531 17.2714 4.20158 17.2208 4.01011C17.1702 3.81864 17.0459 3.65496 16.875 3.5548C15.0163 2.48167 12.8554 2.05183 10.7275 2.33194C8.59964 2.61205 6.62362 3.58645 5.10594 5.10404C3.58826 6.62162 2.61373 8.59757 2.33349 10.7255C2.05324 12.8533 2.48294 15.0142 3.55595 16.873C4.62896 18.7318 6.28531 20.1846 8.26813 21.0061C10.2509 21.8276 12.4494 21.9719 14.5226 21.4166C16.5958 20.8613 18.4278 19.6374 19.7345 17.9348C21.0413 16.2322 21.7497 14.1461 21.75 11.9998C21.75 11.8009 21.671 11.6101 21.5303 11.4695C21.3897 11.3288 21.1989 11.2498 21 11.2498C20.8011 11.2498 20.6103 11.3288 20.4697 11.4695C20.329 11.6101 20.25 11.8009 20.25 11.9998C20.25 14.1878 19.3808 16.2863 17.8336 17.8334C16.2865 19.3806 14.1881 20.2498 12 20.2498C9.81198 20.2498 7.71356 19.3806 6.16638 17.8334C4.61921 16.2863 3.75001 14.1878 3.75001 11.9998Z" fill="url(#paint0_linear_983_14493)"/>
<path d="M23.031 5.03097C23.1007 4.96124 23.156 4.87846 23.1938 4.78735C23.2315 4.69624 23.2509 4.59859 23.2509 4.49997C23.2509 4.40135 23.2315 4.3037 23.1938 4.2126C23.156 4.12149 23.1007 4.0387 23.031 3.96897C22.9612 3.89924 22.8785 3.84392 22.7873 3.80619C22.6962 3.76845 22.5986 3.74902 22.5 3.74902C22.4014 3.74902 22.3037 3.76845 22.2126 3.80619C22.1215 3.84392 22.0387 3.89924 21.969 3.96897L12 13.9395L8.03097 9.96897C7.96124 9.89924 7.87846 9.84392 7.78735 9.80619C7.69624 9.76845 7.59859 9.74902 7.49997 9.74902C7.40136 9.74902 7.3037 9.76845 7.2126 9.80619C7.12149 9.84392 7.0387 9.89924 6.96897 9.96897C6.89924 10.0387 6.84392 10.1215 6.80619 10.2126C6.76845 10.3037 6.74902 10.4014 6.74902 10.5C6.74902 10.5986 6.76845 10.6962 6.80619 10.7873C6.84392 10.8785 6.89924 10.9612 6.96897 11.031L11.469 15.531C11.5386 15.6008 11.6214 15.6562 11.7125 15.694C11.8036 15.7318 11.9013 15.7513 12 15.7513C12.0986 15.7513 12.1963 15.7318 12.2874 15.694C12.3785 15.6562 12.4613 15.6008 12.531 15.531L23.031 5.03097V5.03097Z" fill="url(#paint1_linear_983_14493)"/>
<defs>
<linearGradient id="paint0_linear_983_14493" x1="21.0233" y1="2.24853" x2="-0.375954" y2="20.0681" gradientUnits="userSpaceOnUse">
<stop stop-color="#025344"/>
<stop offset="1" stop-color="#00836B"/>
</linearGradient>
<linearGradient id="paint1_linear_983_14493" x1="22.6359" y1="3.74902" x2="9.36505" y2="18.9429" gradientUnits="userSpaceOnUse">
<stop stop-color="#025344"/>
<stop offset="1" stop-color="#00836B"/>
</linearGradient>
</defs>
</svg>
