<svg width="1440" height="342" viewBox="0 0 1440 342" fill="none" xmlns="http://www.w3.org/2000/svg">
<g clip-path="url(#clip0_943_14129)">
<rect width="1440" height="342" fill="url(#paint0_linear_943_14129)"/>
<path d="M4.35258e-06 71C47.9325 71 95.3956 80.441 139.679 98.784C183.963 117.127 224.201 144.013 258.094 177.906C291.987 211.799 318.873 252.037 337.216 296.321C355.559 340.604 365 388.068 365 436L0 436L4.35258e-06 71Z" fill="#026B57"/>
<path d="M263 483C263 445.074 247.934 408.701 221.116 381.884C194.299 355.066 157.926 340 120 340L120 483L263 483Z" fill="#025D4C"/>
<mask id="path-3-inside-1_943_14129" fill="white">
<path d="M104 739C151.863 739 198.651 724.807 238.448 698.216C278.245 671.624 309.262 633.829 327.579 589.609C345.895 545.39 350.688 496.732 341.35 449.788C332.012 402.845 308.964 359.724 275.12 325.88C241.276 292.036 198.155 268.988 151.212 259.65C104.268 250.312 55.6103 255.105 11.3906 273.421C-32.8291 291.738 -70.6244 322.755 -97.2157 362.552C-123.807 402.349 -138 449.137 -138 497L104 497L104 739Z"/>
</mask>
<path d="M104 739C151.863 739 198.651 724.807 238.448 698.216C278.245 671.624 309.262 633.829 327.579 589.609C345.895 545.39 350.688 496.732 341.35 449.788C332.012 402.845 308.964 359.724 275.12 325.88C241.276 292.036 198.155 268.988 151.212 259.65C104.268 250.312 55.6103 255.105 11.3906 273.421C-32.8291 291.738 -70.6244 322.755 -97.2157 362.552C-123.807 402.349 -138 449.137 -138 497L104 497L104 739Z" stroke="#00CFA8" stroke-width="6" mask="url(#path-3-inside-1_943_14129)"/>
<path d="M1466 270C1418.07 270 1370.6 260.559 1326.32 242.216C1282.04 223.873 1241.8 196.987 1207.91 163.094C1174.01 129.201 1147.13 88.9633 1128.78 44.6794C1110.44 0.395561 1101 -47.0676 1101 -95.0001L1466 -95L1466 270Z" fill="#026B57"/>
<path d="M1203 -142C1203 -104.074 1218.07 -67.7014 1244.88 -40.8837C1271.7 -14.066 1308.07 1 1346 1L1346 -142L1203 -142Z" fill="#025D4C"/>
<mask id="path-6-inside-2_943_14129" fill="white">
<path d="M1362 -398C1314.14 -398 1267.35 -383.807 1227.55 -357.216C1187.76 -330.624 1156.74 -292.829 1138.42 -248.609C1120.1 -204.39 1115.31 -155.732 1124.65 -108.788C1133.99 -61.8447 1157.04 -18.7244 1190.88 15.1199C1224.72 48.9642 1267.84 72.0124 1314.79 81.35C1361.73 90.6877 1410.39 85.8952 1454.61 67.5788C1498.83 49.2624 1536.62 18.2447 1563.22 -21.552C1589.81 -61.3487 1604 -108.137 1604 -156L1362 -156L1362 -398Z"/>
</mask>
<path d="M1362 -398C1314.14 -398 1267.35 -383.807 1227.55 -357.216C1187.76 -330.624 1156.74 -292.829 1138.42 -248.609C1120.1 -204.39 1115.31 -155.732 1124.65 -108.788C1133.99 -61.8447 1157.04 -18.7244 1190.88 15.1199C1224.72 48.9642 1267.84 72.0124 1314.79 81.35C1361.73 90.6877 1410.39 85.8952 1454.61 67.5788C1498.83 49.2624 1536.62 18.2447 1563.22 -21.552C1589.81 -61.3487 1604 -108.137 1604 -156L1362 -156L1362 -398Z" stroke="#00CFA8" stroke-width="6" mask="url(#path-6-inside-2_943_14129)"/>
</g>
<defs>
<linearGradient id="paint0_linear_943_14129" x1="1386.34" y1="-1.89709e-05" x2="1185.03" y2="705.817" gradientUnits="userSpaceOnUse">
<stop stop-color="#025344"/>
<stop offset="1" stop-color="#00836B"/>
</linearGradient>
<clipPath id="clip0_943_14129">
<rect width="1440" height="342" fill="white"/>
</clipPath>
</defs>
</svg>
