<svg width="346" height="244" viewBox="0 0 346 244" fill="none" xmlns="http://www.w3.org/2000/svg">
<g clip-path="url(#clip0_943_15159)">
<path d="M4.35258e-06 0C47.9325 5.71589e-07 95.3956 9.44101 139.679 27.784C183.963 46.1269 224.201 73.0127 258.094 106.906C291.987 140.799 318.873 181.037 337.216 225.321C355.559 269.604 365 317.068 365 365L0 365L4.35258e-06 0Z" fill="#026B57"/>
<mask id="path-2-inside-1_943_15159" fill="white">
<path d="M104 668C151.863 668 198.651 653.807 238.448 627.216C278.245 600.624 309.262 562.829 327.579 518.609C345.895 474.39 350.688 425.732 341.35 378.788C332.012 331.845 308.964 288.724 275.12 254.88C241.276 221.036 198.155 197.988 151.212 188.65C104.268 179.312 55.6103 184.105 11.3906 202.421C-32.8291 220.738 -70.6244 251.755 -97.2157 291.552C-123.807 331.349 -138 378.137 -138 426L104 426L104 668Z"/>
</mask>
<path d="M104 668C151.863 668 198.651 653.807 238.448 627.216C278.245 600.624 309.262 562.829 327.579 518.609C345.895 474.39 350.688 425.732 341.35 378.788C332.012 331.845 308.964 288.724 275.12 254.88C241.276 221.036 198.155 197.988 151.212 188.65C104.268 179.312 55.6103 184.105 11.3906 202.421C-32.8291 220.738 -70.6244 251.755 -97.2157 291.552C-123.807 331.349 -138 378.137 -138 426L104 426L104 668Z" stroke="#00CFA8" stroke-width="6" mask="url(#path-2-inside-1_943_15159)"/>
</g>
<defs>
<clipPath id="clip0_943_15159">
<rect width="346" height="244" fill="white"/>
</clipPath>
</defs>
</svg>
