<svg width="19" height="19" viewBox="0 0 19 19" fill="none" xmlns="http://www.w3.org/2000/svg">
<path opacity="0.2" d="M6.86523 9.26249C7.47622 10.5242 8.49647 11.5419 9.75977 12.1496C9.85295 12.1937 9.95602 12.2128 10.0588 12.205C10.1616 12.1972 10.2606 12.1628 10.3461 12.1051L12.2016 10.8656C12.2835 10.81 12.3783 10.7761 12.4769 10.767C12.5755 10.7579 12.6749 10.774 12.7656 10.8137L16.2391 12.3055C16.3578 12.3549 16.457 12.4419 16.5213 12.5532C16.5857 12.6646 16.6117 12.7939 16.5953 12.9215C16.4852 13.7807 16.0658 14.5704 15.4156 15.1428C14.7653 15.7152 13.9288 16.031 13.0625 16.0312C10.3855 16.0312 7.81809 14.9678 5.92514 13.0749C4.0322 11.1819 2.96875 8.61452 2.96875 5.93749C2.96895 5.07121 3.28478 4.23468 3.85717 3.58443C4.42955 2.93418 5.21926 2.51477 6.07852 2.40468C6.20605 2.3883 6.33544 2.4143 6.44675 2.47867C6.55806 2.54304 6.64512 2.64222 6.69453 2.76093L8.18633 6.24179C8.22512 6.33111 8.24135 6.4286 8.23359 6.52567C8.22582 6.62274 8.1943 6.71641 8.1418 6.79843L6.90234 8.68359C6.84716 8.76885 6.81478 8.86685 6.80828 8.9682C6.80178 9.06956 6.82139 9.17088 6.86523 9.26249Z" fill="white"/>
<path d="M6.86523 9.26249C7.47622 10.5242 8.49647 11.5419 9.75977 12.1496C9.85295 12.1937 9.95602 12.2128 10.0588 12.205C10.1616 12.1972 10.2606 12.1628 10.3461 12.1051L12.2016 10.8656C12.2835 10.81 12.3783 10.7761 12.4769 10.767C12.5755 10.7579 12.6749 10.774 12.7656 10.8137L16.2391 12.3055C16.3578 12.3549 16.457 12.4419 16.5213 12.5532C16.5857 12.6646 16.6117 12.7939 16.5953 12.9215C16.4852 13.7807 16.0658 14.5704 15.4156 15.1428C14.7653 15.7152 13.9288 16.031 13.0625 16.0312C10.3855 16.0312 7.81809 14.9678 5.92514 13.0749C4.0322 11.1819 2.96875 8.61452 2.96875 5.93749C2.96895 5.07121 3.28478 4.23468 3.85717 3.58443C4.42955 2.93418 5.21926 2.51477 6.07852 2.40468C6.20605 2.3883 6.33544 2.4143 6.44675 2.47867C6.55806 2.54304 6.64512 2.64222 6.69453 2.76093L8.18633 6.24179C8.22512 6.33111 8.24135 6.4286 8.23359 6.52567C8.22582 6.62274 8.1943 6.71641 8.1418 6.79843L6.90234 8.68359C6.84716 8.76885 6.81478 8.86685 6.80828 8.9682C6.80178 9.06956 6.82139 9.17088 6.86523 9.26249Z" stroke="white" stroke-width="1.1875" stroke-linecap="round" stroke-linejoin="round"/>
<path d="M11.8301 2.96875C12.8372 3.23904 13.7555 3.76946 14.4928 4.50679C15.2301 5.24413 15.7606 6.16242 16.0309 7.16953" stroke="white" stroke-width="1.1875" stroke-linecap="round" stroke-linejoin="round"/>
<path d="M11.2148 5.26221C11.8206 5.42307 12.373 5.7412 12.8161 6.18435C13.2593 6.62751 13.5774 7.17993 13.7383 7.78564" stroke="white" stroke-width="1.1875" stroke-linecap="round" stroke-linejoin="round"/>
</svg>
