<svg width="352" height="92" viewBox="0 0 352 92" fill="none" xmlns="http://www.w3.org/2000/svg">
<g clip-path="url(#clip0_942_13253)">
<mask id="mask0_942_13253" style="mask-type:luminance" maskUnits="userSpaceOnUse" x="46" y="14" width="260" height="64">
<path d="M305.024 14.3475H46.75V77.6522H305.024V14.3475Z" fill="white"/>
</mask>
<g mask="url(#mask0_942_13253)">
<path d="M62.2132 54.4076C63.2203 56.8535 64.3233 59.7311 64.8509 62.7524C65.4264 66.0136 64.9468 68.2675 63.4121 69.6584C62.6448 70.3777 61.6857 70.7135 60.8704 70.6175C60.0071 70.5217 59.1919 69.994 58.5684 69.1788C57.0337 67.1165 57.3694 64.2871 58.0408 61.5534C58.8082 58.2922 59.9592 55.127 61.254 52.0577C61.5418 52.8251 61.8775 53.6403 62.2132 54.4076ZM56.1705 33.498C55.1634 31.0521 54.0603 28.1746 53.5328 25.1533C52.9573 21.8921 53.4369 19.6381 54.9715 18.2473C55.6429 17.6239 56.4582 17.2402 57.2255 17.2402C57.3215 17.2402 57.4174 17.2402 57.5612 17.2402C58.4245 17.3361 59.2398 17.8636 59.8632 18.6789C61.3979 20.7411 61.0622 23.5707 60.3908 26.3043C59.6235 29.5654 58.4725 32.7306 57.1776 35.8C56.8419 35.0805 56.5062 34.2653 56.1705 33.498ZM68.7834 26.2083C68.0641 26.1124 67.2967 26.4961 67.2009 27.4073C66.3376 33.5939 63.7958 39.349 61.2061 44.9599C60.8704 44.1926 60.4867 43.3774 60.151 42.6099C59.6714 41.6029 59.2398 40.5478 58.7602 39.4928C60.0551 36.6152 61.302 33.6899 62.2132 30.7164C63.3642 27.0716 66.0498 18.583 60.0071 15.0821C57.7052 13.7393 54.7317 14.2668 52.6216 16.4249C50.3196 18.8228 50.1757 22.1799 50.4635 24.5778C51.0869 29.7573 53.293 34.5531 55.4511 39.253C55.4991 39.3488 55.547 39.3968 55.547 39.4928C55.2593 40.1642 54.9236 40.8355 54.6358 41.4591C52.4777 46.1589 50.2716 51.0026 48.9768 56.1341C48.6411 57.429 48.4013 58.7718 48.2094 60.0667C48.0656 61.0259 48.7849 61.6494 49.5043 61.7452C50.2237 61.8412 50.991 61.4576 51.0869 60.5463C51.9502 54.3598 54.4919 48.6047 57.0817 42.9936C57.4174 43.761 57.8011 44.5283 58.1368 45.3437C58.6163 46.3987 59.0959 47.4058 59.5276 48.4609C58.2327 51.3384 56.9858 54.2638 56.0746 57.2372C54.9236 60.882 52.19 69.3706 58.2806 72.8716C59.1439 73.351 60.0551 73.5908 61.0142 73.5908C62.6448 73.5908 64.3234 72.8716 65.6662 71.5287C67.9681 69.1308 68.1121 65.7738 67.8243 63.3759C67.2009 58.1964 64.9948 53.4005 62.8366 48.7007C62.7887 48.6047 62.7407 48.5569 62.7407 48.4609C63.0285 47.7894 63.3642 47.118 63.6519 46.4946C65.81 41.7947 68.0161 36.951 69.311 31.8194C69.6466 30.5246 69.8864 29.1818 70.0782 27.8869C70.2222 26.9277 69.5508 26.3043 68.7834 26.2083Z" fill="#A6A9AE"/>
<path d="M49.8882 63.808C51.4708 63.6642 52.6218 62.2733 52.4299 60.7387C52.2861 59.156 50.8953 58.0531 49.3127 58.1969C47.7301 58.3407 46.5791 59.7316 46.7709 61.2663C46.9627 62.801 48.3056 63.9518 49.8882 63.808Z" fill="#6B6F75"/>
<path d="M68.5036 24.0991C66.9209 24.2429 65.7698 25.6337 65.9618 27.1684C66.1057 28.751 67.4963 29.854 69.079 29.7101C70.6617 29.5662 71.8126 28.1755 71.6208 26.6408C71.429 25.1062 70.0383 23.9552 68.5036 24.0991Z" fill="#6B6F75"/>
<path d="M221.723 72.344V70.3297H223.737V69.4187H221.723V68.1238H223.977V67.1646H220.716V72.344H221.723ZM216.496 67.0686C215.105 67.0686 213.858 68.0758 213.858 69.7543C213.858 71.4328 215.105 72.44 216.496 72.44C217.887 72.44 219.133 71.4328 219.133 69.7543C219.133 68.0758 217.887 67.0686 216.496 67.0686ZM216.496 71.4808C215.68 71.4808 214.865 70.9054 214.865 69.7543C214.865 68.6032 215.68 68.0278 216.496 68.0278C217.311 68.0278 218.126 68.6032 218.126 69.7543C218.078 70.9054 217.263 71.4808 216.496 71.4808ZM207.384 70.1379V72.296H208.391V70.1379L210.213 67.1646H209.062L207.911 69.2267L206.76 67.1646H205.561L207.384 70.1379ZM204.266 72.344V67.1646H203.259V70.5696L201.101 67.1646H199.854V72.344H200.861V68.6992L203.211 72.344H204.266ZM197.408 72.344H198.511L196.545 67.1646H195.394L193.428 72.344H194.483L194.915 71.1452H197.025L197.408 72.344ZM195.922 68.2676L196.641 70.2339H195.202L195.922 68.2676ZM191.174 70.3777C192.181 70.3777 192.852 69.7063 192.852 68.7472C192.852 67.836 192.181 67.1166 191.174 67.1166H189.256V72.296H190.263V70.3297H191.174V70.3777ZM190.215 69.5145V68.0278H191.03C191.51 68.0278 191.845 68.3156 191.845 68.7472C191.845 69.1789 191.557 69.4665 191.03 69.4665H190.215V69.5145ZM187.337 72.344V67.1646H185.946L184.412 70.9054L182.877 67.1646H181.534V72.344H182.494V68.7472L183.98 72.344H184.796L186.282 68.7472V72.344H187.337ZM177.314 67.0686C175.923 67.0686 174.676 68.0758 174.676 69.7543C174.676 71.4328 175.923 72.44 177.314 72.44C178.705 72.44 179.952 71.4328 179.952 69.7543C180 68.0758 178.753 67.0686 177.314 67.0686ZM177.314 71.4808C176.499 71.4808 175.683 70.9054 175.683 69.7543C175.683 68.6032 176.499 68.0278 177.314 68.0278C178.129 68.0278 178.945 68.6032 178.945 69.7543C178.945 70.9054 178.129 71.4808 177.314 71.4808ZM168.442 69.7543C168.442 71.3848 169.641 72.44 171.08 72.44C172.518 72.44 173.285 71.4808 173.477 70.6656L172.518 70.3777C172.374 70.8574 171.943 71.4328 171.08 71.4328C170.264 71.4328 169.497 70.8094 169.497 69.7063C169.497 68.5554 170.312 67.9798 171.08 67.9798C171.991 67.9798 172.374 68.5074 172.518 69.0349L173.477 68.7472C173.285 67.9318 172.518 67.0208 171.127 67.0208C169.689 67.0688 168.442 68.1238 168.442 69.7543ZM164.557 68.4114C164.461 67.836 163.982 67.0686 162.687 67.0686C161.728 67.0686 160.864 67.788 160.864 68.6992C160.864 69.4665 161.392 69.9941 162.207 70.1859L162.927 70.3297C163.31 70.4257 163.55 70.6656 163.55 70.9532C163.55 71.337 163.262 71.5768 162.735 71.5768C162.015 71.5768 161.632 71.0972 161.584 70.6176L160.673 70.8574C160.769 71.5768 161.344 72.4879 162.735 72.4879C163.934 72.4879 164.605 71.6726 164.605 70.9054C164.605 70.1859 164.126 69.5625 163.166 69.3707L162.447 69.2267C162.063 69.1309 161.871 68.9391 161.871 68.6512C161.871 68.3156 162.207 67.9798 162.687 67.9798C163.358 67.9798 163.598 68.4114 163.646 68.6992L164.557 68.4114ZM154.438 69.7543C154.438 71.3848 155.637 72.44 157.076 72.44C158.514 72.44 159.282 71.4808 159.474 70.6656L158.514 70.3777C158.371 70.8574 157.939 71.4328 157.076 71.4328C156.261 71.4328 155.493 70.8094 155.493 69.7063C155.493 68.5554 156.308 67.9798 157.076 67.9798C157.987 67.9798 158.371 68.5074 158.514 69.0349L159.474 68.7472C159.282 67.9318 158.514 67.0208 157.124 67.0208C155.685 67.0688 154.438 68.1238 154.438 69.7543ZM151.848 72.344H152.855V67.1646H151.848V72.344ZM147.676 72.344C149.163 72.344 150.218 71.3848 150.218 69.7543C150.218 68.1238 149.163 67.1646 147.676 67.1646H145.806V72.344H147.676ZM146.861 71.3848V68.0758H147.676C148.539 68.0758 149.211 68.6032 149.211 69.7063C149.211 70.8094 148.491 71.337 147.676 71.337H146.861V71.3848ZM144.127 72.344V71.3848H141.921V70.1859H143.935V69.2747H141.921V68.0758H144.127V67.1166H140.914V72.296H144.127V72.344ZM138.468 72.344H139.571L137.605 67.1646H136.454L134.488 72.344H135.543L135.974 71.1452H138.084L138.468 72.344ZM136.981 68.2676L137.701 70.2339H136.262L136.981 68.2676ZM132.185 70.3777C133.193 70.3777 133.864 69.7063 133.864 68.7472C133.864 67.836 133.193 67.1166 132.185 67.1166H130.267V72.296H131.274V70.3297H132.185V70.3777ZM131.274 69.5145V68.0278H132.09C132.569 68.0278 132.905 68.3156 132.905 68.7472C132.905 69.1789 132.617 69.4665 132.09 69.4665H131.274V69.5145ZM125.999 67.0686C124.608 67.0686 123.361 68.0758 123.361 69.7543C123.361 71.4328 124.608 72.44 125.999 72.44C127.39 72.44 128.637 71.4328 128.637 69.7543C128.685 68.0758 127.438 67.0686 125.999 67.0686ZM125.999 71.4808C125.184 71.4808 124.368 70.9054 124.368 69.7543C124.368 68.6032 125.184 68.0278 125.999 68.0278C126.814 68.0278 127.63 68.6032 127.63 69.7543C127.63 70.9054 126.814 71.4808 125.999 71.4808ZM121.779 72.344V67.1646H120.771V69.2267H118.517V67.1646H117.51V72.344H118.517V70.1859H120.771V72.344H121.779ZM116.168 68.1238V67.1646H111.899V68.1238H113.53V72.344H114.537V68.1238H116.168ZM109.597 72.344H110.7L109.597 70.2339C110.269 70.0421 110.7 69.5145 110.7 68.7951C110.7 67.884 110.077 67.2126 109.07 67.2126H107.055V72.392H108.063V70.4257H108.59L109.597 72.344ZM108.063 69.4665V68.0278H108.878C109.405 68.0278 109.693 68.3156 109.693 68.7472C109.693 69.1789 109.405 69.4665 108.878 69.4665H108.063ZM102.835 67.0686C101.444 67.0686 100.197 68.0758 100.197 69.7543C100.197 71.4328 101.444 72.44 102.835 72.44C104.226 72.44 105.473 71.4328 105.473 69.7543C105.473 68.0758 104.226 67.0686 102.835 67.0686ZM102.835 71.4808C102.02 71.4808 101.205 70.9054 101.205 69.7543C101.205 68.6032 102.02 68.0278 102.835 68.0278C103.65 68.0278 104.466 68.6032 104.466 69.7543C104.418 70.9054 103.602 71.4808 102.835 71.4808ZM96.2171 72.344V71.3848H94.0109V70.1859H96.0251V69.2747H94.0109V68.0758H96.2171V67.1166H93.0039V72.296H96.2171V72.344ZM91.0854 72.344V67.1646H90.0783V69.2267H87.8244V67.1646H86.8172V72.344H87.8244V70.1859H90.0783V72.344H91.0854ZM83.8438 68.1238V72.344H82.8367V68.1238H81.2061V67.1646H85.4743V68.1238H83.8438Z" fill="#6B6F75"/>
<path d="M267.519 70.9063C267.278 70.9543 267.135 70.9543 266.896 70.9543C266.367 70.9543 265.936 70.7625 265.936 70.4267C265.936 70.2349 266.032 70.1391 266.32 70.1391C266.8 70.1391 267.135 70.4267 267.519 70.9063ZM270.252 71.0503C270.491 71.3859 270.828 71.7216 271.163 72.0574C270.444 73.2563 269.868 74.6471 269.868 75.894C269.868 76.8052 270.06 77.4767 270.732 77.4767C272.123 77.4767 273.178 74.5991 273.178 72.489C273.178 71.8656 273.13 71.1941 273.082 70.5707C273.609 70.0431 274.377 69.2758 274.569 69.2278C274.473 69.5156 274.426 69.8033 274.426 70.0911C274.426 71.2421 275.096 72.3452 276.391 72.3452C277.59 72.3452 278.501 71.3379 278.501 69.9951C278.501 69.8033 278.501 69.6595 278.454 69.5156C278.885 69.4196 279.316 69.3238 279.7 69.084V71.8656C279.7 72.2492 279.941 72.3452 280.18 72.3452C280.515 72.3452 280.66 72.1054 280.899 71.6258C281.091 71.1941 281.618 70.2349 281.955 69.7075C282.194 69.2758 282.337 68.988 282.433 68.988C282.482 68.988 282.482 69.036 282.482 69.2278V71.5778C282.482 72.2012 282.817 72.393 283.105 72.393C283.393 72.393 283.585 72.2492 283.728 72.0094C284.447 71.0023 285.215 69.7555 285.503 69.2278C285.55 69.1318 285.646 69.084 285.695 69.084C285.742 69.084 285.791 69.1318 285.791 69.2758V71.7696C285.791 72.2012 285.934 72.441 286.271 72.441C286.606 72.441 286.798 72.2012 286.941 71.9614C287.421 71.0023 288.093 69.7555 288.381 69.2278C288.428 69.1318 288.524 69.036 288.573 69.036C288.62 69.036 288.62 69.084 288.62 69.2758V71.6258C288.62 72.2492 288.955 72.441 289.243 72.441C289.627 72.441 289.866 72.1532 290.154 71.8656C290.634 71.2899 291.258 70.1869 291.69 69.5156C291.834 69.7553 291.977 69.9951 292.122 70.2829C291.786 70.6665 291.45 71.1461 291.45 71.6258C291.45 72.1532 291.786 72.441 292.169 72.441C292.794 72.441 293.368 71.8176 293.368 71.0023C293.368 70.6665 293.272 70.3309 293.129 69.9951C293.705 69.4196 294.375 68.8922 294.855 68.7962C294.616 69.1318 294.424 69.6115 294.424 70.1871C294.424 71.3379 295.094 72.441 296.389 72.441C297.637 72.441 298.499 71.4339 298.499 70.0911C298.499 69.7075 298.499 69.6595 298.452 69.4676C298.74 69.3238 298.979 69.1318 299.171 68.988C299.316 68.8442 299.459 68.7962 299.555 68.7962C299.698 68.7962 299.747 68.8922 299.747 69.084V71.8176C299.747 72.2492 299.89 72.489 300.227 72.489C300.562 72.489 300.754 72.2492 300.897 72.0094C301.377 71.0503 302 69.7553 302.288 69.2758C302.384 69.1798 302.433 69.084 302.48 69.084C302.529 69.084 302.576 69.1318 302.576 69.3238V71.4819C302.576 72.1054 302.864 72.489 303.44 72.489C304.063 72.489 304.398 71.8656 304.974 70.9543C305.021 70.9063 305.021 70.8583 305.021 70.8105C305.021 70.6665 304.925 70.6187 304.782 70.6187C304.639 70.6187 304.59 70.7625 304.159 71.1941C304.063 71.2899 304.014 71.3859 303.822 71.3859C303.775 71.3859 303.726 71.3379 303.726 71.2421V68.7962C303.726 68.1248 303.44 67.885 303.056 67.885C302.768 67.885 302.48 68.029 302.241 68.4126C301.761 69.084 301.281 70.0911 301.042 70.5707C300.993 70.6187 300.993 70.7145 300.946 70.7145C300.897 70.7145 300.897 70.6665 300.897 70.5707V68.7962C300.897 68.2686 300.754 67.885 300.227 67.885C299.651 67.885 299.363 68.2686 298.932 68.5564C298.644 68.7482 298.452 68.8922 298.26 68.988C297.972 68.2686 297.492 67.933 297.061 67.933C296.63 67.933 296.342 68.2208 296.342 68.6524C296.342 69.1318 296.63 69.4196 297.014 69.5635C297.204 69.6595 297.396 69.6595 297.684 69.6595C297.78 69.6595 297.829 69.6595 297.925 69.6595C297.972 69.8033 297.925 69.9953 297.925 70.1391C297.925 70.8105 297.541 71.4819 296.773 71.4819C296.007 71.4819 295.527 70.7145 295.527 69.8993C295.527 69.2278 295.719 68.7002 296.054 68.3166C296.197 68.1728 296.293 68.0768 296.293 67.981C296.293 67.933 296.197 67.885 296.101 67.885C295.574 67.885 295 68.1248 294.616 68.3166C294.087 68.6044 293.464 69.036 292.937 69.5156C292.698 68.94 292.361 68.4606 292.218 68.0768C292.169 67.933 292.122 67.7411 292.026 67.7411C291.93 67.7411 291.881 67.837 291.834 68.029C291.594 68.7482 290.25 70.9063 289.962 71.1941C289.915 71.2421 289.915 71.2899 289.866 71.2899C289.819 71.2899 289.819 71.2899 289.819 71.1941V68.7482C289.819 68.0768 289.58 67.837 289.196 67.837C288.908 67.837 288.62 67.981 288.381 68.3646C287.901 69.036 287.374 70.0911 287.086 70.5707C287.037 70.6665 286.99 70.6665 286.99 70.6665C286.99 70.6665 286.941 70.6187 286.941 70.5227V68.7482C286.941 68.0768 286.653 67.837 286.318 67.837C286.03 67.837 285.695 67.933 285.503 68.3646C284.927 69.3716 283.969 70.8583 283.777 71.0981C283.728 71.1461 283.728 71.1461 283.681 71.1941C283.632 71.1941 283.632 71.1461 283.632 71.0981V68.7482C283.632 68.0768 283.393 67.837 283.009 67.837C282.529 67.837 282.241 68.3166 282.051 68.6044C281.81 68.988 281.475 69.5635 281.187 70.0431C280.995 70.3789 280.852 70.6665 280.803 70.6665C280.756 70.6665 280.756 70.5227 280.756 70.3309V68.4606C281.618 67.5013 282.145 66.3025 282.145 65.0076C282.145 64.2402 281.81 63.8565 281.283 63.8565C280.323 63.8565 279.604 65.3432 279.604 67.1177V68.5564C279.173 68.8442 278.742 68.988 278.213 69.084C277.974 68.3166 277.398 67.885 276.967 67.933C276.536 67.933 276.248 68.2208 276.248 68.6524C276.248 69.3716 276.967 69.7075 277.59 69.7075H277.782C277.782 69.8513 277.782 69.9953 277.782 70.1391C277.782 70.8105 277.398 71.4819 276.632 71.4819C275.864 71.4819 275.384 70.7145 275.384 69.8993C275.384 69.2278 275.576 68.7002 275.911 68.3166C276.056 68.1728 276.152 68.029 276.152 67.981C276.152 67.933 276.056 67.885 275.96 67.885C275.433 67.885 274.281 68.6044 272.89 69.9951C272.747 68.8922 272.65 67.7891 272.65 66.7341C272.65 65.535 272.89 64.576 272.938 64.2882C272.986 64.0963 272.986 64.0003 272.986 63.9045C272.986 63.8085 272.938 63.7127 272.794 63.7127C271.69 63.7127 269.198 65.487 269.198 68.1728C269.198 69.2758 269.437 70.0431 269.868 70.7145C269.725 70.6665 269.58 70.6665 269.484 70.6665C269.053 70.6665 268.622 70.7625 268.381 70.8583V70.5707C268.381 69.9951 268.238 69.1798 267.999 68.8922C267.95 68.8442 267.95 68.8442 267.903 68.8442C267.807 68.8442 267.662 68.8922 267.519 68.988C267.374 69.084 267.182 69.1798 267.182 69.2278C267.182 69.2758 267.182 69.2758 267.231 69.3716C267.327 69.5156 267.615 69.8033 267.711 70.4267C267.231 69.9473 266.704 69.7553 265.985 69.7553C265.168 69.7553 264.882 70.1391 264.882 70.5227C264.882 71.2421 265.84 71.6258 267.039 71.6258C267.278 71.6258 267.519 71.5778 267.758 71.5298C267.758 71.7696 267.807 71.9614 267.807 72.1054C267.807 72.3452 267.854 72.537 267.999 72.537C268.238 72.537 268.381 72.0574 268.381 71.3859C268.814 71.2899 269.245 71.1941 269.629 71.1941C269.821 71.0023 270.06 71.0023 270.252 71.0503ZM272.602 64.1443C272.602 64.2402 272.411 64.6238 272.17 65.2952C271.882 66.0147 271.643 67.0217 271.643 68.2686C271.643 68.988 271.835 69.9951 271.978 70.9543L271.547 71.5298C270.828 70.6665 270.395 69.7075 270.395 68.029C270.395 65.679 271.835 64.0483 272.554 64.0483C272.554 64.0483 272.602 64.0963 272.602 64.1443ZM292.314 70.7145C292.41 70.9543 292.457 71.1461 292.457 71.3379C292.457 71.5778 292.361 71.7696 292.218 71.7696C292.122 71.7696 291.977 71.6258 291.977 71.4339C291.977 71.2899 292.169 70.9543 292.314 70.7145ZM272.074 71.6738C272.17 72.393 272.266 73.1124 272.266 73.6879C272.266 75.0307 271.835 76.5654 271.067 76.5654C270.779 76.5654 270.54 76.2776 270.491 75.7502C270.491 74.0715 271.308 72.6808 272.074 71.6738ZM280.852 66.6381C280.852 64.576 281.234 64.2402 281.379 64.2402C281.618 64.2402 281.618 64.3842 281.618 65.1514C281.618 65.9667 281.283 67.0217 280.852 67.5973V66.6381ZM276.967 68.6044C276.967 68.4606 277.063 68.4126 277.159 68.4126C277.351 68.4126 277.59 68.6044 277.735 68.988C277.255 68.988 276.967 68.8922 276.967 68.6044ZM297.014 68.6044C297.014 68.4606 297.11 68.4126 297.204 68.4126C297.396 68.4126 297.684 68.6044 297.829 68.988C297.78 68.988 297.684 68.988 297.637 68.988C297.3 68.988 297.014 68.8442 297.014 68.6044ZM231.934 64.1443C231.934 64.2402 231.742 64.6238 231.502 65.2952C231.262 66.0147 230.975 67.0217 230.975 68.2686C230.975 68.988 231.167 69.9951 231.31 70.9543L230.879 71.5298C230.159 70.6665 229.728 69.7075 229.728 68.029C229.728 65.679 231.167 64.0483 231.886 64.0483C231.934 64.0483 231.934 64.0963 231.934 64.1443ZM251.692 70.7145C251.788 70.9543 251.837 71.1461 251.837 71.3379C251.837 71.5778 251.741 71.7696 251.596 71.7696C251.5 71.7696 251.357 71.6258 251.357 71.4339C251.357 71.2899 251.5 70.9543 251.692 70.7145ZM231.454 71.6738C231.55 72.393 231.646 73.1124 231.646 73.6879C231.646 75.0307 231.215 76.5654 230.447 76.5654C230.16 76.5654 229.92 76.2776 229.872 75.7502C229.872 74.0715 230.639 72.6808 231.454 71.6738ZM254.282 68.6524C254.043 68.988 253.851 69.4676 253.851 70.0431C253.851 71.1941 254.522 72.2972 255.817 72.2972C257.065 72.2972 257.927 71.2899 257.927 69.9473C257.927 69.5635 257.927 69.5156 257.88 69.3238C258.168 69.1798 258.407 68.988 258.599 68.8442C258.742 68.7002 258.887 68.6524 258.983 68.6524C259.126 68.6524 259.175 68.7482 259.175 68.94V71.6738C259.175 72.1054 259.318 72.3452 259.653 72.3452C259.99 72.3452 260.182 72.1054 260.325 71.8656C260.805 70.9063 261.428 69.6115 261.763 69.1318C261.812 69.036 261.908 68.94 261.908 68.94C261.955 68.94 262.004 68.988 262.004 69.1798V71.3379C262.004 71.9614 262.292 72.3452 262.915 72.3452C263.538 72.3452 263.873 71.7216 264.449 70.8105C264.498 70.7625 264.498 70.7145 264.498 70.6665C264.498 70.5227 264.402 70.4747 264.257 70.4747C264.114 70.4747 264.065 70.6187 263.634 71.0503C263.538 71.1461 263.442 71.2421 263.299 71.2421C263.25 71.2421 263.203 71.1941 263.203 71.0981V68.6524C263.203 67.981 262.915 67.7411 262.531 67.7411C262.243 67.7411 261.955 67.885 261.716 68.2686C261.236 68.94 260.756 69.9473 260.517 70.4267C260.47 70.4747 260.47 70.5707 260.421 70.5707C260.374 70.5707 260.374 70.5227 260.374 70.4267V68.6524C260.374 68.1248 260.229 67.7411 259.702 67.7411C259.126 67.7411 258.838 68.1248 258.407 68.4126C258.168 68.6044 257.927 68.7482 257.735 68.8442C257.447 68.1248 256.969 67.7891 256.536 67.7891C256.105 67.7891 255.817 68.0768 255.817 68.5084C255.817 68.988 256.105 69.2758 256.489 69.4196C256.681 69.5156 256.873 69.5156 257.161 69.5156C257.257 69.5156 257.304 69.5156 257.4 69.5156C257.447 69.6595 257.4 69.8513 257.4 69.9951C257.4 70.6665 257.016 71.3379 256.25 71.3379C255.482 71.3379 255.002 70.5707 255.002 69.7553C255.002 69.084 255.194 68.5564 255.529 68.1728C255.674 68.029 255.77 67.933 255.77 67.837C255.77 67.7891 255.674 67.7411 255.578 67.7411C255.05 67.7411 254.474 67.981 254.09 68.1728C253.563 68.4606 252.94 68.8922 252.411 69.3716C252.172 68.7962 251.837 68.3166 251.692 67.933C251.645 67.7891 251.596 67.5973 251.5 67.5973C251.404 67.5973 251.357 67.6931 251.308 67.885C251.069 68.6044 249.727 70.7625 249.439 71.0503C249.39 71.0981 249.39 71.1461 249.343 71.1461C249.294 71.1461 249.294 71.1461 249.294 71.0503V68.6044C249.294 67.933 249.006 67.6931 248.671 67.6931C248.383 67.6931 248.095 67.8371 247.856 68.2208C247.425 68.8922 246.849 69.9473 246.561 70.4267C246.514 70.5227 246.465 70.5227 246.465 70.5227C246.465 70.5227 246.418 70.4747 246.418 70.3789V68.6044C246.418 67.933 246.13 67.6931 245.793 67.6931C245.507 67.6931 245.219 67.7891 244.978 68.2208C244.404 69.2278 243.444 70.7145 243.252 70.9543C243.205 71.0023 243.205 71.0023 243.156 71.0503C243.109 71.0503 243.109 71.0023 243.109 70.9543V68.6044C243.109 67.933 242.868 67.6931 242.484 67.6931C242.006 67.6931 241.718 68.1728 241.526 68.4606C241.285 68.8442 240.95 69.4196 240.662 69.8993C240.47 70.2349 240.327 70.5227 240.278 70.5227C240.231 70.5227 240.231 70.3789 240.231 70.1871V68.3166C241.095 67.3575 241.622 66.1585 241.622 64.8636C241.622 64.0963 241.285 63.7127 240.758 63.7127C239.8 63.7127 239.081 65.1994 239.081 66.9737V68.4126C238.648 68.7002 238.217 68.8442 237.69 68.94C237.449 68.1728 236.874 67.7411 236.442 67.7891C236.01 67.7891 235.722 68.0768 235.722 68.5084C235.722 69.2278 236.442 69.5635 237.065 69.5635H237.257C237.306 69.7075 237.306 69.8513 237.306 69.9951C237.306 70.6665 236.922 71.3379 236.154 71.3379C235.387 71.3379 234.907 70.5707 234.907 69.7553C234.907 69.084 235.099 68.5564 235.434 68.1728C235.579 68.029 235.675 67.885 235.675 67.837C235.675 67.7891 235.579 67.7411 235.483 67.7411C234.954 67.7411 233.804 68.4606 232.414 69.8513C232.318 68.7482 232.174 67.6451 232.174 66.5901C232.174 65.3912 232.414 64.432 232.462 64.1443C232.51 63.9525 232.51 63.8565 232.51 63.7605C232.51 63.6647 232.462 63.5687 232.318 63.5687C231.215 63.5687 228.721 65.3432 228.721 68.029C228.721 69.9473 229.392 70.8583 230.639 72.0094C229.92 73.2083 229.344 74.5991 229.344 75.846C229.344 76.7572 229.536 77.4287 230.207 77.4287C231.598 77.4287 232.653 74.5511 232.653 72.393C232.653 71.7696 232.605 71.0981 232.557 70.4747C233.085 69.9473 233.852 69.1798 234.044 69.1318C233.948 69.4196 233.9 69.7075 233.9 69.9951C233.9 71.1461 234.572 72.2492 235.866 72.2492C237.065 72.2492 237.978 71.2421 237.978 69.8993C237.978 69.7075 237.978 69.5636 237.929 69.4196C238.36 69.3238 238.793 69.2278 239.175 68.988V71.7696C239.175 72.1532 239.416 72.2492 239.655 72.2492C239.992 72.2492 240.135 72.0094 240.374 71.5298C240.566 71.0981 241.095 70.1391 241.43 69.6115C241.669 69.1798 241.814 68.8922 241.91 68.8922C241.957 68.8922 241.957 68.94 241.957 69.1318V71.4819C241.957 72.1054 242.294 72.2972 242.58 72.2972C242.868 72.2972 243.06 72.1532 243.205 71.9134C243.924 70.9063 244.69 69.6595 244.978 69.1318C245.027 69.036 245.123 68.988 245.17 68.988C245.219 68.988 245.266 69.036 245.266 69.1798V71.6738C245.266 72.1054 245.411 72.3452 245.746 72.3452C246.081 72.3452 246.273 72.1054 246.418 71.8656C246.896 70.9063 247.568 69.6595 247.856 69.1318C247.903 69.036 247.999 68.94 248.048 68.94C248.095 68.94 248.144 68.988 248.144 69.1798V71.5298C248.144 72.1532 248.479 72.3452 248.767 72.3452C249.151 72.3452 249.39 72.0574 249.631 71.7696C250.062 71.1941 250.734 70.0911 251.165 69.4196C251.308 69.6595 251.453 69.8993 251.596 70.1871C251.261 70.5707 250.926 71.0503 250.926 71.5298C250.926 72.0574 251.261 72.3452 251.645 72.3452C252.268 72.3452 252.844 71.7216 252.844 70.9063C252.844 70.5707 252.748 70.2349 252.603 69.8993C253.083 69.3238 253.755 68.7962 254.282 68.6524ZM240.182 66.6381C240.182 64.576 240.566 64.2402 240.711 64.2402C240.95 64.2402 240.95 64.3842 240.95 65.1514C240.95 65.9667 240.615 67.0217 240.182 67.5973V66.6381ZM236.346 68.6044C236.346 68.4606 236.442 68.4126 236.538 68.4126C236.73 68.4126 236.969 68.6044 237.114 68.988C236.586 68.988 236.346 68.8922 236.346 68.6044ZM256.393 68.6044C256.393 68.4606 256.489 68.4126 256.585 68.4126C256.777 68.4126 257.065 68.6044 257.208 68.988C257.161 68.988 257.065 68.988 257.016 68.988C256.632 69.036 256.393 68.8442 256.393 68.6044Z" fill="#A6A9AE"/>
<path d="M270.585 41.4597V52.7777C270.585 52.9215 270.489 53.0175 270.346 53.0175H266.845C266.7 53.0175 266.606 52.9215 266.606 52.7777V41.9871C266.606 40.6443 266.222 37.5751 262.768 37.5751C260.227 37.5751 258.74 39.1576 258.74 41.9391V52.7777C258.74 52.9215 258.644 53.0175 258.501 53.0175H254.856C254.711 53.0175 254.615 52.9215 254.615 52.7777V25.7294C254.615 25.5855 254.711 25.4896 254.856 25.4896H258.309C258.452 25.4896 258.548 25.5855 258.548 25.7294V36.1362C259.796 34.5537 261.906 33.9781 263.632 33.9781C267.709 34.0261 270.585 37.0955 270.585 41.4597ZM240.372 41.4597V52.7777C240.372 52.9215 240.276 53.0175 240.133 53.0175H236.631C236.488 53.0175 236.392 52.9215 236.392 52.7777V41.9871C236.392 40.6443 236.008 37.5751 232.555 37.5751C230.013 37.5751 228.526 39.1576 228.526 41.9391V52.7777C228.526 52.9215 228.43 53.0175 228.287 53.0175H224.786C224.642 53.0175 224.546 52.9215 224.546 52.7777V34.7935C224.546 34.6495 224.642 34.5537 224.786 34.5537H228.095C228.239 34.5537 228.335 34.6495 228.335 34.7935V36.1362C229.582 34.5537 231.692 33.9781 233.418 33.9781C237.495 34.0261 240.372 37.0955 240.372 41.4597ZM204.643 45.4881C204.643 49.4207 201.334 53.593 195.243 53.593C189.009 53.593 185.94 49.7564 185.22 46.2076C185.172 46.0636 185.268 45.9677 185.364 45.9197L188.865 44.7687C188.913 44.7687 189.009 44.7687 189.057 44.7687C189.105 44.8167 189.153 44.8647 189.153 44.9127C189.584 47.2146 191.407 49.7084 195.196 49.7084C198.409 49.7084 200.423 48.1737 200.423 45.7279C200.423 43.8096 199.032 42.3708 196.634 41.8433L192.846 41.0281C188.673 40.1168 186.179 37.3353 186.179 33.5465C186.179 29.1344 190.304 25.4417 195.196 25.4417C202.629 25.4417 204.164 30.9089 204.451 32.5874C204.451 32.6353 204.452 32.7313 204.404 32.7792C204.356 32.8272 204.308 32.8752 204.212 32.8752H200.663C200.567 32.8752 200.471 32.8272 200.423 32.7313C200.135 31.916 198.984 29.1824 195.243 29.1824C192.462 29.1824 190.352 30.9568 190.352 33.3547C190.352 35.2252 191.503 36.52 193.565 36.9517L197.545 37.8149C202.053 38.822 204.643 41.6035 204.643 45.4881ZM108.631 41.6993C108.871 39.6372 110.502 37.5751 113.283 37.5751C116.017 37.5751 117.791 39.1576 117.983 41.6993H108.631ZM113.235 34.0261C108.296 34.0261 104.411 38.2943 104.411 43.7616C104.411 48.6533 107.624 53.593 113.715 53.593C117.312 53.593 120.333 51.7227 121.676 48.6053C121.724 48.5575 121.724 48.4615 121.676 48.4135C121.628 48.3655 121.58 48.3177 121.532 48.2697L118.463 47.2626C118.367 47.2146 118.223 47.2626 118.175 47.4064C117.312 49.1329 115.825 49.9962 113.715 49.9962C110.885 49.9962 108.727 47.9339 108.535 45.0085H121.82C121.916 45.0085 122.059 44.9125 122.059 44.8167C122.107 44.5769 122.155 44.1453 122.155 43.6656C122.107 37.7189 118.702 34.0261 113.235 34.0261ZM304.827 47.7901C304.827 50.6196 302.429 53.593 298.017 53.593C293.365 53.593 291.112 50.9074 290.536 48.5575C290.487 48.4135 290.583 48.3177 290.679 48.2697L293.893 47.2146C293.941 47.2146 294.037 47.2146 294.085 47.2146C294.133 47.2626 294.181 47.3104 294.181 47.3584C294.613 49.0369 296.052 50.0442 298.066 50.0442C299.984 50.0442 300.895 48.9411 300.895 47.8861C300.895 46.8788 300.127 46.1116 298.785 45.8237L295.717 45.1523C292.789 44.5289 291.016 42.5626 291.016 39.877C291.016 36.6638 294.037 33.9781 297.635 33.9781C302.67 33.9781 304.204 37.1913 304.588 38.5821C304.635 38.726 304.539 38.822 304.443 38.87L301.326 39.877C301.279 39.877 301.183 39.877 301.134 39.877C301.087 39.829 301.04 39.781 300.991 39.7332C300.703 38.87 299.937 37.4311 297.586 37.4311C295.86 37.4311 294.853 38.5341 294.853 39.5892C294.853 40.8363 295.86 41.3157 296.724 41.5075L299.649 42.1309C302.958 42.8984 304.827 44.9605 304.827 47.7901ZM276.197 41.6993C276.436 39.6372 278.068 37.5751 280.848 37.5751C283.583 37.5751 285.356 39.1576 285.548 41.6993H276.197ZM280.801 34.0261C275.861 34.0261 271.976 38.2943 271.976 43.7616C271.976 48.6533 275.189 53.593 281.281 53.593C284.878 53.593 287.899 51.7227 289.241 48.6053C289.29 48.5575 289.29 48.4615 289.241 48.4135C289.194 48.3655 289.145 48.3177 289.098 48.2697L286.028 47.2626C285.932 47.2146 285.789 47.2626 285.74 47.4064C284.878 49.1329 283.391 49.9962 281.281 49.9962C278.452 49.9962 276.293 47.9339 276.101 45.0085H289.384C289.48 45.0085 289.625 44.9125 289.625 44.8167C289.672 44.5769 289.721 44.1453 289.721 43.6656C289.672 37.7189 286.267 34.0261 280.801 34.0261ZM252.313 34.7935V37.9587C252.313 38.1025 252.217 38.1985 252.074 38.1985H248.43V47.3104C248.43 48.8931 249.053 49.5165 250.683 49.5165H252.074C252.217 49.5165 252.313 49.6126 252.313 49.7564V52.9215C252.313 53.0655 252.217 53.1613 252.074 53.1613H249.676C246.414 53.1613 244.4 51.0992 244.4 47.7901V38.1505H241.187C241.044 38.1505 240.948 38.0545 240.948 37.9107V34.7455C240.948 34.6015 241.044 34.5057 241.187 34.5057H244.4V28.8467C244.4 28.7507 244.449 28.6548 244.545 28.6069L248.046 27.4559C248.142 27.4559 248.189 27.4559 248.285 27.5038C248.334 27.5518 248.381 27.5998 248.381 27.6957V34.5057H252.025C252.217 34.5537 252.313 34.6975 252.313 34.7935ZM223.107 34.6975C223.155 34.7455 223.155 34.8413 223.107 34.9373L211.405 60.403C211.357 60.499 211.262 60.547 211.166 60.547H207.329C207.233 60.547 207.185 60.4989 207.137 60.4509C207.089 60.4031 207.089 60.3071 207.137 60.2111L211.597 50.8114L203.924 34.9373C203.876 34.8413 203.876 34.7935 203.924 34.6975C203.972 34.6495 204.068 34.6015 204.116 34.6015H208.144C208.24 34.6015 208.336 34.6495 208.384 34.7455L213.755 46.6392L218.935 34.7455C218.983 34.6495 219.079 34.6015 219.175 34.6015H222.963C223.011 34.5537 223.059 34.6015 223.107 34.6975ZM180.76 34.6975C180.808 34.7455 180.808 34.8413 180.76 34.9373L169.058 60.403C169.01 60.499 168.915 60.547 168.819 60.547H164.982C164.886 60.547 164.838 60.4989 164.79 60.4509C164.742 60.4031 164.742 60.3071 164.79 60.2111L169.25 50.8114L161.577 34.9373C161.529 34.8413 161.529 34.7935 161.577 34.6975C161.625 34.6495 161.721 34.6015 161.769 34.6015H165.797C165.893 34.6015 165.989 34.6495 166.037 34.7455L171.408 46.6392L176.588 34.7455C176.636 34.6495 176.732 34.6015 176.828 34.6015H180.616C180.616 34.5537 180.712 34.6015 180.76 34.6975ZM160.378 34.7935V52.7777C160.378 52.9215 160.282 53.0175 160.138 53.0175H156.829C156.685 53.0175 156.589 52.9215 156.589 52.7777V51.4349C155.342 53.0175 153.232 53.593 151.506 53.593C147.381 53.593 144.552 50.5238 144.552 46.1596V34.8413C144.552 34.6975 144.648 34.6015 144.792 34.6015H148.293C148.437 34.6015 148.532 34.6975 148.532 34.8413V45.6319C148.532 46.9748 148.916 50.0442 152.369 50.0442C154.911 50.0442 156.398 48.4615 156.398 45.6799V34.8413C156.398 34.6975 156.493 34.6015 156.637 34.6015H160.138C160.282 34.5537 160.378 34.6975 160.378 34.7935ZM138.941 34.1701C138.941 36.8077 137.07 38.3903 134.049 38.3903H128.965V29.8058H134.049C137.07 29.8058 138.941 31.4844 138.941 34.1701ZM134.721 26.0651H125.081C124.937 26.0651 124.841 26.161 124.841 26.3049V52.7777C124.841 52.9215 124.937 53.0175 125.081 53.0175H128.726C128.87 53.0175 128.965 52.9215 128.965 52.7777V42.1789H134.721C139.708 42.1789 143.161 38.87 143.161 34.1221C143.161 29.4701 139.612 26.0651 134.721 26.0651ZM90.3113 29.8058C95.5866 29.8058 98.9918 33.6425 98.9918 39.6372C98.9918 45.5361 95.5388 49.3247 90.2155 49.3247H85.036V29.8058H90.3113ZM90.4073 26.0651H81.1514C81.0074 26.0651 80.9116 26.161 80.9116 26.3049V52.7777C80.9116 52.9215 81.0074 53.0175 81.1514 53.0175H90.3593C96.7857 53.0175 103.26 48.8451 103.26 39.5892C103.26 30.2375 96.8337 26.0651 90.4073 26.0651Z" fill="#6B6F75"/>
</g>
</g>
<defs>
<clipPath id="clip0_942_13253">
<rect width="259.765" height="64" fill="white" transform="translate(46 14)"/>
</clipPath>
</defs>
</svg>
