<svg width="352" height="92" viewBox="0 0 352 92" fill="none" xmlns="http://www.w3.org/2000/svg">
<g clip-path="url(#clip0_942_14091)">
<path d="M37.8627 46.0001L19.9251 35.6709L2 46.0001L19.9251 56.3293L37.8627 46.0001Z" fill="#707780"/>
<path d="M73.7131 46.0001L55.7879 35.6709L37.8628 46.0001L55.7879 56.3293L73.7131 46.0001Z" fill="#707780"/>
<path d="M37.8628 46V66.6708L55.7879 77V56.3292L37.8628 46Z" fill="#A6A9AE"/>
<path d="M19.925 15V35.6708L37.8626 46V25.3292L19.925 15Z" fill="#A6A9AE"/>
<path d="M37.8628 46L55.7879 35.6708V15L37.8628 25.3292V46Z" fill="#707780"/>
<path d="M19.925 77L37.8626 66.6708V46L19.925 56.3292V77Z" fill="#707780"/>
<path d="M88.8555 63.4469V27.9829H111.551V32.8189H94.2467V43.1729H109.004V47.9469H94.2467V58.5985H111.551V63.4345H88.8555V63.4469Z" fill="#707780"/>
<path d="M132.855 63.4469V60.7561C132.076 61.7557 131.065 62.5505 129.909 63.0713C128.753 63.5921 127.487 63.8232 126.221 63.7445C123.936 63.841 121.704 63.0346 120.01 61.5001C117.526 59.0201 117.166 54.6305 117.166 50.7989C117.166 46.9673 117.464 42.6769 120.01 40.1473C121.681 38.6242 123.885 37.8181 126.147 37.9029C127.4 37.81 128.656 38.0195 129.811 38.5138C130.966 39.008 131.984 39.7725 132.78 40.7425V27.9829H137.873V63.4469H132.904H132.855ZM127.463 42.4289C122.88 42.4289 122.172 46.3101 122.172 50.7989C122.172 55.2877 122.867 59.2185 127.463 59.2185C132.06 59.2185 132.706 55.2877 132.706 50.7989C132.706 46.3101 132.109 42.4289 127.463 42.4289Z" fill="#707780"/>
<path d="M161.202 63.4468V60.88C160.34 61.7949 159.295 62.5201 158.136 63.009C156.977 63.498 155.728 63.74 154.469 63.7196C152.178 63.7946 149.949 62.9712 148.258 61.4256C147.368 60.4789 146.687 59.3561 146.259 58.1301C145.831 56.904 145.666 55.6019 145.774 54.308V38.188H150.867V53.5888C150.867 57.5196 153.115 59.2184 155.96 59.2184C158.805 59.2184 161.202 57.47 161.202 53.5888V38.2004H166.295V63.4468H161.326H161.202Z" fill="#707780"/>
<path d="M186.494 63.7444C184.846 63.7517 183.214 63.4345 181.69 62.8111C180.166 62.1876 178.78 61.2701 177.612 60.1112C174.37 56.8748 174.32 53.7376 174.32 45.7148C174.32 37.692 174.32 34.5548 177.612 31.3184C178.78 30.1594 180.166 29.2419 181.69 28.6185C183.214 27.9951 184.846 27.6779 186.494 27.6852C192.829 27.6852 197.425 31.616 198.568 38.0392H195.785C194.742 33.1536 191.251 30.066 186.456 30.066C185.208 30.0552 183.97 30.2918 182.815 30.7623C181.659 31.2327 180.608 31.9275 179.723 32.8064C177.239 35.2864 176.978 38.0888 176.978 45.7024C176.978 53.316 177.177 56.0564 179.723 58.5984C180.608 59.4773 181.659 60.1721 182.815 60.6425C183.97 61.1129 185.208 61.3496 186.456 61.3388C191.251 61.3388 194.841 58.2512 195.885 53.3656H198.531C197.425 59.8136 192.729 63.7444 186.494 63.7444Z" fill="#A6A9AE"/>
<path d="M221.325 63.4469V61.0537C219.276 63.0997 217.387 63.7445 213.996 63.7445C210.605 63.7445 208.456 63.1493 206.916 61.5497C205.765 60.2657 205.14 58.5972 205.164 56.8749C205.164 52.4977 208.307 49.9557 213.549 49.9557H221.338V47.2401C221.338 43.4085 219.437 41.3625 214.555 41.3625C211.164 41.3625 209.412 42.2057 207.922 44.4005L206.071 42.8133C208.12 39.9737 210.667 39.0933 214.555 39.0933C220.89 39.0933 223.884 41.9329 223.884 46.9673V63.4469H221.4H221.325ZM221.325 51.9893H213.872C209.735 51.9893 207.735 53.6385 207.735 56.8253C207.735 60.0121 209.686 61.5001 214.021 61.5001C216.22 61.5001 218.307 61.3017 220.008 59.6525C220.903 58.8093 221.35 57.3089 221.35 55.0645V51.9893H221.325Z" fill="#A6A9AE"/>
<path d="M265.275 63.4468V48.5668C265.275 43.9416 262.927 41.3996 258.641 41.3996C257.738 41.3317 256.83 41.4587 255.979 41.7717C255.129 42.0848 254.356 42.5767 253.713 43.2141C253.07 43.8514 252.571 44.6194 252.251 45.4659C251.931 46.3125 251.798 47.2177 251.859 48.1204V63.4468H249.374V48.5668C249.374 43.9416 247.027 41.3996 242.741 41.3996C238.455 41.3996 235.959 44.0408 235.959 48.5668V63.4468H233.474V39.4404H235.959V42.28C236.83 41.2767 237.911 40.476 239.126 39.934C240.341 39.3921 241.659 39.122 242.989 39.1428C244.569 39.0421 246.145 39.4023 247.523 40.1795C248.902 40.9567 250.024 42.1173 250.753 43.52C251.61 42.1351 252.819 41.0009 254.257 40.2322C255.694 39.4635 257.31 39.0877 258.94 39.1428C261.27 39.0536 263.543 39.8768 265.275 41.4368C266.121 42.3222 266.777 43.3704 267.204 44.5173C267.632 45.6642 267.82 46.8859 267.759 48.108V63.4468H265.275Z" fill="#A6A9AE"/>
<path d="M292.678 61.6488C291.058 63.0777 288.95 63.8283 286.79 63.7444C285.409 63.8465 284.026 63.588 282.775 62.9945C281.525 62.4009 280.451 61.4927 279.659 60.3592V74.9044H277.175V39.4404H279.659V42.528C280.452 41.3954 281.526 40.4879 282.776 39.8945C284.026 39.301 285.409 39.042 286.79 39.1428C288.949 39.0602 291.058 39.8107 292.678 41.2384C295.162 43.7184 295.771 47.6616 295.771 51.4436C295.771 55.2256 295.162 59.2184 292.678 61.6488ZM286.467 41.3748C280.579 41.3748 279.684 46.4588 279.684 51.4312C279.684 56.4036 280.579 61.4876 286.467 61.4876C292.355 61.4876 293.249 56.4036 293.249 51.4312C293.249 46.4588 292.367 41.3872 286.467 41.3872V41.3748Z" fill="#A6A9AE"/>
<path d="M319.758 63.4468V60.6072C318.054 62.4506 315.703 63.5669 313.195 63.724C310.687 63.881 308.214 63.0667 306.293 61.4504C305.447 60.565 304.79 59.5169 304.363 58.3699C303.936 57.223 303.747 56.0013 303.808 54.7792V39.4404H306.293V54.3204C306.293 58.958 308.64 61.4876 312.926 61.4876C317.212 61.4876 319.708 58.8464 319.708 54.3204V39.4404H322.193V63.4468H319.708H319.758Z" fill="#A6A9AE"/>
<path d="M339.373 63.7443C335.186 63.7443 332.093 62.6531 329.646 60.3095L331.398 58.5611C332.427 59.5832 333.663 60.3742 335.024 60.881C336.384 61.3878 337.837 61.5988 339.286 61.4999C343.969 61.4999 346.515 59.8631 346.515 56.6143C346.515 54.1343 345.075 52.8943 341.932 52.5843L337.919 52.1999C333.075 51.8031 330.69 49.7199 330.69 45.9255C330.69 41.7963 334.081 39.1055 339.323 39.1055C342.328 39.0135 345.283 39.8824 347.758 41.5855L346.093 43.3711C344.128 41.9834 341.767 41.2658 339.36 41.3251C335.423 41.3251 333.224 43.0239 333.224 45.9627C333.224 48.4427 334.714 49.6827 338.118 49.9927L342.006 50.3399C345.994 50.6871 349.037 51.9271 349.037 56.6143C349 61.0039 345.261 63.7443 339.373 63.7443Z" fill="#A6A9AE"/>
</g>
<defs>
<clipPath id="clip0_942_14091">
<rect width="347" height="62" fill="white" transform="translate(2 15)"/>
</clipPath>
</defs>
</svg>
