<svg width="352" height="92" viewBox="0 0 352 92" fill="none" xmlns="http://www.w3.org/2000/svg">
<g clip-path="url(#clip0_942_12572)">
<mask id="mask0_942_12572" style="mask-type:luminance" maskUnits="userSpaceOnUse" x="84" y="14" width="184" height="64">
<path d="M267.64 14H84.1997V78H267.64V14Z" fill="white"/>
</mask>
<g mask="url(#mask0_942_12572)">
<path d="M143.129 15.662H125.839L108.3 45.941L125.856 76.2183H143.145L125.059 45.941L143.129 15.662Z" fill="#707780"/>
<path d="M95.2592 38.7521C95.3864 41.3871 93.382 43.6267 90.7818 43.7556C88.1817 43.8844 85.9703 41.8539 85.8431 39.2188C85.7159 36.5854 87.7211 34.3451 90.3212 34.2163C92.9213 34.0873 95.132 36.1188 95.2592 38.7521Z" fill="#707780"/>
<path d="M102.783 40.995C102.854 42.4582 101.74 43.7029 100.296 43.7742C98.8519 43.8462 97.6233 42.7176 97.553 41.2544C97.4819 39.7914 98.5959 38.5466 100.04 38.4754C101.484 38.4042 102.713 39.532 102.783 40.995Z" fill="#707780"/>
<path d="M104.08 26.67C101.413 34.0234 103.014 36.4862 103.014 36.4862C97.2696 35.6155 88.1719 29.076 88.3141 22.5695C88.4121 18.0615 91.5242 14.2355 95.9699 14.0146C104.873 13.5736 105.32 23.249 104.08 26.67Z" fill="#A6A9AE"/>
<path d="M106.336 58.8605C102.789 48.4959 104.131 44.8156 104.131 44.8156C96.0034 46.8855 83.1585 57.6751 84.267 66.9975C85.0349 73.4576 90.0352 78.5075 96.4498 78.189C109.296 77.5527 108.035 63.8279 106.336 58.8605Z" fill="#707780"/>
<path fill-rule="evenodd" clip-rule="evenodd" d="M173.858 43.6788H165.852L157.723 29.6595L165.844 15.6394H173.85L165.499 29.6851L173.858 43.6788ZM148.537 15.6403H155.093V43.6854H148.537V15.6403ZM186.391 15.7077H175.158V34.5692H181.422V21.9157H186.26C191.136 21.9157 193.479 25.1708 193.479 29.7714C193.479 34.3123 191.136 37.6263 186.26 37.6263L175.158 37.6231V43.8351H186.391C194.606 43.8351 200.025 38.2502 200.025 29.7714C200.025 21.2926 194.606 15.7077 186.391 15.7077ZM202.061 15.7077H213.976C220.847 15.7077 224.482 19.3903 224.482 24.954C224.482 30.419 220.847 34.0617 214.036 34.0617H208.694V43.4275H202.061V15.7077ZM208.694 28.1619H213.877C216.26 28.1619 217.729 27.0525 217.729 24.954C217.729 22.8347 216.26 21.707 213.877 21.707H208.694V28.1619Z" fill="#707780"/>
<path fill-rule="evenodd" clip-rule="evenodd" d="M154.818 48.3195H148.262V76.3644H154.818V48.3195ZM231.092 58.1028C232.372 56.1959 233.643 56.0646 236.082 56.0646C238.521 56.0646 240.46 56.7846 241.9 58.2247C243.339 59.6649 244.059 61.5252 244.059 63.8054V76.4468H237.944V65.4404C237.944 64.0137 237.74 63.6715 237.333 63.1983C236.666 62.4249 235.702 62.1793 234.683 62.1793C233.868 62.1793 233.063 62.383 232.441 62.9945C231.655 63.7679 231.292 64.4942 231.292 65.4404V76.4468H225.307V56.8516H231.092V58.1028ZM193.511 48.3195H200.067V76.3644H193.511V48.3195ZM181.661 55.6567C175.641 55.6567 171.499 60.0366 171.499 66.3615C171.499 72.6247 175.722 76.8206 181.944 76.8206C184.534 76.8206 186.798 76.2123 188.631 75.1172L185.765 70.318C184.676 71.0471 183.435 71.4377 182.267 71.4377C180.085 71.4377 178.55 70.414 178.025 68.2241H191.46C191.541 67.7942 191.582 66.8937 191.582 66.239C191.561 59.955 187.54 55.6567 181.661 55.6567ZM178.045 64.1715C178.53 62.1857 179.722 61.1011 181.682 61.1011C183.52 61.1011 184.753 62.1657 185.258 64.1715H178.045ZM166.895 62.462C164.715 62.462 163.379 63.5561 163.379 65.9846V76.531H157.232V57.0095H163.124V59.2579C164.244 57.3681 166.032 56.4724 168.388 56.4724C169.291 56.4724 170.078 56.6318 170.548 56.771L170.471 62.47C170.471 62.47 167.995 62.462 166.895 62.462ZM211.446 76.4471C213.387 76.4471 215.201 75.9046 216.745 74.9628V76.4476H223.268V56.8807H216.745V57.5492C215.201 56.6075 213.387 56.0649 211.446 56.0649C205.818 56.0649 201.255 60.6276 201.255 66.2561C201.255 71.8844 205.818 76.4471 211.446 76.4471ZM211.651 71.1481C214.241 71.1481 216.339 69.0494 216.339 66.4603C216.339 63.8711 214.241 61.7724 211.651 61.7724C209.063 61.7724 206.964 63.8711 206.964 66.4603C206.964 69.0494 209.063 71.1481 211.651 71.1481ZM261.179 48.3199H267.7V76.4475H261.179V74.963C259.635 75.9047 257.82 76.4473 255.88 76.4473C250.251 76.4473 245.688 71.8846 245.688 66.2563C245.688 60.6278 250.251 56.0651 255.88 56.0651C257.82 56.0651 259.635 56.6078 261.179 57.5495V48.3199ZM260.771 66.4599C260.771 69.0489 258.672 71.1478 256.083 71.1478C253.494 71.1478 251.395 69.0489 251.395 66.4599C251.395 63.8708 253.494 61.7719 256.083 61.7719C258.672 61.7719 260.771 63.8708 260.771 66.4599Z" fill="#707780"/>
</g>
</g>
<defs>
<clipPath id="clip0_942_12572">
<rect width="185.6" height="64" fill="white" transform="translate(83 14)"/>
</clipPath>
</defs>
</svg>
