<svg width="352" height="92" viewBox="0 0 352 92" fill="none" xmlns="http://www.w3.org/2000/svg">
<g clip-path="url(#clip0_942_14050)">
<path d="M159.994 80.5646H158.042V79.3604H163.378V80.5646H161.426V85.8722H159.995L159.994 80.5646Z" fill="#707780"/>
<path d="M163.761 79.3605H165.055V81.8141H165.083C165.247 81.5467 165.457 81.3484 165.713 81.2208C165.968 81.093 166.217 81.0291 166.46 81.0291C166.806 81.0291 167.091 81.077 167.313 81.1715C167.534 81.2645 167.71 81.3963 167.838 81.5627C167.965 81.7303 168.054 81.934 168.106 82.1735C168.158 82.4143 168.184 82.6803 168.184 82.9718V85.8724H166.889V83.2085C166.889 82.8201 166.826 82.53 166.701 82.3384C166.578 82.1467 166.363 82.051 166.059 82.051C165.706 82.051 165.451 82.1561 165.292 82.365C165.135 82.5752 165.055 82.9198 165.055 83.4003V85.8724H163.761V79.3605ZM168.758 81.1571H169.989V82.0326H170.008C170.067 81.8863 170.15 81.7519 170.254 81.6268C170.358 81.5016 170.476 81.3952 170.609 81.3074C170.744 81.2196 170.887 81.1505 171.043 81.1026C171.197 81.0533 171.354 81.0294 171.513 81.0294C171.61 81.0294 171.704 81.0441 171.795 81.0747V82.2788C171.735 82.2668 171.662 82.2561 171.576 82.2468C171.491 82.2376 171.409 82.2335 171.33 82.2335C171.092 82.2335 170.893 82.272 170.728 82.3519C170.564 82.4305 170.432 82.5383 170.331 82.6753C170.231 82.8124 170.159 82.9733 170.117 83.1583C170.074 83.3446 170.053 83.5402 170.053 83.7464V85.8714H168.758V81.1571ZM175.251 83.0083C175.19 82.6797 175.082 82.4308 174.928 82.2605C174.772 82.0903 174.537 82.005 174.221 82.005C174.014 82.005 173.842 82.0397 173.705 82.1101C173.568 82.1794 173.459 82.2672 173.377 82.3696C173.295 82.4734 173.236 82.5825 173.203 82.6982C173.17 82.8141 173.15 82.9165 173.145 83.0083H175.251ZM173.145 83.8294C173.163 84.2417 173.268 84.5451 173.464 84.7368C173.658 84.9283 173.938 85.0242 174.302 85.0242C174.564 85.0242 174.789 84.9589 174.977 84.8273C175.166 84.6968 175.282 84.5585 175.324 84.412H176.464C176.282 84.9722 176.001 85.3769 175.625 85.6256C175.248 85.8745 174.792 85.9996 174.257 85.9996C173.886 85.9996 173.552 85.9382 173.254 85.8171C172.956 85.6949 172.704 85.5259 172.497 85.3062C172.29 85.0868 172.131 84.8259 172.019 84.5225C171.906 84.2178 171.85 83.8838 171.85 83.5192C171.85 83.1666 171.907 82.838 172.023 82.5346C172.139 82.2299 172.302 81.9665 172.515 81.7455C172.728 81.5234 172.982 81.3492 173.276 81.2214C173.572 81.0935 173.898 81.0298 174.257 81.0298C174.659 81.0298 175.008 81.1068 175.306 81.2612C175.604 81.4169 175.848 81.6245 176.04 81.8866C176.232 82.1475 176.37 82.4455 176.455 82.7808C176.54 83.1148 176.57 83.4648 176.546 83.8294H173.145ZM180.258 83.0083C180.197 82.6797 180.089 82.4308 179.934 82.2605C179.779 82.0903 179.543 82.005 179.227 82.005C179.02 82.005 178.849 82.0397 178.712 82.1101C178.575 82.1794 178.465 82.2672 178.383 82.3696C178.302 82.4734 178.243 82.5825 178.21 82.6982C178.177 82.8141 178.157 82.9165 178.151 83.0083H180.258ZM178.151 83.8294C178.169 84.2417 178.275 84.5451 178.471 84.7368C178.665 84.9283 178.944 85.0242 179.309 85.0242C179.571 85.0242 179.796 84.9589 179.984 84.8273C180.173 84.6968 180.288 84.5585 180.331 84.412H181.47C181.288 84.9722 181.008 85.3769 180.632 85.6256C180.254 85.8745 179.799 85.9996 179.264 85.9996C178.893 85.9996 178.559 85.9382 178.26 85.8171C177.962 85.6949 177.71 85.5259 177.503 85.3062C177.297 85.0868 177.138 84.8259 177.024 84.5225C176.913 84.2178 176.857 83.8838 176.857 83.5192C176.857 83.1666 176.914 82.838 177.03 82.5346C177.144 82.2299 177.309 81.9665 177.522 81.7455C177.735 81.5234 177.988 81.3492 178.283 81.2214C178.578 81.0935 178.905 81.0298 179.264 81.0298C179.664 81.0298 180.014 81.1068 180.312 81.2612C180.61 81.4169 180.855 81.6245 181.047 81.8866C181.238 82.1475 181.377 82.4455 181.462 82.7808C181.547 83.1148 181.576 83.4648 181.552 83.8294H178.151ZM181.963 84.4669H183.395V85.872H181.963V84.4669ZM184.144 81.1578H185.439V85.872H184.144V81.1578ZM185.439 80.4273H184.144V79.3601H185.439V80.4273ZM189.406 83.0083C189.345 82.6797 189.237 82.4308 189.083 82.2605C188.927 82.0903 188.691 82.005 188.375 82.005C188.168 82.005 187.997 82.0397 187.86 82.1101C187.723 82.1794 187.614 82.2672 187.532 82.3696C187.45 82.4734 187.391 82.5825 187.358 82.6982C187.325 82.8141 187.305 82.9165 187.3 83.0083H189.406ZM187.3 83.8294C187.317 84.2417 187.423 84.5451 187.619 84.7368C187.813 84.9283 188.093 85.0242 188.457 85.0242C188.719 85.0242 188.944 84.9589 189.132 84.8273C189.321 84.6968 189.437 84.5585 189.479 84.412H190.62C190.436 84.9722 190.156 85.3769 189.78 85.6256C189.403 85.8745 188.947 85.9996 188.412 85.9996C188.041 85.9996 187.707 85.9382 187.409 85.8171C187.111 85.6949 186.858 85.5259 186.652 85.3062C186.445 85.0868 186.286 84.8259 186.173 84.5225C186.061 84.2178 186.005 83.8838 186.005 83.5192C186.005 83.1666 186.062 82.838 186.178 82.5346C186.294 82.2299 186.457 81.9665 186.67 81.7455C186.883 81.5234 187.137 81.3492 187.431 81.2214C187.727 81.0935 188.053 81.0298 188.412 81.0298C188.814 81.0298 189.162 81.1068 189.46 81.2612C189.758 81.4169 190.003 81.6245 190.195 81.8866C190.387 82.1475 190.525 82.4455 190.61 82.7808C190.695 83.1148 190.725 83.4648 190.701 83.8294H187.3ZM151.191 25.2794C150.882 25.0971 150.685 24.9015 150.685 24.6035C150.685 23.7918 151.457 22.4919 152.883 21.0721C157.157 16.7876 167.059 11.2683 177.315 11.2736C182.499 11.2723 186.721 12.5563 189.526 14.95C191.957 17.0218 193.292 19.9624 193.293 23.2237C193.293 28.2387 190.93 31.6969 189.493 33.7886C188.758 34.8477 188.321 35.4705 188.314 36.1769C188.313 36.7371 188.582 37.2095 189.018 37.6567C189.456 38.1077 190.071 38.5587 190.828 39.1203C193.813 41.3317 198.722 44.9428 198.725 52.3982C198.722 60.8701 194.246 66.0168 190.478 68.8604C185.831 72.365 179.648 74.3782 173.53 74.3768C158.249 74.3703 150.351 65.8758 150.351 57.5489C150.351 55.0768 151.274 52.5539 152.96 50.6564C154.649 48.7564 157.09 47.4777 160.159 47.4763H160.165C161.879 47.4763 164.044 47.8769 165.762 49.0265C167.481 50.1788 168.766 52.0549 168.77 55.0993C168.77 55.1884 168.769 55.2776 168.768 55.3655C168.615 55.0235 168.399 54.6442 168.102 54.2823C167.482 53.5212 166.494 52.8478 165.043 52.8492C163.403 52.8532 162.007 54.1946 162.003 55.8044C162.003 56.1078 161.967 56.2915 161.93 56.3833C161.921 56.4062 161.91 56.4278 161.895 56.4472C161.495 56.4393 161.018 56.1625 160.639 55.6169C160.255 55.0633 159.974 54.245 159.974 53.1991C159.974 52.9903 159.986 52.7722 160.01 52.5471L160.06 52.059L159.732 52.4249C158.187 54.1439 157.629 55.6993 157.629 57.0366C157.633 59.2294 159.108 60.7915 159.98 61.6099C160.143 61.755 160.338 61.9373 160.493 62.0996C160.57 62.1795 160.638 62.2553 160.682 62.3138C160.704 62.3458 160.722 62.3697 160.731 62.387C160.735 62.3937 160.738 62.4016 160.738 62.4016C160.726 62.4815 160.565 62.6917 160.156 62.854C159.717 63.039 159.014 63.1839 158.011 63.1839C157.663 63.1839 157.278 63.1668 156.855 63.1281L156.472 63.0908L156.719 63.3889C159.645 66.8776 162.879 67.8305 165.677 67.8278C167.746 67.8278 169.581 67.3129 170.905 66.9429C171.461 66.7846 172.092 66.5477 172.439 66.5531C172.585 66.5531 172.646 66.5864 172.672 66.6276C172.704 66.6701 172.733 66.7579 172.733 66.8922C172.736 67.2969 172.496 68.034 172.094 68.7897C171.695 69.5482 171.135 70.3399 170.519 70.9014L170.146 71.242L170.647 71.1769C179.194 70.0777 182.046 65.1239 183.454 62.5693C183.686 62.1421 183.907 61.7469 184.104 61.4676C184.296 61.1802 184.489 61.0418 184.534 61.0578C184.612 61.0551 184.744 61.1309 184.884 61.3425C185.304 61.9639 185.657 63.5247 185.656 65.1494C185.656 65.8545 185.59 66.5756 185.444 67.2449L185.338 67.74L185.708 67.3939C188.936 64.4069 189.82 61.2653 189.819 58.6507C189.819 56.6468 189.303 54.9503 188.945 53.8525C188.747 53.2457 188.582 52.7015 188.584 52.4447C188.584 52.2266 188.621 52.1161 188.665 52.059C188.705 52.0056 188.777 51.9658 188.914 51.9298C190.278 51.9338 191.895 52.4195 193.836 53.3429L194.217 53.5239L194.053 53.1366C191.418 46.9747 185.553 44.3282 179.84 42.8846C176.979 42.162 174.15 41.7375 171.77 41.3263C170.037 41.027 168.537 40.7303 167.448 40.339C167.265 40.2606 167.087 40.1781 166.912 40.0982C170.177 39.6885 174.118 37.3864 177.616 35.1405C178.929 34.2981 179.949 33.444 180.766 32.7628C181.193 32.4101 181.588 32.0813 181.923 31.8472C182.253 31.6078 182.537 31.4734 182.663 31.4813C182.782 31.4826 182.881 31.5306 182.985 31.6449C183.307 31.9897 183.497 32.9476 183.491 33.9921C183.491 34.8318 183.38 35.7338 183.178 36.4551L183.065 36.8596L183.418 36.632C186.195 34.8437 187.528 32.14 187.528 29.6011C187.529 27.0571 186.117 25.4697 185.207 24.4531C185.069 24.2961 184.907 24.1112 184.776 23.9488C184.671 23.8211 184.587 23.688 184.563 23.6415C184.579 23.5776 184.659 23.4446 184.813 23.3354C185.396 22.899 186.389 22.6289 187.54 22.6289C188.126 22.6289 188.753 22.6994 189.392 22.8458L189.827 22.9455L189.553 22.593C187.163 19.5207 184.418 18.6371 181.97 18.6398C180.043 18.6411 178.297 19.1787 177.025 19.5938C176.405 19.7974 175.547 20.0622 175.18 20.0596C175.146 20.0611 175.112 20.0579 175.079 20.0502C175.088 19.6031 175.409 18.8473 176.023 18.049C176.65 17.228 177.576 16.3499 178.762 15.6393L179.194 15.3798L178.69 15.3452C178.467 15.3287 178.243 15.3203 178.019 15.32C173.104 15.3266 166.76 18.8966 162.079 21.3143C159.159 22.8219 153.032 26.3758 151.191 25.2794ZM170.702 58.1383C173.656 58.1397 176.121 57.2389 178.027 55.4905C180.062 53.6371 181.221 50.8628 181.221 47.8821C181.225 46.4572 180.776 45.2676 179.955 44.3509C184.358 45.4033 188.93 47.6653 191.473 51.0689C190.331 50.6991 189.534 50.5979 188.725 50.5979C187.902 50.6098 187.25 51.4655 187.247 52.4447C187.248 52.9583 187.441 53.5399 187.675 54.2664C188.043 55.3946 188.515 56.8516 188.515 58.5922C188.514 60.1942 188.117 62.0384 186.852 64.0968C186.816 62.4363 186.367 61.1109 185.793 60.3977C185.34 59.8494 184.859 59.7099 184.534 59.7124C184.008 59.7099 183.597 59.9719 183.259 60.3698C182.917 60.7677 182.622 61.3065 182.285 61.9186C181.073 64.0927 179.168 67.5589 173.2 69.3526C173.739 68.4211 174.019 67.4697 174.019 66.7061C174.019 66.4041 173.976 66.1299 173.879 65.897C173.698 65.442 173.298 65.1665 172.847 65.1692H172.834C172.183 65.1932 171.421 65.4008 170.541 65.6522C169.168 66.0354 167.502 66.5038 165.669 66.5038C163.771 66.5011 161.698 66.0075 159.568 64.3934C160.309 64.2804 160.961 64.0236 161.437 63.6138C161.829 63.2771 162.075 62.8407 162.076 62.3829C162.067 61.6844 161.517 61.2068 160.892 60.632C159.979 59.7709 158.891 58.7597 158.892 57.0553C158.892 56.5642 158.981 56.0108 159.199 55.3802C159.395 55.9176 159.676 56.4099 160.04 56.8197C160.598 57.4212 161.264 57.791 161.916 57.791C162.602 57.8005 163.008 57.4717 163.181 57.058C163.359 56.6468 163.352 56.1717 163.353 55.8044C163.353 55.3827 163.549 54.9796 163.862 54.6802C164.174 54.3809 164.6 54.1905 165.043 54.1919C166.047 54.1919 166.806 54.7493 167.337 55.585C167.864 56.4206 168.141 57.5302 168.14 58.5695C168.14 59.2161 168.033 59.8348 167.823 60.3432L167.594 60.8939L168.066 60.528C168.965 59.8321 169.668 58.8409 169.99 58.1212C170.23 58.1318 170.468 58.1383 170.702 58.1383ZM165.895 37.9041C166.817 36.982 168.724 35.6766 170.146 34.7746C171.542 33.8777 172.794 33.0781 173.711 32.2769C174.624 31.4773 175.222 30.6576 175.225 29.713C175.228 28.9719 174.938 28.2906 174.399 27.749C173.426 26.7923 171.704 26.3426 169.557 26.1044C167.409 25.8676 164.829 25.8595 162.153 25.8595H161.419C159.213 25.8595 157.455 25.8276 156.052 25.7717C158.001 25.0146 160.256 23.8104 162.712 22.4985C166.697 20.3669 171.112 18.0011 175.272 16.9472C174.311 18.0357 173.688 19.2731 173.684 20.3429C173.684 20.6024 173.765 20.8831 173.968 21.1014C174.171 21.3209 174.491 21.4633 174.92 21.4619C175.662 21.4593 176.49 21.1772 177.45 20.8712C178.748 20.4427 180.252 19.9531 181.907 19.9531C183.348 19.9544 184.905 20.3216 186.566 21.434C185.464 21.5059 184.56 21.8278 183.995 22.2736C183.382 22.746 183.231 23.2848 183.235 23.6561C183.241 24.2668 183.668 24.7285 184.2 25.3393C185.054 26.3013 186.175 27.5667 186.177 29.6011C186.177 31.0888 185.608 32.6682 184.761 33.8685C184.765 33.7832 184.767 33.6954 184.767 33.605C184.764 32.5724 184.538 31.4054 183.971 30.7442C183.629 30.3582 183.175 30.1361 182.663 30.1388C181.79 30.1467 181.038 30.812 179.917 31.7342C179.118 32.3914 178.136 33.2271 176.89 34.0094C171.642 37.3133 168.83 38.5972 166.834 38.7584C166.098 38.8182 164.993 38.8061 165.895 37.9041ZM192.183 37.2959C191.629 36.8929 190.975 36.4045 190.682 36.1157C190.841 35.8443 191.12 35.4225 191.372 35.0658C192.834 32.9489 195.575 28.9426 195.575 23.2237C195.575 19.9398 194.374 16.3751 191.482 13.6381C188.592 10.8984 184.02 8.99696 177.315 8.99829C170.955 8.99962 163.793 11.0887 157.604 14.7465C154.828 16.3937 152.542 18.1661 150.942 19.8693C149.346 21.5724 148.422 23.2011 148.418 24.6035C148.416 25.2834 148.678 25.9088 149.173 26.3985C150.078 27.2886 151.68 27.7011 153.725 27.9206C155.77 28.1349 158.268 28.1415 160.953 28.1415H161.432C165.573 28.1415 168.498 28.2533 170.367 28.526C171.303 28.6617 171.974 28.8415 172.39 29.0518C172.813 29.2699 172.946 29.4774 172.948 29.713C172.955 29.81 172.842 30.0283 172.585 30.2811C171.691 31.1766 169.344 32.5071 167.232 33.9682C166.174 34.7012 165.172 35.4705 164.427 36.2555C163.685 37.0392 163.182 37.8428 163.174 38.6717V38.7118C163.183 39.7628 163.741 40.6079 164.59 41.2611C167.156 43.2292 172.476 43.7455 175.257 44.251C176.973 44.5636 177.884 45.1731 178.376 45.8372C178.867 46.505 178.957 47.2501 178.957 47.8821C178.957 50.2653 178.073 52.3702 176.484 53.8099C175.073 55.1074 173.372 55.9469 170.891 55.9509C170.795 55.9509 170.696 55.9482 170.596 55.9469C170.654 55.4718 170.682 55.0061 170.682 54.5538C170.684 51.7489 169.579 49.4084 167.706 47.7837C165.832 46.159 163.199 45.245 160.144 45.245C156.375 45.2437 153.349 46.8097 151.277 49.1303C149.204 51.4522 148.077 54.5232 148.076 57.5489C148.074 62.3111 150.272 67.0932 154.553 70.6793C158.836 74.2638 165.199 76.6522 173.53 76.6522C180.135 76.6522 186.797 74.4714 191.839 70.6845C196.015 67.539 201.008 61.8041 201.007 52.3982C201.008 43.7894 195.229 39.5355 192.183 37.2959Z" fill="#6B6F75"/>
</g>
<defs>
<clipPath id="clip0_942_14050">
<rect width="202.125" height="77" fill="white" transform="translate(74.4375 9)"/>
</clipPath>
</defs>
</svg>
