<svg width="352" height="92" viewBox="0 0 352 92" fill="none" xmlns="http://www.w3.org/2000/svg">
<mask id="mask0_942_13873" style="mask-type:luminance" maskUnits="userSpaceOnUse" x="50" y="15" width="252" height="63">
<path d="M301.609 15.2H50.5V77.977H301.609V15.2Z" fill="white"/>
</mask>
<g mask="url(#mask0_942_13873)">
<path d="M282.269 61.6746C281.66 61.6746 281.053 61.5733 280.546 61.2696H280.446C280.343 61.2696 274.572 57.827 270.625 55.4981C266.371 52.9668 266.371 51.5493 266.371 51.043C266.371 49.7267 267.788 48.3092 270.625 46.5878C274.572 44.259 280.343 40.9176 280.446 40.8165H280.546C281.762 40.3102 283.18 40.3102 284.293 41.0189C285.103 41.5252 285.507 42.234 285.507 43.044C285.507 43.6515 285.507 44.4616 285.507 44.4616V46.1828L296.038 46.2841C297.355 46.1828 298.571 46.6891 299.481 47.4992C300.392 48.4104 301.001 49.5241 301.101 50.8405C301.202 52.1567 300.695 53.3718 299.885 54.3843C298.975 55.2957 297.861 55.9031 296.545 56.0044H285.507V57.7256C285.507 57.7256 285.507 58.5357 285.507 59.1433C285.507 59.9534 285.103 60.6622 284.293 61.1683C283.787 61.472 283.079 61.6746 282.269 61.6746ZM281.356 59.9534C282.167 60.2571 282.977 60.1558 283.483 59.8521C283.686 59.7508 283.889 59.5484 283.889 59.2445C283.889 58.5357 283.889 57.827 283.889 57.827V54.4856L296.444 54.5869C297.254 54.5869 298.064 54.1819 298.671 53.5744C299.278 52.9668 299.582 52.0556 299.481 51.2456C299.481 50.3342 299.075 49.6254 298.468 49.018C297.861 48.4104 296.951 48.1066 296.14 48.2079L283.889 48.1066V44.7653C283.889 44.7653 283.889 43.9552 283.889 43.3478C283.889 43.0441 283.686 42.8414 283.483 42.7403C282.977 42.4364 282.066 42.234 281.356 42.639C280.85 42.9427 275.383 46.0817 271.636 48.3092C268.902 49.9292 268.194 50.9418 268.194 51.3469C268.194 51.7517 268.902 52.7644 271.636 54.3843C275.383 56.4094 280.85 59.6495 281.356 59.9534Z" fill="#A6A9AE"/>
<path d="M61.4354 50.5378V20.3643H50.5V15.8079H77.8384V20.3643H66.3968V50.5378H61.4354Z" fill="#707780"/>
<path d="M100.42 50.5374L91.1048 35.7545C88.877 35.8556 88.3709 35.7545 86.4471 35.6531V50.6387H81.4856V15.8075H81.5869C81.7893 15.8075 83.1057 15.7062 85.3333 15.605C87.5608 15.5037 89.2821 15.4025 90.2947 15.4025C98.5974 15.4025 102.85 18.7438 102.85 25.4266C102.85 27.6541 102.141 29.5779 100.825 31.4005C99.5087 33.1219 97.9899 34.1343 96.1674 34.6407L106.191 50.5374H100.42ZM89.0797 20.1614C88.6746 20.1614 87.7633 20.2626 86.3458 20.3639L86.4471 31.4005C87.4595 31.4005 88.5733 31.5017 89.586 31.5017C92.3197 31.5017 94.3448 31.0967 95.661 30.1854C96.8761 29.2742 97.4836 27.7554 97.4836 25.4266C97.4836 23.604 96.7748 22.1864 95.4586 21.3764C94.1422 20.5664 92.016 20.1614 89.0797 20.1614Z" fill="#707780"/>
<path d="M120.772 15.8079H122.493L135.555 50.5378H130.087L127.556 43.2475H114.899L112.469 50.5378H106.9L120.772 15.8079ZM126.138 39.5011L121.481 26.3382L116.418 39.5011H126.138Z" fill="#707780"/>
<path d="M159.854 50.639L142.945 26.8445V50.5378H138.186V15.8079H140.515L157.323 38.6911V15.8079H162.082V50.639H159.854Z" fill="#707780"/>
<path d="M174.126 51.1452C171.089 51.1452 168.355 50.4364 166.229 48.9176L167.95 44.2599L168.051 44.3612C168.962 45.0699 170.076 45.5763 171.392 45.9813C172.709 46.3863 173.822 46.5888 174.835 46.5888C176.658 46.5888 178.075 46.0826 179.189 45.1712C180.303 44.1588 180.809 42.9437 180.809 41.4249C180.809 40.3111 180.505 39.1973 179.898 38.2859C179.29 37.2735 177.771 36.261 175.341 35.0459L172.607 33.7297C170.279 32.6159 168.557 31.2995 167.646 29.7807C166.735 28.2619 166.229 26.4394 166.229 24.3131C166.229 21.6805 167.14 19.5541 168.962 17.8329C170.785 16.1115 173.215 15.3015 176.05 15.3015C179.898 15.3015 182.53 15.909 184.049 17.2253L182.632 21.6805L182.53 21.5792C181.821 21.073 180.91 20.6679 179.594 20.2629C178.379 19.8579 177.164 19.6554 176.05 19.6554C174.531 19.6554 173.316 20.0604 172.405 20.9717C171.494 21.883 171.089 22.9968 171.089 24.3131C171.089 25.1231 171.291 25.9331 171.595 26.6419C171.899 27.3507 172.405 27.9582 172.911 28.3632C173.519 28.8695 174.734 29.477 176.455 30.3883L179.29 31.7046C181.619 32.8183 183.34 34.1347 184.252 35.7546C185.163 37.2735 185.669 39.2986 185.669 41.7286C185.669 44.3612 184.555 46.5888 182.53 48.4113C180.505 50.234 177.67 51.1452 174.126 51.1452Z" fill="#707780"/>
<path d="M200.557 15.8079H202.279L215.239 50.5378H209.771L207.341 43.3488H194.684L192.254 50.639H186.686L200.557 15.8079ZM205.924 39.5011L201.266 26.3382L196.203 39.5011H205.924Z" fill="#707780"/>
<path d="M229.11 51.1452C224.554 51.1452 221.01 49.5251 218.377 46.1837C215.745 42.9437 214.428 38.5898 214.428 33.3247C214.428 28.1607 215.846 23.8068 218.58 20.4654C221.314 17.0228 224.959 15.3015 229.414 15.3015C233.161 15.3015 236.097 15.909 238.222 17.2253L236.602 21.5792L236.502 21.478C234.982 20.3642 232.554 19.7567 229.414 19.7567C226.477 19.7567 224.047 21.073 222.326 23.6043C220.504 26.1356 219.592 29.477 219.592 33.5271C219.592 37.3748 220.504 40.5135 222.326 42.9437C224.149 45.3738 226.579 46.4876 229.414 46.4876C232.554 46.4876 234.982 45.3738 236.704 43.1461L236.805 43.045L236.907 42.9437L239.641 46.6901C237.008 49.7277 233.464 51.1452 229.11 51.1452Z" fill="#707780"/>
<path d="M252.293 50.5378V20.3643H241.357V15.8079H268.796V20.3643H257.355V50.5378H252.293Z" fill="#707780"/>
<path d="M264.446 77.7741C263.736 77.7741 263.029 77.5716 262.422 77.1666C261.612 76.6603 261.206 75.9515 261.206 75.1415C261.206 74.534 261.206 73.7239 261.206 73.7239V72.0027L250.675 71.9014C249.358 72.0027 248.144 71.4964 247.234 70.6863C246.321 69.7752 245.714 68.6614 245.613 67.345C245.511 66.0288 246.018 64.8137 246.828 63.8012C247.738 62.8898 248.854 62.2824 250.168 62.1811H261.206V60.4597C261.206 60.4597 261.206 59.6498 261.206 59.0422C261.206 58.2321 261.612 57.5234 262.422 57.0172C263.535 56.3085 264.952 56.2072 266.167 56.8146H266.269C266.37 56.8146 272.141 60.2573 276.09 62.5861C280.343 65.1174 280.343 66.5349 280.343 67.0413C280.343 68.3575 278.925 69.7752 276.09 71.4964C272.141 73.8253 266.37 77.1666 266.269 77.2679H266.167C265.66 77.6728 265.053 77.7741 264.446 77.7741ZM250.675 70.3826L262.926 70.4839V73.8253C262.926 73.8253 262.926 74.6353 262.926 75.2428C262.926 75.5465 263.129 75.7491 263.332 75.8502C263.839 76.1541 264.749 76.3565 265.459 75.9515C265.965 75.6478 271.433 72.5089 275.18 70.2813C277.913 68.6614 278.621 67.6487 278.621 67.2437C278.621 66.8386 277.913 65.8262 275.18 64.2061C271.433 61.9785 265.965 58.7384 265.459 58.536C264.649 58.2321 263.839 58.3334 263.332 58.6371C263.129 58.7384 262.926 58.941 262.926 59.2448C262.926 59.9535 262.926 60.6623 262.926 60.6623V64.0036L250.371 63.9023C249.561 63.9023 248.751 64.3074 248.144 64.915C247.537 65.5224 247.234 66.4338 247.334 67.2437C247.334 68.155 247.738 68.8638 248.347 69.4712C248.954 70.18 249.764 70.4839 250.675 70.3826Z" fill="#A6A9AE"/>
</g>
</svg>
