<svg width="138" height="26" viewBox="0 0 138 26" fill="none" xmlns="http://www.w3.org/2000/svg">
<g style="mix-blend-mode:luminosity" opacity="0.55" clip-path="url(#clip0_5959_9242)">
<path d="M36.5573 8.54039C35.0671 8.52894 33.5909 8.82719 32.222 9.41629L31.9828 9.52086L32.0931 9.75149C32.106 9.78587 32.1647 9.95633 32.4197 10.6618C32.6303 11.2548 32.742 11.5685 32.7506 11.5929L32.8322 11.8421L33.0721 11.749C34.1022 11.3049 35.2035 11.0487 36.3238 10.9927C36.5462 10.9736 36.7702 10.9988 36.9829 11.0668C37.1956 11.1347 37.3927 11.2442 37.5628 11.3888C37.8589 11.762 37.999 12.2352 37.9539 12.7095V13.0805C37.8107 13.0955 37.6495 13.1112 37.4625 13.1277C37.1603 13.1549 36.8839 13.1829 36.6396 13.2108C36.3954 13.2388 36.1691 13.2659 35.9671 13.2924C34.7103 13.3463 33.4905 13.7347 32.434 14.4176C32.0166 14.7526 31.6865 15.1838 31.4722 15.6743C31.2579 16.1648 31.1658 16.6999 31.2036 17.2338C31.173 17.7323 31.25 18.2315 31.4293 18.6976C31.6086 19.1637 31.8861 19.5858 32.2428 19.9353C32.9777 20.5764 33.9306 20.9112 34.905 20.8707C35.6035 20.8893 36.2971 20.7487 36.9333 20.4596C37.4407 20.2012 37.9089 19.8723 38.3242 19.4827C38.3514 19.5672 38.3843 19.6689 38.4237 19.7914C38.6114 20.3644 38.6386 20.4539 38.6386 20.4639L38.6858 20.6544H41.0831V13.0088C41.0831 11.4596 40.7142 10.3152 39.9872 9.6054C39.0258 8.81804 37.7956 8.43605 36.5573 8.54039ZM37.9446 15.2484V17.1041C37.7469 17.4861 37.45 17.8077 37.0851 18.0352C36.6479 18.3134 36.1378 18.4555 35.6197 18.4435C35.2532 18.4699 34.8905 18.3554 34.6056 18.1233C34.4879 18.002 34.3973 17.8572 34.3399 17.6983C34.2825 17.5393 34.2595 17.37 34.2725 17.2015C34.2499 16.9465 34.2965 16.69 34.4074 16.4592C34.5183 16.2284 34.6895 16.0318 34.9028 15.8902C35.595 15.533 36.3582 15.3346 37.1367 15.3093C37.1675 15.3093 37.2613 15.3021 37.6832 15.2678L37.9446 15.2484Z" fill="#231F20"/>
<path d="M48.0677 13.402C47.9853 13.3669 47.8715 13.3225 47.7196 13.266C47.5463 13.2015 47.4811 13.18 47.4482 13.17C46.8804 12.9784 46.333 12.7313 45.8138 12.4323C45.7107 12.3687 45.6264 12.2788 45.5696 12.1718C45.5128 12.0648 45.4856 11.9446 45.4908 11.8235C45.4824 11.7008 45.5087 11.5783 45.5667 11.4698C45.6247 11.3614 45.7121 11.2715 45.8188 11.2104C46.1641 11.0329 46.5506 10.9508 46.9382 10.9727C47.9505 10.9961 48.9449 11.2442 49.8497 11.6989L50.0946 11.8157L50.9161 9.47864L50.7191 9.37836C49.5257 8.79933 48.2122 8.51118 46.886 8.53752C45.7532 8.47444 44.6307 8.78111 43.6873 9.41132C43.294 9.71097 42.9795 10.102 42.7712 10.5505C42.5629 10.999 42.4671 11.4915 42.492 11.9854C42.4523 12.785 42.7172 13.5699 43.2332 14.182C43.8859 14.8199 44.6722 15.3047 45.5352 15.6015C45.6233 15.6366 45.8167 15.709 46.1082 15.8164C46.7016 16.023 47.2698 16.2959 47.802 16.63C47.9164 16.7103 48.0091 16.8178 48.0716 16.9429C48.1341 17.0679 48.1645 17.2065 48.1601 17.3463C48.1671 17.4985 48.135 17.65 48.0668 17.7863C47.9986 17.9226 47.8965 18.0391 47.7705 18.1248C47.3984 18.3415 46.9705 18.4432 46.5408 18.417C45.9272 18.405 45.3181 18.3086 44.7309 18.1305C44.1607 17.9779 43.6096 17.7617 43.0878 17.4859L42.7735 17.3104L42.4297 19.8723L42.5729 19.9569C43.8214 20.601 45.2167 20.9074 46.6202 20.8457C47.8124 20.9175 48.9921 20.5693 49.9542 19.8616C50.359 19.5146 50.6794 19.0799 50.8912 18.5906C51.1029 18.1013 51.2003 17.5702 51.1761 17.0375C51.2089 16.2223 50.9292 15.4253 50.394 14.8094C49.7385 14.1658 48.942 13.6839 48.0677 13.402Z" fill="#231F20"/>
<path d="M61.1666 9.3538C60.433 8.80728 59.5394 8.51846 58.6248 8.53227C57.8829 8.52365 57.1508 8.70227 56.4962 9.05155C56.0386 9.2985 55.6335 9.63228 55.3037 10.0342L55.0888 8.82092H52.3672V25.377L55.5049 25.2179V20.7001C55.5049 20.6349 55.4999 20.4537 55.4605 19.7038C55.7704 19.9899 56.1191 20.231 56.4962 20.42C57.1217 20.7268 57.8106 20.8821 58.5073 20.8734C59.2003 20.8943 59.8879 20.7456 60.5103 20.4402C61.1327 20.1347 61.671 19.6818 62.0784 19.1208C62.9861 17.8243 63.4419 16.2652 63.3754 14.6839C63.3909 13.6213 63.2033 12.5655 62.8225 11.5733C62.4883 10.6936 61.9147 9.92477 61.1666 9.3538ZM60.2355 14.6595C60.2943 15.6162 60.0728 16.5692 59.5981 17.4019C59.4253 17.6846 59.1811 17.9167 58.89 18.0749C58.5989 18.2331 58.2712 18.3117 57.9401 18.3029C57.5865 18.3264 57.2328 18.2578 56.9136 18.1039C56.5944 17.9501 56.3205 17.7161 56.1187 17.4248C55.6279 16.5278 55.407 15.508 55.4827 14.4883C55.5013 12.2015 56.2892 11.0899 57.8892 11.0899C58.223 11.0755 58.555 11.1465 58.8538 11.2962C59.1525 11.4458 59.4082 11.6691 59.5967 11.945C60.078 12.7641 60.3002 13.7096 60.2341 14.6573L60.2355 14.6595Z" fill="#231F20"/>
<path d="M69.5717 8.54038C68.8199 8.50982 68.0706 8.64558 67.3773 8.93801C66.684 9.23043 66.0637 9.67232 65.5609 10.2321C64.5372 11.4886 64.0152 13.0797 64.0955 14.6984C64.0045 16.3507 64.5636 17.973 65.6533 19.2184C66.2211 19.7814 66.9007 20.2189 67.6482 20.5026C68.3958 20.7864 69.1945 20.9101 69.9928 20.8657C71.434 20.9013 72.8551 20.5233 74.0881 19.7763L74.2314 19.6839L73.7651 17.2553L73.4679 17.4271C72.449 18.0328 71.287 18.3559 70.1017 18.3632C69.7221 18.3864 69.3421 18.3275 68.9873 18.1907C68.6325 18.0539 68.3112 17.8423 68.0454 17.5704C67.5609 17.0027 67.2881 16.2847 67.2733 15.5385H74.6368V15.2864C74.6368 15.1632 74.6384 14.9722 74.6418 14.7134C74.6451 14.4546 74.6468 14.2636 74.6468 14.1404C74.715 12.6723 74.2423 11.2302 73.3182 10.0874C72.8485 9.56655 72.2684 9.15733 71.6201 8.88966C70.9719 8.62199 70.272 8.50266 69.5717 8.54038ZM71.6487 13.3333H67.3307C67.3714 12.7 67.6193 12.0978 68.0361 11.6194C68.2339 11.4094 68.4737 11.2435 68.7399 11.1324C69.0061 11.0214 69.2927 10.9677 69.581 10.9748C69.8672 10.9585 70.1532 11.009 70.4165 11.1224C70.6798 11.2357 70.9131 11.4088 71.098 11.628C71.4617 12.1216 71.6552 12.7201 71.6495 13.3333H71.6487Z" fill="#231F20"/>
<path d="M85.4049 9.76495C85.015 9.34212 84.535 9.01238 84.0004 8.80014C83.4658 8.58789 82.8903 8.49859 82.3165 8.53881C80.9696 8.55442 79.6789 9.08101 78.7054 10.0121L78.4612 8.8167H75.8828V20.6514H79.0205V14.8845C78.9979 14.0845 79.0577 13.2843 79.1989 12.4966C79.4086 12.0814 79.7313 11.7338 80.13 11.4939C80.5605 11.2217 81.0602 11.079 81.5696 11.0828C81.8191 11.0513 82.0725 11.0869 82.3036 11.186C82.5348 11.2851 82.7353 11.444 82.8845 11.6465C83.1819 12.2394 83.3182 12.9001 83.2799 13.5623V20.6514H86.4312V13.235C86.5109 11.9933 86.1472 10.7636 85.4049 9.76495Z" fill="#231F20"/>
<path d="M90.2004 25.8371L90.0493 24.2807H92.1077C92.6083 24.2868 93.1083 24.2453 93.601 24.1569C93.9776 24.0926 94.3377 23.954 94.6603 23.7493C94.9222 23.5791 95.1541 23.3666 95.3464 23.1205C95.5389 22.8517 95.6746 22.5467 95.7453 22.2238C95.8347 21.8649 95.8955 21.4994 95.9272 21.1309C95.9573 20.7704 95.9724 20.3289 95.9724 19.8066V18.8039C95.6096 19.3555 95.131 19.8215 94.57 20.1697C93.9502 20.5112 93.2488 20.6768 92.5417 20.6488C91.9417 20.6551 91.3465 20.5411 90.7913 20.3136C90.2855 20.1097 89.8257 19.8065 89.439 19.4219C89.0646 19.0406 88.7482 18.6062 88.5001 18.1328C88.2449 17.6553 88.0549 17.1459 87.935 16.618C87.8178 16.1009 87.7585 15.5725 87.7581 15.0423C87.7513 14.2694 87.8515 13.4993 88.056 12.754C88.2403 12.0825 88.5388 11.4477 88.9384 10.8775C89.3341 10.3234 89.8636 9.87842 90.4776 9.58405C91.1598 9.26118 91.9074 9.10059 92.662 9.1149C93.3217 9.10011 93.975 9.2477 94.5643 9.54466C95.1449 9.86487 95.6439 10.3146 96.0225 10.8589V9.35485H97.6698V19.8481C97.6698 20.3289 97.6581 20.7498 97.6347 21.1108C97.6049 21.5146 97.5475 21.9159 97.4628 22.3119C97.388 22.7037 97.2643 23.0846 97.0946 23.4457C96.9205 23.7905 96.7019 24.111 96.4443 24.3989C96.1645 24.7188 95.8252 24.9813 95.4452 25.1717C94.9879 25.3914 94.5047 25.5524 94.0071 25.6509C93.3708 25.7808 92.7226 25.8429 92.0733 25.8364L90.2004 25.8371ZM92.7938 19.1885C93.312 19.1998 93.8262 19.094 94.2979 18.8791C94.7063 18.6919 95.0554 18.3961 95.307 18.0239C95.5532 17.6508 95.7357 17.2393 95.847 16.8063C95.9687 16.328 96.0281 15.836 96.0239 15.3424V14.5073C96.0283 13.9948 95.9672 13.4838 95.842 12.9868C95.7294 12.5417 95.5398 12.1197 95.2819 11.7399C95.0263 11.3702 94.6784 11.0738 94.2728 10.8804C93.8137 10.6657 93.3112 10.5598 92.8045 10.571C92.3678 10.565 91.9352 10.6565 91.5383 10.8388C91.1775 11.0028 90.857 11.2439 90.5993 11.545C90.3436 11.8539 90.1332 12.1975 89.9741 12.5656C89.8058 12.9434 89.6822 13.3395 89.6059 13.746C89.5319 14.1437 89.4948 14.5475 89.4949 14.9521C89.4949 15.3503 89.5355 15.7474 89.616 16.1374C89.6977 16.5333 89.8262 16.918 89.9991 17.2834C90.1625 17.6371 90.3765 17.9653 90.6344 18.2574C90.8948 18.5445 91.2117 18.7745 91.5655 18.9328C91.9513 19.1068 92.3706 19.194 92.7938 19.1885Z" fill="#231F20"/>
<path d="M104.423 9.25207C104.7 9.25021 104.976 9.27103 105.25 9.31436L105.189 10.9015C104.923 10.8509 104.653 10.8233 104.382 10.8191C103.949 10.8049 103.518 10.8876 103.121 11.0611C102.724 11.2345 102.37 11.4944 102.086 11.8218C101.49 12.5116 101.175 13.4002 101.203 14.3114V20.6606H99.5179C99.5112 13.7205 99.5078 9.95155 99.5078 9.35375H100.91L101.071 11.3842C101.436 10.7648 101.936 10.2361 102.535 9.83793C103.091 9.45778 103.749 9.25366 104.423 9.25207Z" fill="#231F20"/>
<path d="M115.714 15.0036C115.785 16.5432 115.297 18.0565 114.342 19.2659C113.876 19.8101 113.292 20.2403 112.634 20.5235C111.976 20.8067 111.262 20.9354 110.546 20.8996C109.843 20.928 109.143 20.7942 108.5 20.5085C107.857 20.2228 107.289 19.793 106.838 19.2522C105.942 18.0155 105.46 16.527 105.461 14.9996C105.462 13.4723 105.946 11.9843 106.843 10.7486C107.311 10.2067 107.896 9.77837 108.553 9.49617C109.211 9.21397 109.924 9.08533 110.639 9.11996C111.344 9.08647 112.047 9.21651 112.693 9.49993C113.339 9.78335 113.911 10.2125 114.364 10.7537C115.305 11.9648 115.784 13.4715 115.714 15.0036ZM107.209 15.0345C107.151 16.1741 107.457 17.3025 108.082 18.2574C108.371 18.6565 108.756 18.9765 109.201 19.1881C109.646 19.3997 110.137 19.4961 110.629 19.4685C111.114 19.4969 111.598 19.401 112.035 19.1899C112.472 18.9788 112.848 18.6596 113.127 18.2625C113.678 17.2665 113.967 16.1474 113.969 15.0092C113.971 13.8711 113.685 12.7511 113.137 11.7535C112.829 11.3791 112.442 11.0781 112.003 10.8722C111.564 10.6663 111.085 10.5607 110.601 10.5631C110.116 10.5656 109.638 10.6761 109.201 10.8864C108.765 11.0968 108.381 11.4018 108.077 11.7793C107.454 12.7468 107.151 13.8852 107.209 15.0345Z" fill="#231F20"/>
<path d="M119.914 20.6616L115.625 9.35469H117.431L119.873 16.0749L120.882 18.9398C121.11 18.2045 121.426 17.2562 121.83 16.095C122.341 14.6315 123.135 12.3845 124.211 9.35394H126.007L121.749 20.6609L119.914 20.6616Z" fill="#231F20"/>
<path d="M131.154 20.8992C130.445 20.9342 129.737 20.8119 129.081 20.5411C128.425 20.2703 127.836 19.8577 127.358 19.3328C126.378 18.1263 125.883 16.5971 125.971 15.0448C125.9 13.5101 126.376 12 127.313 10.7826C127.736 10.2541 128.274 9.82934 128.886 9.54084C129.498 9.25233 130.168 9.10772 130.845 9.11812C131.463 9.09173 132.078 9.20763 132.644 9.45686C133.21 9.70609 133.712 10.082 134.109 10.5556C134.958 11.6498 135.386 13.0123 135.315 14.3952C135.315 14.4778 135.313 14.6289 135.31 14.8485C135.306 15.0682 135.305 15.2263 135.305 15.3227H127.707C127.659 16.4099 128.005 17.4778 128.68 18.3308C128.997 18.6874 129.389 18.969 129.828 19.1549C130.267 19.3407 130.742 19.4262 131.218 19.4051C132.453 19.3883 133.663 19.0623 134.74 18.4568L135.002 19.8484C133.846 20.5584 132.511 20.923 131.154 20.8992ZM132.854 11.4451C132.609 11.1475 132.297 10.9112 131.944 10.7547C131.591 10.5982 131.207 10.5259 130.821 10.5434C130.422 10.5314 130.026 10.6088 129.661 10.7699C129.296 10.9311 128.972 11.1718 128.712 11.4744C128.127 12.1998 127.791 13.0944 127.754 14.0256H133.596C133.656 13.1037 133.394 12.1896 132.852 11.4408L132.854 11.4451Z" fill="#231F20"/>
<path d="M137.939 9.14766C137.94 9.39318 137.869 9.63357 137.733 9.83835C137.598 10.0431 137.405 10.2031 137.178 10.2978C136.952 10.3926 136.702 10.4179 136.461 10.3707C136.22 10.3234 135.999 10.2056 135.825 10.0322C135.651 9.85887 135.533 9.63775 135.485 9.39697C135.437 9.15618 135.461 8.9066 135.556 8.67983C135.65 8.45307 135.809 8.25939 136.013 8.12335C136.218 7.98731 136.458 7.91505 136.704 7.91575C136.866 7.91442 137.027 7.94537 137.177 8.00676C137.327 8.06816 137.464 8.15877 137.579 8.27338C137.694 8.38799 137.785 8.52429 137.847 8.67437C137.908 8.82445 137.94 8.98535 137.939 9.14766ZM135.77 9.14766C135.764 9.27473 135.785 9.40155 135.83 9.52055C135.874 9.63955 135.943 9.74829 136.031 9.84023C136.119 9.93217 136.224 10.0054 136.341 10.0557C136.458 10.1059 136.584 10.132 136.711 10.1325C136.836 10.1311 136.96 10.1044 137.074 10.0541C137.189 10.0038 137.292 9.93083 137.378 9.83962C137.464 9.74841 137.531 9.6408 137.574 9.52326C137.617 9.40571 137.637 9.28065 137.63 9.15553C137.631 9.03326 137.607 8.91207 137.561 8.79891C137.515 8.68575 137.446 8.58284 137.36 8.49601C137.274 8.40919 137.172 8.34014 137.059 8.29287C136.946 8.24561 136.825 8.22104 136.703 8.22053C136.581 8.22001 136.46 8.24359 136.347 8.2899C136.233 8.33622 136.131 8.40433 136.044 8.49042C135.957 8.57651 135.888 8.67889 135.841 8.79165C135.793 8.90442 135.769 9.02539 135.768 9.14766H135.77ZM136.512 9.79223H136.233V8.56036C136.386 8.5326 136.541 8.5199 136.696 8.52242C136.842 8.51046 136.988 8.54184 137.115 8.61264C137.154 8.64617 137.184 8.68779 137.204 8.73448C137.225 8.78116 137.234 8.83178 137.233 8.88267C137.228 8.9512 137.201 9.01631 137.156 9.06806C137.111 9.11981 137.05 9.15532 136.983 9.16913V9.18417C137.043 9.20954 137.096 9.25087 137.135 9.30372C137.173 9.35657 137.197 9.41896 137.203 9.48426C137.215 9.59113 137.245 9.69523 137.292 9.79223H136.99C136.944 9.69746 136.912 9.59632 136.895 9.49213C136.873 9.35677 136.799 9.29664 136.645 9.29664H136.512V9.79223ZM136.519 9.09324H136.652C136.806 9.09324 136.931 9.04095 136.931 8.91274C136.931 8.8003 136.85 8.72508 136.674 8.72508C136.622 8.72383 136.57 8.72888 136.519 8.74012V9.09324Z" fill="#231F20"/>
<path d="M16.4583 3.00378C15.5692 2.00587 14.626 1.0576 13.6328 0.163269L14.0053 18.1975L22.1701 14.0872L22.4566 14.6602L14.0296 19.289L14.1306 24.1729C14.1456 24.8999 14.1427 25.4807 14.1427 25.4807H19.1562C20.1501 25.4797 21.1337 25.2795 22.0489 24.892C22.9641 24.5045 23.7924 23.9376 24.4849 23.2246C29.56 18.0385 20.7513 7.60044 16.4583 3.00378Z" fill="#EF662F"/>
<path d="M12.527 22.0146L4.15658 17.4165L4.44304 16.8435L12.5492 20.926L12.7376 11.7906L8.67375 9.5582L8.96021 8.98521L12.7562 10.8961L12.9782 0.159302C11.985 1.05363 11.0418 2.0019 10.1527 2.99981C5.85974 7.59648 -2.91174 18.0726 2.12539 23.2186C2.81786 23.9315 3.64615 24.4984 4.56137 24.8859C5.47659 25.2734 6.46017 25.4736 7.45403 25.4746H12.4675C12.4675 25.4746 12.4675 24.893 12.4797 24.1668L12.527 22.0146Z" fill="#F79E31"/>
</g>
<defs>
<clipPath id="clip0_5959_9242">
<rect width="137.325" height="25.6741" fill="white" transform="translate(0.609375 0.162903)"/>
</clipPath>
</defs>
</svg>
