<svg width="138" height="34" viewBox="0 0 138 34" fill="none" xmlns="http://www.w3.org/2000/svg">
<g style="mix-blend-mode:luminosity" opacity="0.55" clip-path="url(#clip0_5959_9232)">
<path d="M8.61339 21.4666C9.14843 22.766 9.73441 24.2947 10.0147 25.8998C10.3204 27.6323 10.0656 28.8297 9.25034 29.5686C8.84269 29.9507 8.33314 30.1291 7.90002 30.0781C7.44142 30.0272 7.00831 29.7469 6.67709 29.3138C5.86181 28.2182 6.04014 26.7151 6.39683 25.2628C6.80447 23.5303 7.41594 21.8488 8.10384 20.2182C8.25671 20.6259 8.43505 21.059 8.61339 21.4666ZM5.40321 10.3584C4.86818 9.059 4.28219 7.53033 4.00194 5.92524C3.6962 4.19275 3.95098 2.99531 4.76627 2.25646C5.12295 1.92525 5.55606 1.72142 5.96371 1.72142C6.01466 1.72142 6.06562 1.72142 6.14205 1.72142C6.60065 1.77238 7.03377 2.05262 7.36498 2.48575C8.18027 3.58129 8.00193 5.08448 7.64524 6.53671C7.2376 8.26919 6.62613 9.95072 5.93823 11.5813C5.75989 11.1991 5.58155 10.766 5.40321 10.3584ZM12.1038 6.48575C11.7217 6.43479 11.314 6.63862 11.2631 7.12269C10.8045 10.4093 9.45417 13.4667 8.07837 16.4475C7.90002 16.0399 7.6962 15.6068 7.51786 15.1991C7.26308 14.6641 7.03377 14.1036 6.779 13.5431C7.46689 12.0144 8.12932 10.4603 8.61339 8.88066C9.22486 6.94435 10.6516 2.4348 7.44143 0.574925C6.2185 -0.138451 4.63887 0.141801 3.51785 1.2883C2.29492 2.56218 2.21849 4.34563 2.37136 5.61952C2.70257 8.37111 3.87455 10.9189 5.02104 13.4157C5.04652 13.4666 5.07199 13.4921 5.07199 13.5431C4.91912 13.8998 4.74079 14.2564 4.58792 14.5877C3.44142 17.0845 2.26945 19.6577 1.58155 22.3838C1.40321 23.0717 1.27581 23.7851 1.1739 24.473C1.09747 24.9826 1.47964 25.3138 1.8618 25.3647C2.24397 25.4157 2.65161 25.2119 2.70256 24.7278C3.16116 21.4412 4.51148 18.3838 5.88728 15.4029C6.06562 15.8106 6.26945 16.2182 6.44779 16.6514C6.70257 17.2119 6.95735 17.7469 7.18665 18.3074C6.49875 19.8361 5.83633 21.3902 5.35225 22.9698C4.74079 24.9061 3.28855 29.4157 6.52422 31.2756C6.98282 31.5303 7.4669 31.6577 7.97645 31.6577C8.84269 31.6577 9.73442 31.2756 10.4478 30.5622C11.6707 29.2883 11.7472 27.5049 11.5943 26.231C11.2631 23.4794 10.0911 20.9316 8.9446 18.4348C8.91912 18.3838 8.89364 18.3584 8.89364 18.3074C9.04651 17.9507 9.22486 17.594 9.37773 17.2628C10.5242 14.766 11.6962 12.1928 12.3841 9.46664C12.5624 8.77875 12.6898 8.06537 12.7917 7.37747C12.8682 6.86791 12.5115 6.5367 12.1038 6.48575Z" fill="#DB3241"/>
<path d="M2.06559 26.4605C2.90636 26.3841 3.51782 25.6452 3.41591 24.8299C3.33947 23.9891 2.60062 23.4032 1.75986 23.4796C0.919091 23.556 0.307629 24.2949 0.40954 25.1102C0.511451 25.9255 1.22483 26.5369 2.06559 26.4605Z" fill="#6B6F75"/>
<path d="M11.9552 5.36504C11.1144 5.44147 10.5029 6.18031 10.6049 6.9956C10.6813 7.83636 11.4201 8.42235 12.2609 8.34592C13.1017 8.26948 13.7131 7.53064 13.6112 6.71535C13.5093 5.90007 12.7705 5.2886 11.9552 5.36504Z" fill="#6B6F75"/>
<path d="M93.3528 30.9952V29.9251H94.4229V29.4411H93.3528V28.7532H94.5503V28.2436H92.8178V30.9952H93.3528ZM90.5757 28.1926C89.8369 28.1926 89.1745 28.7277 89.1745 29.6194C89.1745 30.5111 89.8369 31.0462 90.5757 31.0462C91.3146 31.0462 91.977 30.5111 91.977 29.6194C91.977 28.7277 91.3146 28.1926 90.5757 28.1926ZM90.5757 30.5366C90.1426 30.5366 89.7095 30.2309 89.7095 29.6194C89.7095 29.0079 90.1426 28.7022 90.5757 28.7022C91.0089 28.7022 91.442 29.0079 91.442 29.6194C91.4165 30.2309 90.9834 30.5366 90.5757 30.5366ZM85.735 29.8232V30.9697H86.27V29.8232L87.2382 28.2436H86.6267L86.0152 29.3391L85.4038 28.2436H84.7668L85.735 29.8232ZM84.0789 30.9952V28.2436H83.5439V30.0525L82.3974 28.2436H81.735V30.9952H82.27V29.0589L83.5184 30.9952H84.0789ZM80.4356 30.9952H81.0216L79.977 28.2436H79.3655L78.321 30.9952H78.8815L79.1108 30.3583H80.2318L80.4356 30.9952ZM79.6458 28.8296L80.028 29.8742H79.2637L79.6458 28.8296ZM77.1235 29.9506C77.6586 29.9506 78.0152 29.5939 78.0152 29.0844C78.0152 28.6003 77.6586 28.2181 77.1235 28.2181H76.1044V30.9697H76.6394V29.9251H77.1235V29.9506ZM76.614 29.492V28.7022H77.0471C77.3019 28.7022 77.4802 28.8551 77.4802 29.0844C77.4802 29.3137 77.3273 29.4665 77.0471 29.4665H76.614V29.492ZM75.0853 30.9952V28.2436H74.3464L73.5312 30.2309L72.7159 28.2436H72.0025V30.9952H72.5121V29.0844L73.3019 30.9952H73.735L74.5248 29.0844V30.9952H75.0853ZM69.7605 28.1926C69.0216 28.1926 68.3592 28.7277 68.3592 29.6194C68.3592 30.5111 69.0216 31.0462 69.7605 31.0462C70.4993 31.0462 71.1617 30.5111 71.1617 29.6194C71.1872 28.7277 70.5248 28.1926 69.7605 28.1926ZM69.7605 30.5366C69.3273 30.5366 68.8942 30.2309 68.8942 29.6194C68.8942 29.0079 69.3273 28.7022 69.7605 28.7022C70.1936 28.7022 70.6267 29.0079 70.6267 29.6194C70.6267 30.2309 70.1936 30.5366 69.7605 30.5366ZM65.0471 29.6194C65.0471 30.4856 65.684 31.0462 66.4484 31.0462C67.2127 31.0462 67.6203 30.5366 67.7222 30.1035L67.2127 29.9506C67.1363 30.2054 66.907 30.5111 66.4484 30.5111C66.0152 30.5111 65.6076 30.1799 65.6076 29.5939C65.6076 28.9825 66.0407 28.6767 66.4484 28.6767C66.9324 28.6767 67.1363 28.957 67.2127 29.2372L67.7222 29.0844C67.6203 28.6512 67.2127 28.1672 66.4738 28.1672C65.7095 28.1927 65.0471 28.7532 65.0471 29.6194ZM62.9834 28.906C62.9324 28.6003 62.6777 28.1926 61.9898 28.1926C61.4802 28.1926 61.0216 28.5748 61.0216 29.0589C61.0216 29.4665 61.3019 29.7468 61.735 29.8487L62.1171 29.9251C62.321 29.9761 62.4484 30.1035 62.4484 30.2563C62.4484 30.4602 62.2955 30.5876 62.0152 30.5876C61.6331 30.5876 61.4292 30.3328 61.4038 30.078L60.9197 30.2054C60.9707 30.5876 61.2764 31.0716 62.0152 31.0716C62.6522 31.0716 63.0089 30.6385 63.0089 30.2309C63.0089 29.8487 62.7541 29.5175 62.2445 29.4156L61.8624 29.3391C61.6585 29.2882 61.5566 29.1863 61.5566 29.0334C61.5566 28.8551 61.735 28.6767 61.9898 28.6767C62.3464 28.6767 62.4738 28.906 62.4993 29.0589L62.9834 28.906ZM57.6076 29.6194C57.6076 30.4856 58.2445 31.0462 59.0089 31.0462C59.7732 31.0462 60.1809 30.5366 60.2828 30.1035L59.7732 29.9506C59.6968 30.2054 59.4675 30.5111 59.0089 30.5111C58.5758 30.5111 58.1681 30.1799 58.1681 29.5939C58.1681 28.9825 58.6012 28.6767 59.0089 28.6767C59.493 28.6767 59.6968 28.957 59.7732 29.2372L60.2828 29.0844C60.1809 28.6512 59.7732 28.1672 59.0343 28.1672C58.27 28.1927 57.6076 28.7532 57.6076 29.6194ZM56.2318 30.9952H56.7668V28.2436H56.2318V30.9952ZM54.0152 30.9952C54.805 30.9952 55.3656 30.4856 55.3656 29.6194C55.3656 28.7532 54.805 28.2436 54.0152 28.2436H53.0216V30.9952H54.0152ZM53.5821 30.4856V28.7277H54.0152C54.4738 28.7277 54.8305 29.0079 54.8305 29.5939C54.8305 30.1799 54.4483 30.4602 54.0152 30.4602H53.5821V30.4856ZM52.1299 30.9952V30.4856H50.9579V29.8487H52.028V29.3646H50.9579V28.7277H52.1299V28.2181H50.4229V30.9697H52.1299V30.9952ZM49.1235 30.9952H49.7095L48.6649 28.2436H48.0534L47.0089 30.9952H47.5694L47.7987 30.3583H48.9197L49.1235 30.9952ZM48.3337 28.8296L48.7159 29.8742H47.9515L48.3337 28.8296ZM45.7859 29.9506C46.321 29.9506 46.6777 29.5939 46.6777 29.0844C46.6777 28.6003 46.321 28.2181 45.7859 28.2181H44.7668V30.9697H45.3019V29.9251H45.7859V29.9506ZM45.3019 29.492V28.7022H45.735C45.9898 28.7022 46.1681 28.8551 46.1681 29.0844C46.1681 29.3137 46.0152 29.4665 45.735 29.4665H45.3019V29.492ZM42.4993 28.1926C41.7605 28.1926 41.098 28.7277 41.098 29.6194C41.098 30.5111 41.7605 31.0462 42.4993 31.0462C43.2382 31.0462 43.9006 30.5111 43.9006 29.6194C43.9261 28.7277 43.2636 28.1926 42.4993 28.1926ZM42.4993 30.5366C42.0662 30.5366 41.6331 30.2309 41.6331 29.6194C41.6331 29.0079 42.0662 28.7022 42.4993 28.7022C42.9324 28.7022 43.3656 29.0079 43.3656 29.6194C43.3656 30.2309 42.9324 30.5366 42.4993 30.5366ZM40.2573 30.9952V28.2436H39.7222V29.3391H38.5248V28.2436H37.9898V30.9952H38.5248V29.8487H39.7222V30.9952H40.2573ZM37.2764 28.7532V28.2436H35.0089V28.7532H35.8751V30.9952H36.4101V28.7532H37.2764ZM33.7859 30.9952H34.3719L33.7859 29.8742C34.1426 29.7723 34.3719 29.492 34.3719 29.1098C34.3719 28.6258 34.0407 28.2691 33.5057 28.2691H32.4356V31.0207H32.9706V29.9761H33.2509L33.7859 30.9952ZM32.9706 29.4665V28.7022H33.4038C33.684 28.7022 33.8369 28.8551 33.8369 29.0844C33.8369 29.3137 33.684 29.4665 33.4038 29.4665H32.9706ZM30.1936 28.1926C29.4547 28.1926 28.7923 28.7277 28.7923 29.6194C28.7923 30.5111 29.4547 31.0462 30.1936 31.0462C30.9324 31.0462 31.5949 30.5111 31.5949 29.6194C31.5949 28.7277 30.9324 28.1926 30.1936 28.1926ZM30.1936 30.5366C29.7605 30.5366 29.3273 30.2309 29.3273 29.6194C29.3273 29.0079 29.7605 28.7022 30.1936 28.7022C30.6267 28.7022 31.0598 29.0079 31.0598 29.6194C31.0343 30.2309 30.6012 30.5366 30.1936 30.5366ZM26.6777 30.9952V30.4856H25.5057V29.8487H26.5757V29.3646H25.5057V28.7277H26.6777V28.2181H24.9707V30.9697H26.6777V30.9952ZM23.9515 30.9952V28.2436H23.4165V29.3391H22.2191V28.2436H21.684V30.9952H22.2191V29.8487H23.4165V30.9952H23.9515ZM20.1044 28.7532V30.9952H19.5694V28.7532H18.7031V28.2436H20.9706V28.7532H20.1044Z" fill="#6B6F75"/>
<path d="M117.682 30.2315C117.554 30.257 117.478 30.257 117.351 30.257C117.07 30.257 116.841 30.1551 116.841 29.9767C116.841 29.8748 116.892 29.8239 117.045 29.8239C117.3 29.8239 117.478 29.9767 117.682 30.2315ZM119.134 30.308C119.261 30.4863 119.44 30.6646 119.618 30.843C119.236 31.4799 118.93 32.2188 118.93 32.8812C118.93 33.3653 119.032 33.722 119.389 33.722C120.128 33.722 120.688 32.1933 120.688 31.0723C120.688 30.7411 120.663 30.3844 120.637 30.0532C120.917 29.7729 121.325 29.3653 121.427 29.3398C121.376 29.4927 121.351 29.6455 121.351 29.7984C121.351 30.4099 121.707 30.9959 122.395 30.9959C123.032 30.9959 123.516 30.4608 123.516 29.7474C123.516 29.6455 123.516 29.5691 123.491 29.4927C123.72 29.4417 123.949 29.3908 124.153 29.2634V30.7411C124.153 30.9449 124.281 30.9959 124.408 30.9959C124.586 30.9959 124.663 30.8685 124.79 30.6137C124.892 30.3844 125.172 29.8748 125.351 29.5946C125.478 29.3653 125.554 29.2124 125.605 29.2124C125.631 29.2124 125.631 29.2379 125.631 29.3398V30.5882C125.631 30.9194 125.809 31.0213 125.962 31.0213C126.115 31.0213 126.217 30.9449 126.293 30.8175C126.675 30.2825 127.083 29.6201 127.236 29.3398C127.261 29.2888 127.312 29.2634 127.338 29.2634C127.363 29.2634 127.389 29.2888 127.389 29.3653V30.6901C127.389 30.9194 127.465 31.0468 127.644 31.0468C127.822 31.0468 127.924 30.9194 128 30.792C128.255 30.2825 128.612 29.6201 128.765 29.3398C128.79 29.2888 128.841 29.2379 128.867 29.2379C128.892 29.2379 128.892 29.2634 128.892 29.3653V30.6137C128.892 30.9449 129.07 31.0468 129.223 31.0468C129.427 31.0468 129.554 30.8939 129.707 30.7411C129.962 30.4353 130.293 29.8493 130.523 29.4927C130.599 29.62 130.675 29.7474 130.752 29.9003C130.574 30.1041 130.395 30.3589 130.395 30.6137C130.395 30.8939 130.574 31.0468 130.777 31.0468C131.109 31.0468 131.414 30.7156 131.414 30.2825C131.414 30.1041 131.363 29.9258 131.287 29.7474C131.593 29.4417 131.949 29.1615 132.204 29.1105C132.077 29.2888 131.975 29.5436 131.975 29.8494C131.975 30.4608 132.331 31.0468 133.019 31.0468C133.682 31.0468 134.14 30.5118 134.14 29.7984C134.14 29.5946 134.14 29.5691 134.115 29.4672C134.268 29.3908 134.395 29.2888 134.497 29.2124C134.574 29.136 134.65 29.1105 134.701 29.1105C134.777 29.1105 134.803 29.1615 134.803 29.2634V30.7156C134.803 30.9449 134.879 31.0723 135.058 31.0723C135.236 31.0723 135.338 30.9449 135.414 30.8175C135.669 30.308 136 29.62 136.153 29.3653C136.204 29.3143 136.23 29.2634 136.255 29.2634C136.281 29.2634 136.306 29.2888 136.306 29.3908V30.5373C136.306 30.8685 136.459 31.0723 136.765 31.0723C137.096 31.0723 137.274 30.7411 137.58 30.257C137.605 30.2315 137.605 30.206 137.605 30.1806C137.605 30.1041 137.554 30.0787 137.478 30.0787C137.402 30.0787 137.376 30.1551 137.147 30.3844C137.096 30.4353 137.07 30.4863 136.968 30.4863C136.943 30.4863 136.917 30.4608 136.917 30.4099V29.1105C136.917 28.7538 136.765 28.6264 136.561 28.6264C136.408 28.6264 136.255 28.7029 136.128 28.9067C135.873 29.2634 135.618 29.7984 135.491 30.0532C135.465 30.0787 135.465 30.1296 135.44 30.1296C135.414 30.1296 135.414 30.1041 135.414 30.0532V29.1105C135.414 28.8302 135.338 28.6264 135.058 28.6264C134.752 28.6264 134.599 28.8302 134.37 28.9831C134.217 29.085 134.115 29.1615 134.013 29.2124C133.86 28.8302 133.605 28.6519 133.376 28.6519C133.147 28.6519 132.994 28.8048 132.994 29.0341C132.994 29.2888 133.147 29.4417 133.351 29.5181C133.452 29.5691 133.554 29.5691 133.707 29.5691C133.758 29.5691 133.784 29.5691 133.835 29.5691C133.86 29.6455 133.835 29.7475 133.835 29.8239C133.835 30.1806 133.631 30.5373 133.223 30.5373C132.816 30.5373 132.561 30.1296 132.561 29.6965C132.561 29.3398 132.663 29.0595 132.841 28.8557C132.917 28.7793 132.968 28.7283 132.968 28.6774C132.968 28.6519 132.917 28.6264 132.866 28.6264C132.586 28.6264 132.281 28.7538 132.077 28.8557C131.796 29.0086 131.465 29.2379 131.185 29.4927C131.058 29.1869 130.879 28.9322 130.803 28.7283C130.777 28.6519 130.752 28.55 130.701 28.55C130.65 28.55 130.624 28.6009 130.599 28.7029C130.472 29.085 129.758 30.2315 129.605 30.3844C129.58 30.4099 129.58 30.4353 129.554 30.4353C129.529 30.4353 129.529 30.4353 129.529 30.3844V29.085C129.529 28.7283 129.402 28.6009 129.198 28.6009C129.045 28.6009 128.892 28.6774 128.765 28.8812C128.51 29.2379 128.23 29.7984 128.077 30.0532C128.051 30.1041 128.026 30.1041 128.026 30.1041C128.026 30.1041 128 30.0787 128 30.0277V29.085C128 28.7283 127.847 28.6009 127.669 28.6009C127.516 28.6009 127.338 28.6519 127.236 28.8812C126.93 29.4162 126.421 30.206 126.319 30.3334C126.293 30.3589 126.293 30.3589 126.268 30.3844C126.242 30.3844 126.242 30.3589 126.242 30.3334V29.085C126.242 28.7283 126.115 28.6009 125.911 28.6009C125.656 28.6009 125.503 28.8557 125.402 29.0086C125.274 29.2124 125.096 29.5181 124.943 29.7729C124.841 29.9513 124.765 30.1041 124.739 30.1041C124.714 30.1041 124.714 30.0277 124.714 29.9258V28.9322C125.172 28.4226 125.452 27.7857 125.452 27.0978C125.452 26.6901 125.274 26.4863 124.994 26.4863C124.484 26.4863 124.102 27.2761 124.102 28.2188V28.9831C123.873 29.136 123.644 29.2124 123.363 29.2634C123.236 28.8557 122.93 28.6264 122.701 28.6519C122.472 28.6519 122.319 28.8048 122.319 29.0341C122.319 29.4162 122.701 29.5946 123.032 29.5946H123.134C123.134 29.671 123.134 29.7475 123.134 29.8239C123.134 30.1806 122.93 30.5373 122.523 30.5373C122.115 30.5373 121.86 30.1296 121.86 29.6965C121.86 29.3398 121.962 29.0595 122.14 28.8557C122.217 28.7793 122.268 28.7029 122.268 28.6774C122.268 28.6519 122.217 28.6264 122.166 28.6264C121.886 28.6264 121.274 29.0086 120.535 29.7474C120.459 29.1615 120.408 28.5755 120.408 28.015C120.408 27.378 120.535 26.8685 120.561 26.7156C120.586 26.6137 120.586 26.5627 120.586 26.5118C120.586 26.4608 120.561 26.4099 120.484 26.4099C119.898 26.4099 118.574 27.3525 118.574 28.7793C118.574 29.3653 118.701 29.7729 118.93 30.1296C118.854 30.1041 118.777 30.1041 118.726 30.1041C118.497 30.1041 118.268 30.1551 118.14 30.206V30.0532C118.14 29.7474 118.064 29.3143 117.937 29.1615C117.911 29.136 117.911 29.136 117.886 29.136C117.835 29.136 117.758 29.1615 117.682 29.2124C117.605 29.2634 117.503 29.3143 117.503 29.3398C117.503 29.3653 117.503 29.3653 117.529 29.4162C117.58 29.4927 117.733 29.6455 117.784 29.9767C117.529 29.722 117.249 29.62 116.867 29.62C116.433 29.62 116.281 29.8239 116.281 30.0277C116.281 30.4099 116.79 30.6137 117.427 30.6137C117.554 30.6137 117.682 30.5882 117.809 30.5627C117.809 30.6901 117.835 30.792 117.835 30.8685C117.835 30.9959 117.86 31.0978 117.937 31.0978C118.064 31.0978 118.14 30.843 118.14 30.4863C118.37 30.4353 118.599 30.3844 118.803 30.3844C118.905 30.2825 119.032 30.2825 119.134 30.308ZM120.382 26.6392C120.382 26.6901 120.281 26.8939 120.153 27.2506C120 27.6328 119.873 28.1678 119.873 28.8302C119.873 29.2124 119.975 29.7474 120.051 30.257L119.822 30.5627C119.44 30.1041 119.21 29.5946 119.21 28.7029C119.21 27.4545 119.975 26.5882 120.357 26.5882C120.357 26.5882 120.382 26.6137 120.382 26.6392ZM130.854 30.1296C130.905 30.257 130.93 30.3589 130.93 30.4608C130.93 30.5882 130.879 30.6901 130.803 30.6901C130.752 30.6901 130.675 30.6137 130.675 30.5118C130.675 30.4353 130.777 30.257 130.854 30.1296ZM120.102 30.6392C120.153 31.0213 120.204 31.4035 120.204 31.7092C120.204 32.4226 119.975 33.2379 119.567 33.2379C119.414 33.2379 119.287 33.085 119.261 32.8048C119.261 31.913 119.695 31.1742 120.102 30.6392ZM124.765 27.964C124.765 26.8685 124.968 26.6901 125.045 26.6901C125.172 26.6901 125.172 26.7666 125.172 27.1742C125.172 27.6073 124.994 28.1678 124.765 28.4736V27.964ZM122.701 29.0086C122.701 28.9322 122.752 28.9067 122.803 28.9067C122.905 28.9067 123.032 29.0086 123.109 29.2124C122.854 29.2124 122.701 29.1615 122.701 29.0086ZM133.351 29.0086C133.351 28.9322 133.402 28.9067 133.452 28.9067C133.554 28.9067 133.707 29.0086 133.784 29.2124C133.758 29.2124 133.707 29.2124 133.682 29.2124C133.503 29.2124 133.351 29.136 133.351 29.0086ZM98.7773 26.6392C98.7773 26.6901 98.6754 26.8939 98.548 27.2506C98.4206 27.6328 98.2678 28.1678 98.2678 28.8302C98.2678 29.2124 98.3697 29.7474 98.4461 30.257L98.2168 30.5627C97.8346 30.1041 97.6054 29.5946 97.6054 28.7029C97.6054 27.4545 98.3697 26.5882 98.7519 26.5882C98.7773 26.5882 98.7773 26.6137 98.7773 26.6392ZM109.274 30.1296C109.325 30.257 109.351 30.3589 109.351 30.4608C109.351 30.5882 109.3 30.6901 109.223 30.6901C109.172 30.6901 109.096 30.6137 109.096 30.5118C109.096 30.4353 109.172 30.257 109.274 30.1296ZM98.5226 30.6392C98.5735 31.0213 98.6245 31.4035 98.6245 31.7092C98.6245 32.4226 98.3952 33.2379 97.9875 33.2379C97.8347 33.2379 97.7073 33.085 97.6818 32.8048C97.6818 31.913 98.0894 31.1742 98.5226 30.6392ZM110.65 29.0341C110.523 29.2124 110.421 29.4672 110.421 29.7729C110.421 30.3844 110.777 30.9704 111.465 30.9704C112.128 30.9704 112.586 30.4353 112.586 29.722C112.586 29.5181 112.586 29.4927 112.561 29.3908C112.714 29.3143 112.841 29.2124 112.943 29.136C113.019 29.0595 113.096 29.0341 113.147 29.0341C113.223 29.0341 113.249 29.085 113.249 29.1869V30.6392C113.249 30.8685 113.325 30.9959 113.503 30.9959C113.682 30.9959 113.784 30.8685 113.86 30.7411C114.115 30.2315 114.446 29.5436 114.624 29.2888C114.65 29.2379 114.701 29.1869 114.701 29.1869C114.726 29.1869 114.752 29.2124 114.752 29.3143V30.4608C114.752 30.792 114.905 30.9959 115.236 30.9959C115.567 30.9959 115.745 30.6646 116.051 30.1806C116.077 30.1551 116.077 30.1296 116.077 30.1041C116.077 30.0277 116.026 30.0022 115.949 30.0022C115.873 30.0022 115.847 30.0787 115.618 30.308C115.567 30.3589 115.516 30.4099 115.44 30.4099C115.414 30.4099 115.389 30.3844 115.389 30.3334V29.0341C115.389 28.6774 115.236 28.55 115.032 28.55C114.879 28.55 114.726 28.6264 114.599 28.8302C114.344 29.1869 114.089 29.722 113.962 29.9767C113.937 30.0022 113.937 30.0532 113.911 30.0532C113.886 30.0532 113.886 30.0277 113.886 29.9767V29.0341C113.886 28.7538 113.809 28.55 113.529 28.55C113.223 28.55 113.07 28.7538 112.841 28.9067C112.714 29.0086 112.586 29.085 112.484 29.136C112.331 28.7538 112.077 28.5755 111.847 28.5755C111.618 28.5755 111.465 28.7283 111.465 28.9576C111.465 29.2124 111.618 29.3653 111.822 29.4417C111.924 29.4927 112.026 29.4927 112.179 29.4927C112.23 29.4927 112.255 29.4927 112.306 29.4927C112.331 29.5691 112.306 29.671 112.306 29.7474C112.306 30.1041 112.102 30.4608 111.695 30.4608C111.287 30.4608 111.032 30.0532 111.032 29.62C111.032 29.2634 111.134 28.9831 111.312 28.7793C111.389 28.7029 111.44 28.6519 111.44 28.6009C111.44 28.5755 111.389 28.55 111.338 28.55C111.058 28.55 110.752 28.6774 110.548 28.7793C110.268 28.9322 109.937 29.1615 109.656 29.4162C109.529 29.1105 109.351 28.8557 109.274 28.6519C109.249 28.5755 109.223 28.4736 109.172 28.4736C109.121 28.4736 109.096 28.5245 109.07 28.6264C108.943 29.0086 108.23 30.1551 108.077 30.308C108.051 30.3334 108.051 30.3589 108.026 30.3589C108 30.3589 108 30.3589 108 30.308V29.0086C108 28.6519 107.847 28.5245 107.669 28.5245C107.516 28.5245 107.363 28.601 107.236 28.8048C107.007 29.1615 106.701 29.722 106.548 29.9767C106.523 30.0277 106.497 30.0277 106.497 30.0277C106.497 30.0277 106.472 30.0022 106.472 29.9513V29.0086C106.472 28.6519 106.319 28.5245 106.14 28.5245C105.988 28.5245 105.835 28.5755 105.707 28.8048C105.402 29.3398 104.892 30.1296 104.79 30.257C104.765 30.2825 104.765 30.2825 104.739 30.308C104.714 30.308 104.714 30.2825 104.714 30.257V29.0086C104.714 28.6519 104.586 28.5245 104.382 28.5245C104.128 28.5245 103.975 28.7793 103.873 28.9322C103.745 29.136 103.567 29.4417 103.414 29.6965C103.312 29.8748 103.236 30.0277 103.21 30.0277C103.185 30.0277 103.185 29.9513 103.185 29.8494V28.8557C103.644 28.3462 103.924 27.7092 103.924 27.0213C103.924 26.6137 103.745 26.4099 103.465 26.4099C102.956 26.4099 102.574 27.1997 102.574 28.1423V28.9067C102.344 29.0595 102.115 29.136 101.835 29.1869C101.707 28.7793 101.402 28.55 101.172 28.5755C100.943 28.5755 100.79 28.7283 100.79 28.9576C100.79 29.3398 101.172 29.5181 101.503 29.5181H101.605C101.631 29.5946 101.631 29.671 101.631 29.7474C101.631 30.1041 101.427 30.4608 101.019 30.4608C100.612 30.4608 100.357 30.0532 100.357 29.62C100.357 29.2634 100.459 28.9831 100.637 28.7793C100.714 28.7029 100.765 28.6264 100.765 28.6009C100.765 28.5755 100.714 28.55 100.663 28.55C100.382 28.55 99.771 28.9322 99.0321 29.671C98.9812 29.085 98.9047 28.499 98.9047 27.9385C98.9047 27.3016 99.0321 26.792 99.0576 26.6392C99.0831 26.5373 99.0831 26.4863 99.0831 26.4353C99.0831 26.3844 99.0576 26.3334 98.9811 26.3334C98.3952 26.3334 97.0703 27.2761 97.0703 28.7029C97.0703 29.722 97.427 30.206 98.0894 30.8175C97.7073 31.4544 97.4015 32.1933 97.4015 32.8557C97.4015 33.3398 97.5035 33.6965 97.8601 33.6965C98.599 33.6965 99.1595 32.1678 99.1595 31.0213C99.1595 30.6901 99.134 30.3334 99.1085 30.0022C99.3888 29.722 99.7965 29.3143 99.8984 29.2888C99.8474 29.4417 99.8219 29.5946 99.8219 29.7474C99.8219 30.3589 100.179 30.9449 100.866 30.9449C101.503 30.9449 101.988 30.4099 101.988 29.6965C101.988 29.5946 101.988 29.5182 101.962 29.4417C102.191 29.3908 102.421 29.3398 102.624 29.2124V30.6901C102.624 30.8939 102.752 30.9449 102.879 30.9449C103.058 30.9449 103.134 30.8175 103.261 30.5627C103.363 30.3334 103.644 29.8239 103.822 29.5436C103.949 29.3143 104.026 29.1615 104.077 29.1615C104.102 29.1615 104.102 29.1869 104.102 29.2888V30.5373C104.102 30.8685 104.281 30.9704 104.433 30.9704C104.586 30.9704 104.688 30.8939 104.765 30.7665C105.147 30.2315 105.554 29.5691 105.707 29.2888C105.733 29.2379 105.784 29.2124 105.809 29.2124C105.835 29.2124 105.86 29.2379 105.86 29.3143V30.6392C105.86 30.8685 105.937 30.9959 106.115 30.9959C106.293 30.9959 106.395 30.8685 106.472 30.7411C106.726 30.2315 107.083 29.5691 107.236 29.2888C107.261 29.2379 107.312 29.1869 107.338 29.1869C107.363 29.1869 107.389 29.2124 107.389 29.3143V30.5627C107.389 30.8939 107.567 30.9959 107.72 30.9959C107.924 30.9959 108.051 30.843 108.179 30.6901C108.408 30.3844 108.765 29.7984 108.994 29.4417C109.07 29.5691 109.147 29.6965 109.223 29.8494C109.045 30.0532 108.867 30.308 108.867 30.5627C108.867 30.843 109.045 30.9959 109.249 30.9959C109.58 30.9959 109.886 30.6646 109.886 30.2315C109.886 30.0532 109.835 29.8748 109.758 29.6965C110.013 29.3908 110.37 29.1105 110.65 29.0341ZM103.159 27.964C103.159 26.8685 103.363 26.6901 103.44 26.6901C103.567 26.6901 103.567 26.7666 103.567 27.1742C103.567 27.6073 103.389 28.1678 103.159 28.4736V27.964ZM101.121 29.0086C101.121 28.9322 101.172 28.9067 101.223 28.9067C101.325 28.9067 101.452 29.0086 101.529 29.2124C101.249 29.2124 101.121 29.1615 101.121 29.0086ZM111.771 29.0086C111.771 28.9322 111.822 28.9067 111.873 28.9067C111.975 28.9067 112.128 29.0086 112.204 29.2124C112.179 29.2124 112.128 29.2124 112.102 29.2124C111.898 29.2379 111.771 29.136 111.771 29.0086Z" fill="#DB3241"/>
<path d="M119.311 14.5879V20.6006C119.311 20.677 119.26 20.728 119.184 20.728H117.324C117.247 20.728 117.197 20.677 117.197 20.6006V14.8681C117.197 14.1547 116.993 12.5242 115.158 12.5242C113.808 12.5242 113.018 13.3649 113.018 14.8426V20.6006C113.018 20.677 112.967 20.728 112.891 20.728H110.955C110.878 20.728 110.827 20.677 110.827 20.6006V6.23117C110.827 6.15474 110.878 6.10378 110.955 6.10378H112.789C112.865 6.10378 112.916 6.15474 112.916 6.23117V11.7598C113.579 10.9191 114.7 10.6133 115.617 10.6133C117.783 10.6388 119.311 12.2694 119.311 14.5879ZM103.26 14.5879V20.6006C103.26 20.677 103.209 20.728 103.133 20.728H101.273C101.197 20.728 101.146 20.677 101.146 20.6006V14.8681C101.146 14.1547 100.942 12.5242 99.1074 12.5242C97.7571 12.5242 96.9673 13.3649 96.9673 14.8426V20.6006C96.9673 20.677 96.9163 20.728 96.8399 20.728H94.98C94.9036 20.728 94.8526 20.677 94.8526 20.6006V11.0465C94.8526 10.97 94.9036 10.9191 94.98 10.9191H96.738C96.8144 10.9191 96.8654 10.97 96.8654 11.0465V11.7598C97.5278 10.9191 98.6488 10.6133 99.566 10.6133C101.732 10.6388 103.26 12.2694 103.26 14.5879ZM84.2794 16.728C84.2794 18.8172 82.5214 21.0337 79.2857 21.0337C75.9736 21.0337 74.3431 18.9955 73.9609 17.1102C73.9354 17.0337 73.9864 16.9828 74.0373 16.9573L75.8972 16.3458C75.9227 16.3458 75.9736 16.3458 75.9991 16.3458C76.0246 16.3713 76.05 16.3968 76.05 16.4223C76.2793 17.6452 77.2475 18.97 79.2603 18.97C80.9673 18.97 82.0373 18.1547 82.0373 16.8554C82.0373 15.8363 81.2985 15.0719 80.0246 14.7917L78.0118 14.3586C75.7953 13.8745 74.4704 12.3968 74.4704 10.384C74.4704 8.04008 76.6615 6.07831 79.2603 6.07831C83.2093 6.07831 84.0246 8.98276 84.1774 9.87448C84.1774 9.89995 84.1775 9.95092 84.152 9.97639C84.1265 10.0019 84.101 10.0274 84.0501 10.0274H82.1647C82.1137 10.0274 82.0628 10.0019 82.0373 9.95092C81.8844 9.5178 81.273 8.06557 79.2857 8.06557C77.808 8.06557 76.687 9.00824 76.687 10.2821C76.687 11.2758 77.2985 11.9637 78.394 12.193L80.5086 12.6516C82.9035 13.1866 84.2794 14.6643 84.2794 16.728ZM33.273 14.7152C33.4004 13.6197 34.2666 12.5242 35.7443 12.5242C37.1966 12.5242 38.1392 13.3649 38.2411 14.7152H33.273ZM35.7189 10.6388C33.0947 10.6388 31.031 12.9063 31.031 15.8108C31.031 18.4095 32.738 21.0337 35.9736 21.0337C37.8845 21.0337 39.4895 20.0401 40.2029 18.384C40.2284 18.3586 40.2284 18.3076 40.2029 18.2821C40.1774 18.2566 40.152 18.2312 40.1265 18.2057L38.4959 17.6707C38.445 17.6452 38.3685 17.6707 38.3431 17.7471C37.8845 18.6643 37.0947 19.1229 35.9736 19.1229C34.4704 19.1229 33.3239 18.0273 33.222 16.4732H40.2794C40.3303 16.4732 40.4067 16.4222 40.4067 16.3713C40.4322 16.2439 40.4577 16.0146 40.4577 15.7598C40.4322 12.6006 38.6233 10.6388 35.7189 10.6388ZM137.502 17.9509C137.502 19.4541 136.228 21.0337 133.884 21.0337C131.413 21.0337 130.216 19.607 129.91 18.3586C129.884 18.2821 129.935 18.2312 129.986 18.2057L131.693 17.6452C131.719 17.6452 131.77 17.6452 131.795 17.6452C131.821 17.6707 131.846 17.6961 131.846 17.7216C132.076 18.6133 132.84 19.1484 133.91 19.1484C134.929 19.1484 135.413 18.5624 135.413 18.0019C135.413 17.4668 135.005 17.0592 134.292 16.9063L132.662 16.5496C131.107 16.2184 130.165 15.1738 130.165 13.7471C130.165 12.0401 131.77 10.6133 133.681 10.6133C136.356 10.6133 137.171 12.3203 137.375 13.0592C137.4 13.1356 137.349 13.1866 137.298 13.2121L135.642 13.7471C135.617 13.7471 135.566 13.7471 135.54 13.7471C135.515 13.7216 135.49 13.6961 135.464 13.6707C135.311 13.2121 134.904 12.4477 133.655 12.4477C132.738 12.4477 132.203 13.0337 132.203 13.5942C132.203 14.2567 132.738 14.5114 133.197 14.6133L134.751 14.9445C136.509 15.3522 137.502 16.4477 137.502 17.9509ZM122.292 14.7152C122.419 13.6197 123.286 12.5242 124.763 12.5242C126.216 12.5242 127.158 13.3649 127.26 14.7152H122.292ZM124.738 10.6388C122.114 10.6388 120.05 12.9063 120.05 15.8108C120.05 18.4095 121.757 21.0337 124.993 21.0337C126.904 21.0337 128.509 20.0401 129.222 18.384C129.248 18.3586 129.248 18.3076 129.222 18.2821C129.197 18.2566 129.171 18.2312 129.146 18.2057L127.515 17.6707C127.464 17.6452 127.388 17.6707 127.362 17.7471C126.904 18.6643 126.114 19.1229 124.993 19.1229C123.49 19.1229 122.343 18.0273 122.241 16.4732H129.298C129.349 16.4732 129.426 16.4222 129.426 16.3713C129.451 16.2439 129.477 16.0146 129.477 15.7598C129.451 12.6006 127.642 10.6388 124.738 10.6388ZM109.604 11.0465V12.728C109.604 12.8044 109.553 12.8554 109.477 12.8554H107.541V17.6961C107.541 18.5369 107.872 18.8681 108.738 18.8681H109.477C109.553 18.8681 109.604 18.9191 109.604 18.9955V20.677C109.604 20.7535 109.553 20.8044 109.477 20.8044H108.203C106.47 20.8044 105.4 19.7089 105.4 17.9509V12.8299H103.693C103.617 12.8299 103.566 12.7789 103.566 12.7025V11.021C103.566 10.9445 103.617 10.8936 103.693 10.8936H105.4V7.88722C105.4 7.83626 105.426 7.78531 105.477 7.75983L107.337 7.14837C107.388 7.14837 107.413 7.14837 107.464 7.17385C107.49 7.19932 107.515 7.22481 107.515 7.27576V10.8936H109.451C109.553 10.9191 109.604 10.9955 109.604 11.0465ZM94.0883 10.9955C94.1138 11.021 94.1138 11.0719 94.0883 11.1229L87.8717 24.6515C87.8462 24.7025 87.7953 24.728 87.7443 24.728H85.7061C85.6552 24.728 85.6297 24.7025 85.6042 24.677C85.5787 24.6516 85.5787 24.6006 85.6042 24.5496L87.9736 19.556L83.8972 11.1229C83.8717 11.0719 83.8717 11.0465 83.8972 10.9955C83.9227 10.97 83.9736 10.9445 83.9991 10.9445H86.1392C86.1902 10.9445 86.2412 10.97 86.2666 11.021L89.1201 17.3395L91.8717 11.021C91.8972 10.97 91.9482 10.9445 91.9991 10.9445H94.0118C94.0373 10.9191 94.0628 10.9445 94.0883 10.9955ZM71.5914 10.9955C71.6169 11.021 71.6169 11.0719 71.5914 11.1229L65.3749 24.6515C65.3494 24.7025 65.2985 24.728 65.2475 24.728H63.2093C63.1584 24.728 63.1329 24.7025 63.1074 24.677C63.0819 24.6516 63.0819 24.6006 63.1074 24.5496L65.4768 19.556L61.4004 11.1229C61.3749 11.0719 61.3749 11.0465 61.4004 10.9955C61.4258 10.97 61.4768 10.9445 61.5023 10.9445H63.6424C63.6934 10.9445 63.7443 10.97 63.7698 11.021L66.6233 17.3395L69.3749 11.021C69.4004 10.97 69.4513 10.9445 69.5023 10.9445H71.515C71.515 10.9191 71.566 10.9445 71.5914 10.9955ZM60.7634 11.0465V20.6006C60.7634 20.677 60.7125 20.728 60.636 20.728H58.8781C58.8017 20.728 58.7507 20.677 58.7507 20.6006V19.8872C58.0883 20.728 56.9672 21.0337 56.05 21.0337C53.859 21.0337 52.3558 19.4032 52.3558 17.0847V11.0719C52.3558 10.9955 52.4067 10.9445 52.4832 10.9445H54.3431C54.4195 10.9445 54.4704 10.9955 54.4704 11.0719V16.8044C54.4704 17.5178 54.6743 19.1484 56.5087 19.1484C57.859 19.1484 58.6488 18.3076 58.6488 16.8299V11.0719C58.6488 10.9955 58.6997 10.9445 58.7762 10.9445H60.636C60.7125 10.9191 60.7634 10.9955 60.7634 11.0465ZM49.3749 10.7153C49.3749 12.1165 48.3813 12.9573 46.7762 12.9573H44.0755V8.39677H46.7762C48.3813 8.39677 49.3749 9.2885 49.3749 10.7153ZM47.1329 6.40952H42.0118C41.9354 6.40952 41.8844 6.46047 41.8844 6.5369V20.6006C41.8844 20.677 41.9354 20.728 42.0118 20.728H43.9482C44.0246 20.728 44.0755 20.677 44.0755 20.6006V14.97H47.1329C49.7825 14.97 51.6169 13.2121 51.6169 10.6898C51.6169 8.21843 49.7316 6.40952 47.1329 6.40952ZM23.5405 8.39677C26.343 8.39677 28.152 10.435 28.152 13.6197C28.152 16.7535 26.3176 18.7662 23.4896 18.7662H20.738V8.39677H23.5405ZM23.5915 6.40952H18.6743C18.5978 6.40952 18.5469 6.46047 18.5469 6.5369V20.6006C18.5469 20.677 18.5978 20.728 18.6743 20.728H23.566C26.98 20.728 30.4195 18.5114 30.4195 13.5942C30.4195 8.62608 27.0055 6.40952 23.5915 6.40952Z" fill="#6B6F75"/>
</g>
<defs>
<clipPath id="clip0_5959_9232">
<rect width="137.208" height="33.6306" fill="white" transform="translate(0.398438 0.184692)"/>
</clipPath>
</defs>
</svg>
