<svg width="116" height="40" viewBox="0 0 116 40" fill="none" xmlns="http://www.w3.org/2000/svg">
<g style="mix-blend-mode:luminosity" opacity="0.55" clip-path="url(#clip0_5959_9203)">
<path d="M37.5808 1.0387H26.7742L15.8125 19.9631L26.785 38.8864H37.5907L26.2873 19.9631L37.5808 1.0387Z" fill="#443738"/>
<path d="M7.66203 15.4701C7.74153 17.117 6.48878 18.5167 4.86371 18.5973C3.23864 18.6778 1.85652 17.4087 1.77702 15.7618C1.69752 14.1159 2.95076 12.7157 4.57583 12.6352C6.2009 12.5546 7.58253 13.8243 7.66203 15.4701Z" fill="#915040"/>
<path d="M12.3647 16.872C12.4086 17.7865 11.7129 18.5644 10.8102 18.609C9.90756 18.654 9.13971 17.9486 9.09576 17.0341C9.05132 16.1197 9.74757 15.3417 10.6502 15.2972C11.5529 15.2527 12.3207 15.9576 12.3647 16.872Z" fill="#3CC7F3"/>
<path d="M13.1749 7.91875C11.5079 12.5146 12.5088 14.0539 12.5088 14.0539C8.91847 13.5097 3.23246 9.42253 3.32134 5.35591C3.38257 2.53844 5.32762 0.147193 8.10618 0.00912144C13.6707 -0.266522 13.9502 5.78063 13.1749 7.91875Z" fill="#7BC142"/>
<path d="M14.5851 28.0378C12.3685 21.5599 13.2069 19.2597 13.2069 19.2597C8.12731 20.5534 0.0992494 27.2969 0.792039 33.1234C1.272 37.161 4.39721 40.3172 8.4063 40.1181C16.4349 39.7204 15.6473 31.1424 14.5851 28.0378Z" fill="#CD0954"/>
<path fill-rule="evenodd" clip-rule="evenodd" d="M56.7865 18.5493H51.7829L46.7023 9.78723L51.778 1.02466H56.7816L51.5622 9.80324L56.7865 18.5493ZM40.9609 1.02525H45.0584V18.5534H40.9609V1.02525ZM64.6196 1.06735H57.5992V12.8558H61.5137V4.94733H64.5376C67.585 4.94733 69.0498 6.98177 69.0498 9.85715C69.0498 12.6952 67.585 14.7665 64.5376 14.7665L57.5992 14.7645V18.647H64.6196C69.7537 18.647 73.1406 15.1564 73.1406 9.85717C73.1406 4.55793 69.7537 1.06735 64.6196 1.06735ZM74.4136 1.06735H81.8605C86.1548 1.06735 88.4263 3.36896 88.4263 6.84628C88.4263 10.2619 86.1548 12.5386 81.8974 12.5386H78.5591V18.3922H74.4136V1.06735ZM78.5591 8.85123H81.7981C83.2878 8.85123 84.2058 8.15786 84.2058 6.84628C84.2058 5.52175 83.2878 4.81693 81.7981 4.81693H78.5591V8.85123Z" fill="#443738"/>
<path fill-rule="evenodd" clip-rule="evenodd" d="M44.8865 21.4496H40.7891V38.9777H44.8865V21.4496ZM92.5579 27.5642C93.3576 26.3724 94.1524 26.2903 95.6767 26.2903C97.2011 26.2903 98.413 26.7403 99.3126 27.6404C100.212 28.5405 100.662 29.7032 100.662 31.1283V39.0292H96.8404V32.1502C96.8404 31.2585 96.713 31.0446 96.4582 30.7489C96.0417 30.2655 95.4391 30.112 94.8021 30.112C94.2926 30.112 93.7894 30.2393 93.4009 30.6215C92.9094 31.1049 92.6826 31.5588 92.6826 32.1502V39.0292H88.9423V26.7822H92.5579V27.5642ZM69.0698 21.4496H73.1673V38.9777H69.0698V21.4496ZM61.6636 26.0354C57.9009 26.0354 55.312 28.7728 55.312 32.7259C55.312 36.6404 57.9513 39.2628 61.8404 39.2628C63.459 39.2628 64.8737 38.8826 66.0198 38.1982L64.2284 35.1987C63.5479 35.6544 62.7722 35.8985 62.0423 35.8985C60.6785 35.8985 59.719 35.2587 59.3907 33.89H67.7876C67.8385 33.6213 67.8637 33.0585 67.8637 32.6493C67.8508 28.7218 65.3379 26.0354 61.6636 26.0354ZM59.4035 31.3571C59.7062 30.116 60.4513 29.4381 61.6764 29.4381C62.8255 29.4381 63.5958 30.1035 63.9113 31.3571H59.4035ZM52.4347 30.2887C51.0723 30.2887 50.2373 30.9725 50.2373 32.4903V39.0818H46.3951V26.8809H50.0778V28.2861C50.7775 27.105 51.895 26.5452 53.3679 26.5452C53.9323 26.5452 54.4237 26.6448 54.718 26.7318L54.6696 30.2937C54.6696 30.2937 53.122 30.2887 52.4347 30.2887ZM80.2791 39.0294C81.4922 39.0294 82.626 38.6903 83.5911 38.1017V39.0297H87.6675V26.8004H83.5911V27.2182C82.626 26.6296 81.4922 26.2905 80.2791 26.2905C76.7614 26.2905 73.9097 29.1422 73.9097 32.66C73.9097 36.1777 76.7614 39.0294 80.2791 39.0294ZM80.4074 35.7175C82.0256 35.7175 83.3374 34.4058 83.3374 32.7876C83.3374 31.1694 82.0256 29.8577 80.4074 29.8577C78.7893 29.8577 77.4775 31.1694 77.4775 32.7876C77.4775 34.4058 78.7893 35.7175 80.4074 35.7175ZM111.362 21.4499H115.438V39.0296H111.362V38.1018C110.397 38.6904 109.263 39.0295 108.05 39.0295C104.532 39.0295 101.68 36.1778 101.68 32.6601C101.68 29.1423 104.532 26.2906 108.05 26.2906C109.263 26.2906 110.397 26.6298 111.362 27.2184V21.4499ZM111.107 32.7874C111.107 34.4055 109.795 35.7173 108.177 35.7173C106.559 35.7173 105.247 34.4055 105.247 32.7874C105.247 31.1692 106.559 29.8574 108.177 29.8574C109.795 29.8574 111.107 31.1692 111.107 32.7874Z" fill="#443738"/>
</g>
<defs>
<clipPath id="clip0_5959_9203">
<rect width="114.65" height="40" fill="white" transform="translate(0.75)"/>
</clipPath>
</defs>
</svg>
